<?xml version="1.0" encoding="UTF-8"?>
<!DOCTYPE svg PUBLIC "-//W3C//DTD SVG 1.1//EN" "http://www.w3.org/Graphics/SVG/1.1/DTD/svg11.dtd">
<!-- Creator: CorelDRAW -->
<svg xmlns="http://www.w3.org/2000/svg" xml:space="preserve" width="9.37mm" height="7.28mm" version="1.1" style="shape-rendering:geometricPrecision; text-rendering:geometricPrecision; image-rendering:optimizeQuality; fill-rule:evenodd; clip-rule:evenodd"
viewBox="0 0 937 728"
 xmlns:xlink="http://www.w3.org/1999/xlink"
 xmlns:xodm="http://www.corel.com/coreldraw/odm/2003">
 <defs>
  <style type="text/css">
   <![CDATA[
    .fil0 {fill:#E6A04D;fill-rule:nonzero}
   ]]>
  </style>
 </defs>
 <g id="Слой_x0020_1">
  <metadata id="CorelCorpID_0Corel-Layer"/>
  <g id="_2501181164896">
   <path class="fil0" d="M497.02 120.15c18.54,-11.38 30.89,-32.01 30.89,-55.28 0,-35.93 -29.11,-65.04 -65.04,-65.04 -35.94,0 -65.05,29.11 -65.05,65.04 0,23.41 12.35,43.9 30.89,55.28l-93.16 186.38c-14.8,29.57 -53.17,38.04 -79.03,17.38l-144.88 -115.93c8.14,-10.91 13.01,-24.41 13.01,-39.04 0,-35.93 -29.11,-65.03 -65.05,-65.03 -35.93,0 -65.04,29.1 -65.04,65.03 0,35.93 29.11,65.06 65.04,65.06 0.33,0 0.82,0 1.14,0l74.31 408.78c8.95,49.46 52.03,85.53 102.44,85.53l450.76 0c50.24,0 93.32,-35.94 102.44,-85.53l74.31 -408.78c0.33,0 0.81,0 1.14,0 35.93,0 65.04,-29.13 65.04,-65.06 0,-35.93 -29.11,-65.03 -65.04,-65.03 -35.94,0 -65.05,29.1 -65.05,65.03 0,14.63 4.88,28.13 13.01,39.04l-144.89 115.93c-25.84,20.66 -64.21,12.19 -79.02,-17.38l-93.17 -186.38z"/>
  </g>
 </g>
</svg>
