<?xml version="1.0" encoding="UTF-8"?>
<!DOCTYPE svg PUBLIC "-//W3C//DTD SVG 1.1//EN" "http://www.w3.org/Graphics/SVG/1.1/DTD/svg11.dtd">
<!-- Creator: CorelDRAW -->
<svg xmlns="http://www.w3.org/2000/svg" xml:space="preserve" width="25mm" height="25mm" version="1.1" style="shape-rendering:geometricPrecision; text-rendering:geometricPrecision; image-rendering:optimizeQuality; fill-rule:evenodd; clip-rule:evenodd"
viewBox="0 0 2500 2500"
 xmlns:xlink="http://www.w3.org/1999/xlink"
 xmlns:xodm="http://www.corel.com/coreldraw/odm/2003">
 <defs>
  <style type="text/css">
   <![CDATA[
    .fil1 {fill:#5A852D;fill-rule:nonzero}
    .fil0 {fill:#1E2D3C;fill-rule:nonzero}
   ]]>
  </style>
 </defs>
 <g id="Слой_x0020_1">
  <metadata id="CorelCorpID_0Corel-Layer"/>
  <g id="_1965472413328">
   <path class="fil0" d="M2126.75 1472.5c-121.15,485.9 -613.33,781.61 -1099.31,660.46 -485.75,-121.16 -781.48,-613.33 -660.28,-1099.21 121.08,-485.98 613.23,-781.71 1099.06,-660.56 485.95,121.15 781.66,613.38 660.51,1099.31l0.02 0z"/>
   <path class="fil1" d="M1611.19 1002.64c0,25.62 -20.35,49.24 -54.64,68.3 -41.4,22.91 -103.15,39.13 -174.01,43.97 -5.27,-2.56 -10.53,-4.98 -16.08,-7.12 -56.06,-23.47 -130.62,-36.85 -210.58,-36.85 -11.81,0 -23.34,0.29 -34.86,0.86l-1.57 -0.86c-34.29,-19.06 -54.63,-42.68 -54.63,-68.3 0,-62.89 122.36,-113.82 273.18,-113.82 150.83,0 273.19,50.93 273.19,113.82zm-499.85 115.4c14.52,-1 29.46,-1.57 44.54,-1.57 88.5,0 167.04,17.5 216.98,44.68 35.29,19.21 56.21,43.11 56.21,69.15 0,5.69 -1,11.24 -2.99,16.65 -6.55,18.78 -24.19,36 -49.8,50.51 0,0 0,0 0,0 -0.14,0.14 -0.43,0.14 -0.57,0.28 0,0 0,0 0,0 0,0 0,0 0,0 -0.43,0.29 -0.85,0.43 -1.28,0.72 -49.8,27.6 -129.2,45.53 -218.55,45.53 -84.8,0 -160.64,-16.08 -210.87,-41.41 -2.7,-1.28 -5.26,-2.7 -7.82,-4.12 -34.15,-18.93 -54.5,-42.55 -54.5,-68.16 0,-49.51 75.98,-91.77 182.13,-107.28 14.94,-2.14 30.44,-3.84 46.52,-4.98l0 0zm363.26 112.26c0,-31.16 -15.09,-56.77 -34.29,-75.98 40.26,-6.26 77.11,-16.22 108.42,-29.17 23.19,-9.67 44.82,-21.63 62.46,-36.28l0 50.37c0,27.46 -23.48,52.79 -62.32,72.42 -20.77,10.53 -46.1,19.49 -74.56,26.32 0.14,-2.56 0.29,-4.98 0.29,-7.54l0 -0.14zm-45.53 136.59c0,25.62 -20.35,49.24 -54.64,68.3 -2.56,1.42 -5.12,2.7 -7.83,4.13 -50.08,25.32 -125.92,41.4 -210.72,41.4 -89.36,0 -168.75,-17.93 -218.55,-45.53 -34.29,-19.06 -54.64,-42.68 -54.64,-68.3l0 -50.36c17.79,14.65 39.27,26.6 62.46,36.28 56.21,23.48 130.76,36.85 210.73,36.85 79.96,0 154.52,-13.37 210.72,-36.85 11.1,-4.56 21.77,-9.82 31.87,-15.51 8.68,-4.84 16.79,-10.25 24.48,-15.94 2.13,-1.56 4.12,-3.27 6.12,-4.83l0 4.83 0 8.11 0 37.42 0 0zm45.53 0l0 -45.53 0 -36.85c27.03,-5.97 51.93,-13.52 74.13,-22.76 23.19,-9.68 44.82,-21.63 62.46,-36.29l0 50.37c0,14.94 -7.11,29.88 -21.2,43.97 -23.19,23.19 -64.03,42.26 -115.68,54.64 0.14,-2.42 0.29,-4.98 0.29,-7.55zm-318.72 159.36c79.96,0 154.52,-13.37 210.72,-36.85 23.2,-9.67 44.82,-21.63 62.47,-36.28l0 50.37c0,62.89 -122.37,113.83 -273.19,113.83 -150.82,0 -273.19,-50.94 -273.19,-113.83l0 -50.37c17.79,14.65 39.27,26.61 62.46,36.28 56.21,23.48 130.76,36.85 210.73,36.85z"/>
  </g>
 </g>
</svg>
