<?xml version="1.0" encoding="UTF-8"?>
<!DOCTYPE svg PUBLIC "-//W3C//DTD SVG 1.1//EN" "http://www.w3.org/Graphics/SVG/1.1/DTD/svg11.dtd">
<!-- Creator: CorelDRAW -->
<svg xmlns="http://www.w3.org/2000/svg" xml:space="preserve" width="25mm" height="25mm" version="1.1" style="shape-rendering:geometricPrecision; text-rendering:geometricPrecision; image-rendering:optimizeQuality; fill-rule:evenodd; clip-rule:evenodd"
viewBox="0 0 2500 2500"
 xmlns:xlink="http://www.w3.org/1999/xlink"
 xmlns:xodm="http://www.corel.com/coreldraw/odm/2003">
 <defs>
  <style type="text/css">
   <![CDATA[
    .fil0 {fill:#12222E;fill-rule:nonzero}
    .fil1 {fill:#1375E1;fill-rule:nonzero}
   ]]>
  </style>
 </defs>
 <g id="Слой_x0020_1">
  <metadata id="CorelCorpID_0Corel-Layer"/>
  <g id="_1962336448512">
   <path class="fil0" d="M2126.75 1472.49c-121.15,485.91 -613.33,781.62 -1099.31,660.46 -485.75,-121.15 -781.48,-613.33 -660.28,-1099.2 121.08,-485.98 613.23,-781.72 1099.06,-660.56 485.95,121.15 781.66,613.38 660.51,1099.3l0.02 0z"/>
   <path class="fil1" d="M1281.09 1009.15c18.54,-11.39 30.89,-32.02 30.89,-55.29 0,-35.93 -29.11,-65.04 -65.04,-65.04 -35.94,0 -65.05,29.11 -65.05,65.04 0,23.41 12.35,43.9 30.89,55.29l-93.17 186.37c-14.8,29.58 -53.17,38.04 -79.03,17.38l-144.88 -115.92c8.14,-10.92 13.01,-24.41 13.01,-39.05 0,-35.93 -29.11,-65.02 -65.05,-65.02 -35.93,0 -65.04,29.09 -65.04,65.02 0,35.94 29.11,65.06 65.04,65.06 0.33,0 0.82,0 1.14,0l74.31 408.79c8.95,49.46 52.03,85.53 102.44,85.53l450.77 0c50.24,0 93.32,-35.93 102.44,-85.53l74.31 -408.79c0.33,0 0.81,0 1.14,0 35.93,0 65.04,-29.12 65.04,-65.06 0,-35.93 -29.11,-65.02 -65.04,-65.02 -35.94,0 -65.05,29.09 -65.05,65.02 0,14.64 4.88,28.13 13.01,39.05l-144.89 115.92c-25.84,20.66 -64.21,12.2 -79.02,-17.38l-93.17 -186.37z"/>
  </g>
 </g>
</svg>
