<?xml version="1.0" encoding="UTF-8"?>
<!DOCTYPE svg PUBLIC "-//W3C//DTD SVG 1.1//EN" "http://www.w3.org/Graphics/SVG/1.1/DTD/svg11.dtd">
<!-- Creator: CorelDRAW -->
<svg xmlns="http://www.w3.org/2000/svg" xml:space="preserve" width="25mm" height="25mm" version="1.1" style="shape-rendering:geometricPrecision; text-rendering:geometricPrecision; image-rendering:optimizeQuality; fill-rule:evenodd; clip-rule:evenodd"
viewBox="0 0 2500 2500"
 xmlns:xlink="http://www.w3.org/1999/xlink"
 xmlns:xodm="http://www.corel.com/coreldraw/odm/2003">
 <defs>
  <style type="text/css">
   <![CDATA[
    .fil1 {fill:#5A852D;fill-rule:nonzero}
    .fil0 {fill:#1E2D3C;fill-rule:nonzero}
   ]]>
  </style>
 </defs>
 <g id="Слой_x0020_1">
  <metadata id="CorelCorpID_0Corel-Layer"/>
  <g id="_1956472499824">
   <path class="fil0" d="M2126.29 1472.96c-121.15,485.9 -613.33,781.61 -1099.31,660.46 -485.75,-121.15 -781.48,-613.33 -660.28,-1099.21 121.08,-485.98 613.23,-781.71 1099.06,-660.56 485.95,121.15 781.66,613.38 660.51,1099.31l0.02 0z"/>
   <path class="fil1" d="M1169.21 948.22c-41.99,-41.99 -110.13,-41.99 -152.12,0l-207.41 207.41c-41.99,41.99 -41.99,110.14 0,152.13l207.4 207.41c41.99,41.99 110.14,41.99 152.13,0l207.41 -207.41c41.99,-41.99 41.99,-110.13 0,-152.13l-207.41 -207.41zm-111.93 283.48c0,-19.81 16.06,-35.87 35.87,-35.87 19.8,0 35.86,16.06 35.86,35.87 0,19.8 -16.06,35.86 -35.86,35.86 -19.81,0 -35.87,-16.06 -35.87,-35.86l0 0zm-155.41 -35.87c19.81,0 35.87,16.06 35.87,35.87 0,19.8 -16.06,35.86 -35.87,35.86 -19.8,0 -35.86,-16.06 -35.86,-35.86 0,-19.81 16.06,-35.87 35.86,-35.87l0 0zm191.28 263c-19.81,0 -35.87,-16.06 -35.87,-35.86 0,-19.8 16.06,-35.86 35.87,-35.86 19.8,0 35.86,16.06 35.86,35.86 0,19.8 -16.06,35.86 -35.86,35.86l0 0zm191.27 -263c19.8,0 35.86,16.06 35.86,35.87 0,19.8 -16.06,35.86 -35.86,35.86 -19.81,0 -35.87,-16.06 -35.87,-35.86 0,-19.81 16.06,-35.87 35.87,-35.87l0 0zm-191.27 -119.55c-19.81,0.01 -35.87,-16.06 -35.87,-35.86 0,-19.8 16.06,-35.86 35.87,-35.86 19.8,0 35.86,16.06 35.86,35.86 0,19.8 -16.06,35.87 -35.86,35.87l0 -0.01zm143.45 418.42c0,52.75 42.89,95.64 95.63,95.64l286.91 0c52.75,0 95.64,-42.89 95.64,-95.64l0 -286.91c0,-52.75 -42.89,-95.64 -95.64,-95.64l-170.8 0c17.34,53.79 4.63,115.06 -37.95,157.65l-173.79 245.52 0 51.11 0 -71.73zm239.09 -107.59c19.8,0 35.86,16.06 35.86,35.86 0,19.8 -16.06,35.86 -35.86,35.86 -19.81,0 -35.87,-16.06 -35.87,-35.86 0,-19.8 16.06,-35.86 35.87,-35.86l0 0z"/>
  </g>
 </g>
</svg>
