<?xml version="1.0" encoding="UTF-8"?>
<!DOCTYPE svg PUBLIC "-//W3C//DTD SVG 1.1//EN" "http://www.w3.org/Graphics/SVG/1.1/DTD/svg11.dtd">
<!-- Creator: CorelDRAW -->
<svg xmlns="http://www.w3.org/2000/svg" xml:space="preserve" width="25mm" height="25mm" version="1.1" style="shape-rendering:geometricPrecision; text-rendering:geometricPrecision; image-rendering:optimizeQuality; fill-rule:evenodd; clip-rule:evenodd"
viewBox="0 0 2500 2500"
 xmlns:xlink="http://www.w3.org/1999/xlink"
 xmlns:xodm="http://www.corel.com/coreldraw/odm/2003">
 <defs>
  <style type="text/css">
   <![CDATA[
    .fil1 {fill:#5A852D;fill-rule:nonzero}
    .fil0 {fill:#1E2D3C;fill-rule:nonzero}
   ]]>
  </style>
 </defs>
 <g id="Слой_x0020_1">
  <metadata id="CorelCorpID_0Corel-Layer"/>
  <path class="fil0" d="M2126.75 1472.5c-121.15,485.9 -613.33,781.61 -1099.31,660.46 -485.75,-121.15 -781.48,-613.33 -660.28,-1099.21 121.08,-485.97 613.23,-781.71 1099.06,-660.56 485.95,121.16 781.66,613.38 660.51,1099.31l0.02 0z"/>
  <path class="fil1" d="M973.74 934.36c-50.23,0 -91.06,40.82 -91.06,91.05l0 455.31c0,50.24 40.83,91.06 91.06,91.06l546.38 0c50.22,0 91.06,-40.82 91.06,-91.06l0 -318.72c0,-50.21 -40.84,-91.06 -91.06,-91.06l-523.62 0c-12.52,0 -22.76,-10.24 -22.76,-22.75 0,-12.53 10.24,-22.78 22.76,-22.78l523.62 0c25.18,0 45.52,-20.33 45.52,-45.53 0,-25.18 -20.34,-45.52 -45.52,-45.52l-546.38 0zm500.84 341.47c25.14,0 45.54,20.39 45.54,45.53 0,25.15 -20.4,45.53 -45.54,45.53 -25.14,0 -45.53,-20.38 -45.53,-45.53 0,-25.14 20.39,-45.53 45.53,-45.53z"/>
 </g>
</svg>
