<?xml version="1.0" encoding="UTF-8"?>
<!DOCTYPE svg PUBLIC "-//W3C//DTD SVG 1.1//EN" "http://www.w3.org/Graphics/SVG/1.1/DTD/svg11.dtd">
<!-- Creator: CorelDRAW -->
<svg xmlns="http://www.w3.org/2000/svg" xml:space="preserve" width="300mm" height="100mm" version="1.1" style="shape-rendering:geometricPrecision; text-rendering:geometricPrecision; image-rendering:optimizeQuality; fill-rule:evenodd; clip-rule:evenodd"
viewBox="0 0 30000 10000"
 xmlns:xlink="http://www.w3.org/1999/xlink"
 xmlns:xodm="http://www.corel.com/coreldraw/odm/2003">
 <defs>
  <style type="text/css">
   <![CDATA[
    .str0 {stroke:#192736;stroke-width:52.92;stroke-miterlimit:22.9256}
    .str1 {stroke:#FEFEFE;stroke-width:52.92;stroke-linecap:round;stroke-linejoin:round;stroke-miterlimit:22.9256;stroke-dasharray:264.600000 264.600000}
    .fil3 {fill:none}
    .fil2 {fill:#061724}
    .fil1 {fill:#0C202E}
    .fil4 {fill:#192736;fill-rule:nonzero}
    .fil5 {fill:#59852C;fill-rule:nonzero}
    .fil0 {fill:white;fill-rule:nonzero}
   ]]>
  </style>
    <clipPath id="id0">
     <path d="M3160.34 1233.48l13673.51 0c-0.23,7.86 -0.39,15.76 -0.39,23.68 0,431.07 349.45,780.52 780.52,780.52 431.07,0 780.52,-349.45 780.52,-780.52 0,-7.92 -0.16,-15.82 -0.39,-23.68l8439.68 0c161.85,0 294.24,132.42 294.24,294.27l0 6952.09c0,161.85 -132.39,294.27 -294.24,294.27l-8439.42 0c0.05,-3.39 0.13,-6.78 0.13,-10.19 0,-431.07 -349.45,-780.52 -780.52,-780.52 -431.07,0 -780.52,349.45 -780.52,780.52 0,3.41 0.08,6.8 0.13,10.19l-13673.25 0c-161.85,0 -294.24,-132.42 -294.24,-294.27l0 -6952.09c0,-161.85 132.39,-294.27 294.24,-294.27z"/>
    </clipPath>
     <clipPath id="id1">
      <path d="M17618.55 7983.46l0 -5945.84c428.96,-2.47 775.95,-350.92 775.95,-780.46 0,-7.92 -0.16,-15.82 -0.39,-23.68l8439.68 0c161.85,0 294.24,132.42 294.24,294.27l0 6952.09c0,161.85 -132.39,294.27 -294.24,294.27l-8439.42 0c0.05,-3.39 0.13,-6.78 0.13,-10.19 0,-429.54 -346.99,-777.99 -775.95,-780.46z"/>
     </clipPath>
     <clipPath id="id2">
      <path d="M3160.34 1233.48l13673.51 0c-0.23,7.86 -0.39,15.76 -0.39,23.68 0,431.07 349.45,780.52 780.52,780.52 431.07,0 780.52,-349.45 780.52,-780.52 0,-7.92 -0.16,-15.82 -0.39,-23.68l8439.68 0c161.85,0 294.24,132.42 294.24,294.27l0 6952.09c0,161.85 -132.39,294.27 -294.24,294.27l-8439.42 0c0.05,-3.39 0.13,-6.78 0.13,-10.19 0,-431.07 -349.45,-780.52 -780.52,-780.52 -431.07,0 -780.52,349.45 -780.52,780.52 0,3.41 0.08,6.8 0.13,10.19l-13673.25 0c-161.85,0 -294.24,-132.42 -294.24,-294.27l0 -6952.09c0,-161.85 132.39,-294.27 294.24,-294.27z"/>
     </clipPath>
 </defs>
 <g id="Слой_x0020_1">
  <metadata id="CorelCorpID_0Corel-Layer"/>
  <g id="_1963735426192">
   <path class="fil0" d="M3671.75 2428.23l-250.77 0 0 131.63 111.36 0c39.92,0 74.61,6.89 104.33,20.53 29.59,13.78 52.17,33.17 67.6,58.3 15.44,25.25 23.22,54.33 23.22,87.5 0,50.76 -17.35,91.71 -51.79,122.57 -34.56,30.87 -81.5,46.56 -141.07,47.07l-208.16 0 0 -544.14 345.28 0 0 76.54zm-250.77 208.16l0 183.67 111.1 0c31.89,0 56.63,-8.67 74.49,-25.89 17.86,-17.22 26.66,-40.05 26.66,-68.49 0,-27.3 -8.67,-48.86 -26.15,-64.8 -17.35,-15.82 -41.58,-23.98 -72.45,-24.49l-113.65 0z"/>
   <path id="_1" class="fil0" d="M3783.23 2690.09c0,-39.67 7.91,-75.38 23.59,-107.14 15.69,-31.76 37.76,-56.13 66.2,-73.22 28.32,-17.09 60.97,-25.64 97.84,-25.64 54.59,0 98.85,17.61 132.9,52.68 33.93,35.21 52.3,81.76 55.11,139.8l0.38 21.3c0,39.92 -7.65,75.51 -22.96,106.89 -15.43,31.38 -37.25,55.74 -65.82,72.96 -28.57,17.22 -61.48,25.76 -98.85,25.76 -57.01,0 -102.68,-19 -136.99,-57.01 -34.18,-38.01 -51.4,-88.65 -51.4,-151.92l0 -4.46zm90.81 7.65c0,41.58 8.68,74.11 25.9,97.71 17.09,23.59 41.07,35.33 71.68,35.33 30.61,0 54.47,-11.99 71.56,-35.84 17.09,-23.98 25.64,-58.93 25.64,-105.11 0,-40.81 -8.81,-73.21 -26.41,-97.19 -17.47,-23.85 -41.32,-35.84 -71.55,-35.84 -29.6,0 -53.19,11.73 -70.54,35.33 -17.48,23.6 -26.28,58.67 -26.28,105.61z"/>
   <path id="_2" class="fil0" d="M4573.66 2491.75l0 404.08 -90.81 0 0 -330.61 -114.29 0 -7.53 140.69c-4.72,67.6 -17.73,116.2 -39.03,145.66 -21.3,29.46 -53.82,44.26 -97.7,44.26l-28.06 0 -0.39 -75.77 18.76 -1.91c19.89,-2.68 34.43,-14.79 43.49,-36.35 9.06,-21.56 14.92,-60.72 17.35,-117.73l7.52 -172.32 290.69 0z"/>
   <path id="_3" class="fil0" d="M4768.18 2620.32l88.9 0c33.17,0 61.99,5.74 86.61,17.22 24.74,11.35 43.49,27.42 56.25,48.08 12.88,20.67 19.26,44.65 19.26,72.07 0,41.58 -14.67,74.87 -44.01,100 -29.46,25.26 -68.49,37.88 -117.34,38.14l-180.49 0 0 -404.08 90.82 0 0 128.57zm0 72.7l0 130.11 88.52 0c22.19,0 39.67,-5.49 52.42,-16.59 12.89,-11.09 19.26,-26.78 19.26,-47.19 0,-20.41 -6.25,-36.48 -18.87,-48.21 -12.5,-11.87 -29.47,-17.86 -50.9,-18.12l-90.43 0z"/>
   <polygon id="_4" class="fil0" points="5186.17,2491.75 5186.17,2823.13 5312.57,2823.13 5312.57,2491.75 5403.39,2491.75 5403.39,2823.13 5530.05,2823.13 5530.05,2491.75 5620.48,2491.75 5620.48,2895.83 5095.48,2895.83 5095.48,2491.75 "/>
   <path id="_5" class="fil0" d="M5897.14 2903.48c-57.53,0 -104.21,-18.11 -139.93,-54.33 -35.71,-36.36 -53.7,-84.57 -53.7,-144.9l0 -11.23c0,-40.3 7.78,-76.4 23.47,-108.16 15.56,-31.76 37.37,-56.51 65.56,-74.24 28.07,-17.73 59.44,-26.53 94.14,-26.53 55.1,0 97.57,17.61 127.55,52.81 30.1,35.2 45.02,84.95 45.02,149.24l0 36.73 -264.16 0c2.81,33.29 13.91,59.57 33.42,78.83 19.65,19.38 44.26,29.08 73.86,29.08 41.58,0 75.51,-16.71 101.65,-50.26l48.98 46.69c-16.19,24.23 -37.88,42.98 -64.92,56.25 -27.04,13.39 -57.27,20.02 -90.94,20.02zm-10.85 -346.68c-24.87,0 -45.02,8.8 -60.33,26.27 -15.3,17.48 -25.13,41.97 -29.33,73.22l172.96 0 0 -6.76c-1.92,-30.49 -10.08,-53.57 -24.24,-69.26 -14.16,-15.69 -33.93,-23.47 -59.06,-23.47z"/>
   <path id="_6" class="fil0" d="M6561.81 2895.83c-4.08,-7.65 -7.53,-20.15 -10.46,-37.63 -28.95,30.23 -64.29,45.28 -106.12,45.28 -40.69,0 -73.73,-11.6 -99.49,-34.82 -25.64,-23.21 -38.4,-51.91 -38.4,-86.1 0,-43.11 15.95,-76.27 47.96,-99.36 32.02,-23.09 77.81,-34.57 137.38,-34.57l55.61 0 0 -26.53c0,-20.91 -5.87,-37.62 -17.48,-50.25 -11.73,-12.63 -29.59,-18.88 -53.44,-18.88 -20.66,0 -37.63,5.23 -50.89,15.56 -13.14,10.33 -19.77,23.47 -19.77,39.42l-90.82 0c0,-22.2 7.4,-42.86 22.07,-62.12 14.66,-19.26 34.69,-34.44 59.95,-45.28 25.25,-10.97 53.57,-16.46 84.69,-16.46 47.32,0 85.08,11.87 113.14,35.72 28.19,23.72 42.6,57.14 43.37,100.25l0 182.4c0,36.35 5.1,65.31 15.3,86.99l0 6.38 -92.6 0zm-99.87 -65.05c17.98,0 34.82,-4.34 50.63,-13.14 15.82,-8.67 27.81,-20.41 35.72,-35.2l0 -76.41 -48.98 0c-33.55,0 -58.8,5.87 -75.77,17.61 -16.96,11.73 -25.51,28.31 -25.51,49.87 0,17.47 5.87,31.38 17.48,41.71 11.6,10.33 27.04,15.56 46.43,15.56z"/>
   <polygon id="_7" class="fil0" points="6877.88,2735.11 6831.96,2735.11 6831.96,2895.83 6741.14,2895.83 6741.14,2491.75 6831.96,2491.75 6831.96,2652.46 6871.88,2652.46 6983.62,2491.75 7095.74,2491.75 6949.69,2684.48 7108.11,2895.83 6990,2895.83 "/>
   <polygon id="_8" class="fil0" points="7476.1,2563.69 7344.98,2563.69 7344.98,2895.83 7254.16,2895.83 7254.16,2563.69 7124.57,2563.69 7124.57,2491.75 7476.1,2491.75 "/>
   <polygon id="_9" class="fil0" points="7788.98,2491.75 7879.42,2491.75 7879.42,2895.83 7788.98,2895.83 7788.98,2626.19 7630.56,2895.83 7540.13,2895.83 7540.13,2491.75 7630.56,2491.75 7630.56,2761.39 "/>
   <path id="_10" class="fil0" d="M7982.86 2895.83l0 -404.08 164.16 0c55.23,0 97.33,9.69 126.28,28.95 28.83,19.26 43.37,46.94 43.37,83.04 0,18.62 -5.87,35.46 -17.48,50.25 -11.48,14.8 -28.7,26.15 -51.27,34.19 26.4,5.35 47.32,16.45 62.75,33.16 15.44,16.71 23.09,36.35 23.09,59.06 0,37.62 -13.78,66.2 -41.58,85.97 -27.81,19.64 -67.73,29.46 -119.77,29.46l-189.55 0zm90.82 -172.19l0 100.25 99.49 0c46.56,0 69.9,-16.71 69.9,-50 0,-33.55 -23.73,-50.25 -71.05,-50.25l-98.34 0zm0 -65.06l74.75 0c51.65,0 77.42,-15.17 77.42,-45.53 0,-31.89 -24.49,-48.34 -73.34,-49.36l-78.83 0 0 94.89z"/>
   <polygon id="_11" class="fil0" points="8754.55,2895.83 8663.74,2895.83 8663.74,2732.82 8506.34,2732.82 8506.34,2895.83 8415.65,2895.83 8415.65,2491.75 8506.34,2491.75 8506.34,2660.11 8663.74,2660.11 8663.74,2491.75 8754.55,2491.75 "/>
   <path id="_12" class="fil0" d="M8833.89 2690.09c0,-39.67 7.91,-75.38 23.59,-107.14 15.69,-31.76 37.76,-56.13 66.2,-73.22 28.32,-17.09 60.97,-25.64 97.84,-25.64 54.59,0 98.85,17.61 132.9,52.68 33.93,35.21 52.3,81.76 55.11,139.8l0.38 21.3c0,39.92 -7.65,75.51 -22.96,106.89 -15.43,31.38 -37.25,55.74 -65.82,72.96 -28.57,17.22 -61.48,25.76 -98.85,25.76 -57.01,0 -102.68,-19 -136.99,-57.01 -34.18,-38.01 -51.4,-88.65 -51.4,-151.92l0 -4.46zm90.81 7.65c0,41.58 8.68,74.11 25.9,97.71 17.09,23.59 41.07,35.33 71.68,35.33 30.61,0 54.47,-11.99 71.56,-35.84 17.09,-23.98 25.64,-58.93 25.64,-105.11 0,-40.81 -8.81,-73.21 -26.41,-97.19 -17.47,-23.85 -41.32,-35.84 -71.55,-35.84 -29.6,0 -53.19,11.73 -70.54,35.33 -17.48,23.6 -26.28,58.67 -26.28,105.61z"/>
   <path id="_13" class="fil0" d="M9452.77 2830.78c22.58,0 41.46,-6.63 56.38,-19.77 14.92,-13.14 22.96,-29.47 23.85,-48.85l85.59 0c-0.89,25.25 -8.8,48.72 -23.47,70.53 -14.67,21.81 -34.7,39.03 -59.82,51.79 -25.13,12.63 -52.3,19 -81.51,19 -56.5,0 -101.4,-18.36 -134.44,-54.97 -33.16,-36.61 -49.74,-87.25 -49.74,-151.79l0 -9.31c0,-61.48 16.45,-110.84 49.36,-147.83 32.91,-36.99 77.68,-55.49 134.44,-55.49 48.09,0 87.37,14.03 117.6,42.1 30.23,27.93 46.18,64.79 47.58,110.46l-85.59 0c-0.89,-23.35 -8.8,-42.35 -23.72,-57.4 -14.8,-14.93 -33.68,-22.45 -56.51,-22.45 -29.46,0 -52.17,10.71 -68.11,32.01 -15.95,21.3 -23.98,53.57 -24.24,96.94l0 14.54c0,43.88 7.91,76.53 23.73,98.09 15.81,21.56 38.65,32.4 68.62,32.4z"/>
   <polygon id="_14" class="fil0" points="10005.58,2563.69 9874.46,2563.69 9874.46,2895.83 9783.64,2895.83 9783.64,2563.69 9654.05,2563.69 9654.05,2491.75 10005.58,2491.75 "/>
   <polygon id="_15" class="fil0" points="10318.46,2491.75 10408.9,2491.75 10408.9,2895.83 10318.46,2895.83 10318.46,2626.19 10160.04,2895.83 10069.61,2895.83 10069.61,2491.75 10160.04,2491.75 10160.04,2761.39 "/>
   <polygon id="_16" class="fil0" points="10872.17,2701.44 10675.99,2701.44 10675.99,2627.97 10872.17,2627.97 "/>
   <path id="_17" class="fil0" d="M11144.61 2895.83l0 -404.08 164.16 0c55.23,0 97.33,9.69 126.28,28.95 28.83,19.26 43.37,46.94 43.37,83.04 0,18.62 -5.87,35.46 -17.48,50.25 -11.48,14.8 -28.7,26.15 -51.27,34.19 26.4,5.35 47.32,16.45 62.75,33.16 15.44,16.71 23.09,36.35 23.09,59.06 0,37.62 -13.78,66.2 -41.58,85.97 -27.81,19.64 -67.73,29.46 -119.77,29.46l-189.55 0zm90.82 -172.19l0 100.25 99.49 0c46.56,0 69.9,-16.71 69.9,-50 0,-33.55 -23.73,-50.25 -71.05,-50.25l-98.34 0zm0 -65.06l74.75 0c51.65,0 77.42,-15.17 77.42,-45.53 0,-31.89 -24.49,-48.34 -73.34,-49.36l-78.83 0 0 94.89z"/>
   <path id="_18" class="fil0" d="M11671.4 2620.32l88.91 0c33.16,0 62.11,5.74 86.73,17.22 24.75,11.35 43.5,27.42 56.25,48.08 12.89,20.67 19.26,44.65 19.26,72.07 0,41.58 -14.67,74.87 -44.13,100 -29.34,25.26 -68.5,37.88 -117.35,38.14l-180.48 0 0 -404.08 90.81 0 0 128.57zm409.19 275.51l-90.82 0 0 -404.08 90.82 0 0 404.08zm-409.19 -202.81l0 130.11 88.65 0c22.07,0 39.67,-5.49 52.43,-16.59 12.88,-11.09 19.26,-26.78 19.26,-47.19 0,-20.41 -6.25,-36.48 -18.88,-48.21 -12.5,-11.87 -29.59,-17.86 -51.02,-18.12l-90.44 0z"/>
   <polygon id="_19" class="fil0" points="12283.53,2491.75 12283.53,2823.13 12409.93,2823.13 12409.93,2491.75 12500.75,2491.75 12500.75,2823.13 12627.41,2823.13 12627.41,2491.75 12717.84,2491.75 12717.84,2895.83 12192.84,2895.83 12192.84,2491.75 "/>
   <path id="_20" class="fil0" d="M12994.5 2903.48c-57.53,0 -104.21,-18.11 -139.93,-54.33 -35.71,-36.36 -53.7,-84.57 -53.7,-144.9l0 -11.23c0,-40.3 7.78,-76.4 23.47,-108.16 15.56,-31.76 37.37,-56.51 65.56,-74.24 28.07,-17.73 59.44,-26.53 94.14,-26.53 55.1,0 97.57,17.61 127.55,52.81 30.1,35.2 45.02,84.95 45.02,149.24l0 36.73 -264.16 0c2.81,33.29 13.91,59.57 33.42,78.83 19.65,19.38 44.26,29.08 73.86,29.08 41.58,0 75.51,-16.71 101.65,-50.26l48.98 46.69c-16.19,24.23 -37.88,42.98 -64.92,56.25 -27.04,13.39 -57.27,20.02 -90.94,20.02zm-10.85 -346.68c-24.87,0 -45.02,8.8 -60.33,26.27 -15.3,17.48 -25.13,41.97 -29.33,73.22l172.96 0 0 -6.76c-1.92,-30.49 -10.08,-53.57 -24.24,-69.26 -14.16,-15.69 -33.93,-23.47 -59.06,-23.47z"/>
   <polygon id="_21" class="fil0" points="13561.21,2735.11 13515.29,2735.11 13515.29,2895.83 13424.47,2895.83 13424.47,2491.75 13515.29,2491.75 13515.29,2652.46 13555.21,2652.46 13666.95,2491.75 13779.07,2491.75 13633.02,2684.48 13791.44,2895.83 13673.33,2895.83 "/>
   <path id="_22" class="fil0" d="M14013.51 2903.48c-57.53,0 -104.21,-18.11 -139.93,-54.33 -35.71,-36.36 -53.7,-84.57 -53.7,-144.9l0 -11.23c0,-40.3 7.78,-76.4 23.47,-108.16 15.56,-31.76 37.37,-56.51 65.56,-74.24 28.07,-17.73 59.44,-26.53 94.14,-26.53 55.1,0 97.57,17.61 127.55,52.81 30.1,35.2 45.02,84.95 45.02,149.24l0 36.73 -264.16 0c2.81,33.29 13.91,59.57 33.42,78.83 19.65,19.38 44.26,29.08 73.86,29.08 41.58,0 75.51,-16.71 101.65,-50.26l48.98 46.69c-16.19,24.23 -37.88,42.98 -64.92,56.25 -27.04,13.39 -57.27,20.02 -90.94,20.02zm-10.85 -346.68c-24.87,0 -45.02,8.8 -60.33,26.27 -15.3,17.48 -25.13,41.97 -29.33,73.22l172.96 0 0 -6.76c-1.92,-30.49 -10.08,-53.57 -24.24,-69.26 -14.16,-15.69 -33.93,-23.47 -59.06,-23.47z"/>
   <polygon id="_23" class="fil0" points="14340.3,2491.75 14340.3,2823.13 14466.7,2823.13 14466.7,2491.75 14557.52,2491.75 14557.52,2823.13 14684.18,2823.13 14684.18,2491.75 14774.61,2491.75 14774.61,2895.83 14249.61,2895.83 14249.61,2491.75 "/>
   <path id="_24" class="fil0" d="M15063.38 2513.94c50.9,0 91.59,16.96 122.2,51.02 30.74,33.93 46.04,80.1 46.04,138.39l0 4.47c0,58.16 -16.71,105.36 -49.87,141.45 -33.29,36.1 -78.44,54.21 -135.46,54.21 -55.61,0 -100.51,-18.36 -134.57,-55.23 -34.18,-36.86 -51.14,-87.11 -51.14,-150.89l0 -26.15c0,-87.12 15.43,-156.12 46.3,-206.89 30.87,-50.76 76.91,-82.52 138.26,-95.28 34.31,-6.89 56.64,-14.28 66.71,-22.19 10.08,-7.78 15.05,-18.5 15.05,-31.89l73.35 0c0,25.13 -4.21,45.54 -12.38,61.22 -8.16,15.69 -20.79,28.45 -37.75,38.27 -16.97,9.82 -46.05,19.13 -87.5,27.81 -37.76,8.03 -66.58,22.19 -86.48,42.6 -19.77,20.41 -33.04,48.6 -39.8,84.69 36.1,-37.11 78.57,-55.61 127.04,-55.61zm-17.85 72.7c-29.47,0 -52.56,9.95 -69.14,29.72 -16.71,19.77 -25.12,50.13 -25.12,91.2 0,38.91 8.29,69.14 24.74,90.69 16.45,21.69 39.8,32.53 70.15,32.53 30.23,0 53.58,-10.84 70.16,-32.65 16.58,-21.82 24.87,-54.6 24.87,-98.35 0,-34.82 -8.29,-62.5 -24.87,-82.78 -16.58,-20.28 -40.18,-30.36 -70.79,-30.36z"/>
   <path id="_25" class="fil0" d="M15447.44 2556.8c-21.17,0 -39.16,6.5 -53.82,19.51 -14.67,13.14 -22.07,29.47 -22.07,49.11l-85.59 0c0,-24.87 7.27,-48.21 21.69,-69.9 14.54,-21.81 34.31,-39.16 59.44,-52.04 25.12,-12.88 51.91,-19.39 80.35,-19.39 54.85,0 98.86,18.75 132.15,56.38 33.16,37.63 49.87,87.88 49.87,150.64l0 9.44c0,38.65 -7.53,73.6 -22.58,104.97 -15.18,31.38 -36.35,55.62 -63.77,72.58 -27.43,16.96 -59.19,25.38 -95.28,25.38 -30.62,0 -58.42,-6.37 -83.3,-19.26 -25,-12.88 -44.26,-30.99 -57.9,-54.21 -13.78,-23.21 -20.67,-49.49 -20.67,-78.7l85.59 0c0,23.22 7.4,42.35 22.07,57.15 14.66,14.92 32.78,22.32 54.21,22.32 25.38,0 45.91,-9.57 61.6,-28.7 15.69,-19.13 25.13,-45.79 28.06,-79.98l-127.04 0 0 -62.75 126.66 0c-3.44,-32.78 -13.01,-58.16 -28.7,-75.89 -15.81,-17.73 -36.09,-26.66 -60.97,-26.66z"/>
   <polygon id="_26" class="fil0" points="15851.14,2735.11 15805.22,2735.11 15805.22,2895.83 15714.4,2895.83 15714.4,2491.75 15805.22,2491.75 15805.22,2652.46 15845.14,2652.46 15956.88,2491.75 16069,2491.75 15922.95,2684.48 16081.37,2895.83 15963.26,2895.83 "/>
   <path id="_27" class="fil0" d="M16186.22 2800.17c16.97,0 29.98,4.72 39.16,14.28 9.31,9.57 13.9,21.56 13.9,35.97 0,14.16 -4.59,25.89 -13.9,35.21 -9.18,9.31 -22.19,14.03 -39.16,14.03 -16.2,0 -29.08,-4.6 -38.52,-13.78 -9.44,-9.18 -14.16,-21.05 -14.16,-35.46 0,-14.41 4.59,-26.4 13.78,-35.97 9.18,-9.56 22.19,-14.28 38.9,-14.28zm0 -317.61c16.97,0 29.98,4.72 39.16,14.29 9.31,9.56 13.9,21.55 13.9,35.97 0,14.16 -4.59,25.89 -13.9,35.2 -9.18,9.31 -22.19,14.03 -39.16,14.03 -16.2,0 -29.08,-4.59 -38.52,-13.77 -9.44,-9.19 -14.16,-21.05 -14.16,-35.46 0,-14.42 4.59,-26.41 13.78,-35.97 9.18,-9.57 22.19,-14.29 38.9,-14.29z"/>
   <path class="fil1" d="M3160.34 1233.48l13673.51 0c-0.23,7.86 -0.39,15.76 -0.39,23.68 0,431.07 349.45,780.52 780.52,780.52 431.07,0 780.52,-349.45 780.52,-780.52 0,-7.92 -0.16,-15.82 -0.39,-23.68l8439.68 0c161.85,0 294.24,132.42 294.24,294.27l0 6952.09c0,161.85 -132.39,294.27 -294.24,294.27l-8439.42 0c0.05,-3.39 0.13,-6.78 0.13,-10.19 0,-431.07 -349.45,-780.52 -780.52,-780.52 -431.07,0 -780.52,349.45 -780.52,780.52 0,3.41 0.08,6.8 0.13,10.19l-13673.25 0c-161.85,0 -294.24,-132.42 -294.24,-294.27l0 -6952.09c0,-161.85 132.39,-294.27 294.24,-294.27z"/>
   <path class="fil2" d="M3160.34 1233.48l13673.51 0c-0.23,7.86 -0.39,15.76 -0.39,23.68 0,431.07 349.45,780.52 780.52,780.52 431.07,0 780.52,-349.45 780.52,-780.52 0,-7.92 -0.16,-15.82 -0.39,-23.68l8439.68 0c161.85,0 294.24,132.42 294.24,294.27l0 6952.09c0,161.85 -132.39,294.27 -294.24,294.27l-8439.42 0c0.05,-3.39 0.13,-6.78 0.13,-10.19 0,-431.07 -349.45,-780.52 -780.52,-780.52 -431.07,0 -780.52,349.45 -780.52,780.52 0,3.41 0.08,6.8 0.13,10.19l-13673.25 0c-161.85,0 -294.24,-132.42 -294.24,-294.27l0 -6952.09c0,-161.85 132.39,-294.27 294.24,-294.27z"/>
   <g style="clip-path:url(#id0)">
    <g>
     <g>
      <g>
       <g>
        <circle class="fil3 str0" cx="3728.63" cy="1987.64" r="567.89"/>
        <path class="fil4" d="M3756.69 2262.79l0 85.48 -57.62 0 0 -83.19c-53.44,-0.27 -103.11,-12.38 -149.01,-36.21l0 -109.3c15.21,12.38 37.96,23.82 68.11,34.32 30.29,10.5 57.21,16.56 80.9,18.18l0 -143.63c-61.51,-22.89 -103.51,-47.66 -125.99,-74.31 -22.48,-26.65 -33.79,-59.23 -33.79,-97.59 0,-41.33 14.67,-76.46 43.88,-105.54 29.08,-29.08 67.71,-45.9 115.9,-50.61l0 -73.37 57.62 0 0 71.75c55.46,2.69 96.78,11.58 124.11,26.79l0 106.48c-36.75,-22.35 -78.21,-35.94 -124.11,-40.93l0 149.42c57.48,20.73 98.8,44.56 123.84,71.21 24.9,26.66 37.42,58.96 37.42,96.79 0,43.61 -14,78.88 -41.86,105.53 -27.87,26.66 -67.71,42.95 -119.4,48.73zm-57.62 -345.14l0 -125.05c-36.61,6.59 -54.78,25.71 -54.78,57.21 0,27.05 18.17,49.67 54.78,67.84zm57.62 133.27l0 119.53c37.55,-5.79 56.4,-24.63 56.4,-56.4 0,-25.71 -18.85,-46.85 -56.4,-63.13z"/>
       </g>
       <g>
        <path class="fil4" d="M6526.27 1991.62c-40.25,0 -72.69,-12.79 -97.19,-38.23 -24.63,-25.58 -36.88,-59.9 -36.88,-102.98 0,-47.11 13.05,-84.4 39.17,-112 26.25,-27.59 61.11,-41.46 104.73,-41.46 41.86,0 74.44,12.52 97.99,37.56 23.56,24.9 35.27,60.04 35.27,105.27 0,46.44 -12.92,83.46 -39.03,110.78 -25.98,27.33 -60.71,41.06 -104.06,41.06zm7.4 -225.21c-38.36,0 -57.47,26.66 -57.47,80.1 0,50.48 18.17,75.65 54.78,75.65 37.29,0 56,-26.25 56,-78.88 0,-51.29 -17.77,-76.87 -53.31,-76.87zm405.45 -61.51l-368.29 565.5 -96.25 0 367.49 -565.5 97.05 0zm-60.71 573.44c-40.24,0 -72.69,-12.79 -97.18,-38.36 -24.64,-25.44 -36.89,-59.77 -36.89,-102.85 0,-47.11 13.06,-84.4 39.17,-111.99 26.25,-27.6 61.12,-41.46 104.73,-41.46 42.13,0 74.85,12.38 98.27,37.02 23.42,24.76 35.13,59.76 35.13,104.99 0,46.44 -13.06,83.6 -39.17,111.19 -25.98,27.6 -60.71,41.46 -104.06,41.46zm6.33 -225.2c-38.09,0 -57.21,26.65 -57.21,79.96 0,50.48 18.58,75.78 55.6,75.78 37.28,0 55.99,-26.25 55.99,-78.88 0,-24.5 -4.98,-43.34 -14.94,-56.81 -9.96,-13.32 -23.15,-20.05 -39.44,-20.05z"/>
        <circle class="fil3 str0" cx="6706.92" cy="1987.64" r="567.89"/>
       </g>
       <g>
        <circle class="fil3 str0" cx="9685.2" cy="1987.64" r="567.89"/>
        <path class="fil4" d="M9713.26 2262.79l0 85.48 -57.62 0 0 -83.19c-53.44,-0.27 -103.11,-12.38 -149.01,-36.21l0 -109.3c15.21,12.38 37.96,23.82 68.11,34.32 30.29,10.5 57.21,16.56 80.9,18.18l0 -143.63c-61.51,-22.89 -103.51,-47.66 -125.99,-74.31 -22.48,-26.65 -33.79,-59.23 -33.79,-97.59 0,-41.33 14.67,-76.46 43.88,-105.54 29.08,-29.08 67.71,-45.9 115.9,-50.61l0 -73.37 57.62 0 0 71.75c55.46,2.69 96.78,11.58 124.11,26.79l0 106.48c-36.75,-22.35 -78.21,-35.94 -124.11,-40.93l0 149.42c57.48,20.73 98.8,44.56 123.84,71.21 24.9,26.66 37.42,58.96 37.42,96.79 0,43.61 -14,78.88 -41.86,105.53 -27.87,26.66 -67.71,42.95 -119.4,48.73zm-57.62 -345.14l0 -125.05c-36.61,6.59 -54.78,25.71 -54.78,57.21 0,27.05 18.17,49.67 54.78,67.84zm57.62 133.27l0 119.53c37.55,-5.79 56.4,-24.63 56.4,-56.4 0,-25.71 -18.85,-46.85 -56.4,-63.13z"/>
       </g>
       <g>
        <path class="fil4" d="M12482.84 1991.62c-40.25,0 -72.69,-12.79 -97.19,-38.23 -24.63,-25.58 -36.88,-59.9 -36.88,-102.98 0,-47.11 13.05,-84.4 39.17,-112 26.25,-27.59 61.11,-41.46 104.73,-41.46 41.86,0 74.44,12.52 97.99,37.56 23.56,24.9 35.27,60.04 35.27,105.27 0,46.44 -12.92,83.46 -39.03,110.78 -25.98,27.33 -60.71,41.06 -104.06,41.06zm7.4 -225.21c-38.36,0 -57.47,26.66 -57.47,80.1 0,50.48 18.17,75.65 54.78,75.65 37.29,0 56,-26.25 56,-78.88 0,-51.29 -17.77,-76.87 -53.31,-76.87zm405.45 -61.51l-368.29 565.5 -96.25 0 367.49 -565.5 97.05 0zm-60.71 573.44c-40.24,0 -72.69,-12.79 -97.18,-38.36 -24.64,-25.44 -36.89,-59.77 -36.89,-102.85 0,-47.11 13.06,-84.4 39.17,-111.99 26.25,-27.6 61.12,-41.46 104.73,-41.46 42.13,0 74.85,12.38 98.27,37.02 23.42,24.76 35.13,59.76 35.13,104.99 0,46.44 -13.06,83.6 -39.17,111.19 -25.98,27.6 -60.71,41.46 -104.06,41.46zm6.33 -225.2c-38.09,0 -57.21,26.65 -57.21,79.96 0,50.48 18.58,75.78 55.6,75.78 37.28,0 55.99,-26.25 55.99,-78.88 0,-24.5 -4.98,-43.34 -14.94,-56.81 -9.96,-13.32 -23.15,-20.05 -39.44,-20.05z"/>
        <circle class="fil3 str0" cx="12663.49" cy="1987.64" r="567.89"/>
       </g>
       <g>
        <circle class="fil3 str0" cx="15641.79" cy="1987.64" r="567.89"/>
        <path class="fil4" d="M15669.86 2262.79l0 85.48 -57.62 0 0 -83.19c-53.44,-0.27 -103.11,-12.38 -149.01,-36.21l0 -109.3c15.21,12.38 37.96,23.82 68.11,34.32 30.29,10.5 57.21,16.56 80.9,18.18l0 -143.63c-61.51,-22.89 -103.51,-47.66 -125.99,-74.31 -22.48,-26.65 -33.79,-59.23 -33.79,-97.59 0,-41.33 14.67,-76.46 43.88,-105.54 29.08,-29.08 67.71,-45.9 115.9,-50.61l0 -73.37 57.62 0 0 71.75c55.46,2.69 96.78,11.58 124.11,26.79l0 106.48c-36.75,-22.35 -78.21,-35.94 -124.11,-40.93l0 149.42c57.48,20.73 98.8,44.56 123.84,71.21 24.9,26.66 37.42,58.96 37.42,96.79 0,43.61 -14,78.88 -41.86,105.53 -27.87,26.66 -67.71,42.95 -119.4,48.73zm-57.62 -345.14l0 -125.05c-36.61,6.59 -54.78,25.71 -54.78,57.21 0,27.05 18.17,49.67 54.78,67.84zm57.62 133.27l0 119.53c37.55,-5.79 56.4,-24.63 56.4,-56.4 0,-25.71 -18.85,-46.85 -56.4,-63.13z"/>
       </g>
      </g>
      <g>
       <g>
        <path class="fil4" d="M5070.95 3499.69c-40.25,0 -72.69,-12.79 -97.19,-38.23 -24.63,-25.58 -36.88,-59.9 -36.88,-102.98 0,-47.11 13.05,-84.4 39.17,-112 26.25,-27.59 61.11,-41.46 104.73,-41.46 41.86,0 74.44,12.52 97.99,37.56 23.56,24.9 35.27,60.04 35.27,105.27 0,46.44 -12.92,83.46 -39.03,110.78 -25.98,27.33 -60.71,41.06 -104.06,41.06zm7.4 -225.21c-38.36,0 -57.47,26.66 -57.47,80.1 0,50.48 18.17,75.65 54.78,75.65 37.29,0 56,-26.25 56,-78.88 0,-51.29 -17.77,-76.87 -53.31,-76.87zm405.45 -61.51l-368.29 565.5 -96.25 0 367.49 -565.5 97.05 0zm-60.71 573.44c-40.24,0 -72.69,-12.79 -97.18,-38.36 -24.64,-25.44 -36.89,-59.77 -36.89,-102.85 0,-47.11 13.06,-84.4 39.17,-111.99 26.25,-27.6 61.12,-41.46 104.73,-41.46 42.13,0 74.85,12.38 98.27,37.02 23.42,24.76 35.13,59.76 35.13,104.99 0,46.44 -13.06,83.6 -39.17,111.19 -25.98,27.6 -60.71,41.46 -104.06,41.46zm6.33 -225.2c-38.09,0 -57.21,26.65 -57.21,79.96 0,50.48 18.58,75.78 55.6,75.78 37.28,0 55.99,-26.25 55.99,-78.88 0,-24.5 -4.98,-43.34 -14.94,-56.81 -9.96,-13.32 -23.15,-20.05 -39.44,-20.05z"/>
        <circle class="fil3 str0" cx="5251.6" cy="3495.71" r="567.89"/>
       </g>
       <g>
        <circle class="fil3 str0" cx="8233.04" cy="3495.71" r="567.89"/>
        <path class="fil4" d="M8261.1 3770.86l0 85.48 -57.62 0 0 -83.19c-53.44,-0.27 -103.11,-12.38 -149.01,-36.21l0 -109.3c15.21,12.38 37.96,23.82 68.11,34.32 30.29,10.5 57.21,16.56 80.9,18.18l0 -143.63c-61.51,-22.89 -103.51,-47.66 -125.99,-74.31 -22.48,-26.65 -33.79,-59.23 -33.79,-97.59 0,-41.33 14.67,-76.46 43.88,-105.54 29.08,-29.08 67.71,-45.9 115.9,-50.61l0 -73.37 57.62 0 0 71.75c55.46,2.69 96.78,11.58 124.11,26.79l0 106.48c-36.75,-22.35 -78.21,-35.94 -124.11,-40.93l0 149.42c57.48,20.73 98.8,44.56 123.84,71.21 24.9,26.66 37.42,58.96 37.42,96.79 0,43.61 -14,78.88 -41.86,105.53 -27.87,26.66 -67.71,42.95 -119.4,48.73zm-57.62 -345.14l0 -125.05c-36.61,6.59 -54.78,25.71 -54.78,57.21 0,27.05 18.17,49.67 54.78,67.84zm57.62 133.27l0 119.53c37.55,-5.79 56.4,-24.63 56.4,-56.4 0,-25.71 -18.85,-46.85 -56.4,-63.13z"/>
       </g>
       <g>
        <path class="fil4" d="M11033.84 3499.69c-40.25,0 -72.69,-12.79 -97.19,-38.23 -24.63,-25.58 -36.88,-59.9 -36.88,-102.98 0,-47.11 13.05,-84.4 39.17,-112 26.25,-27.59 61.11,-41.46 104.73,-41.46 41.86,0 74.44,12.52 97.99,37.56 23.56,24.9 35.27,60.04 35.27,105.27 0,46.44 -12.92,83.46 -39.03,110.78 -25.98,27.33 -60.71,41.06 -104.06,41.06zm7.4 -225.21c-38.36,0 -57.47,26.66 -57.47,80.1 0,50.48 18.17,75.65 54.78,75.65 37.29,0 56,-26.25 56,-78.88 0,-51.29 -17.77,-76.87 -53.31,-76.87zm405.45 -61.51l-368.29 565.5 -96.25 0 367.49 -565.5 97.05 0zm-60.71 573.44c-40.24,0 -72.69,-12.79 -97.18,-38.36 -24.64,-25.44 -36.89,-59.77 -36.89,-102.85 0,-47.11 13.06,-84.4 39.17,-111.99 26.25,-27.6 61.12,-41.46 104.73,-41.46 42.13,0 74.85,12.38 98.27,37.02 23.42,24.76 35.13,59.76 35.13,104.99 0,46.44 -13.06,83.6 -39.17,111.19 -25.98,27.6 -60.71,41.46 -104.06,41.46zm6.33 -225.2c-38.09,0 -57.21,26.65 -57.21,79.96 0,50.48 18.58,75.78 55.6,75.78 37.28,0 55.99,-26.25 55.99,-78.88 0,-24.5 -4.98,-43.34 -14.94,-56.81 -9.96,-13.32 -23.15,-20.05 -39.44,-20.05z"/>
        <circle class="fil3 str0" cx="11214.49" cy="3495.71" r="567.89"/>
       </g>
       <g>
        <circle class="fil3 str0" cx="14195.93" cy="3495.71" r="567.89"/>
        <path class="fil4" d="M14223.99 3770.86l0 85.48 -57.62 0 0 -83.19c-53.44,-0.27 -103.11,-12.38 -149.01,-36.21l0 -109.3c15.21,12.38 37.96,23.82 68.11,34.32 30.29,10.5 57.21,16.56 80.9,18.18l0 -143.63c-61.51,-22.89 -103.51,-47.66 -125.99,-74.31 -22.48,-26.65 -33.79,-59.23 -33.79,-97.59 0,-41.33 14.67,-76.46 43.88,-105.54 29.08,-29.08 67.71,-45.9 115.9,-50.61l0 -73.37 57.62 0 0 71.75c55.46,2.69 96.78,11.58 124.11,26.79l0 106.48c-36.75,-22.35 -78.21,-35.94 -124.11,-40.93l0 149.42c57.48,20.73 98.8,44.56 123.84,71.21 24.9,26.66 37.42,58.96 37.42,96.79 0,43.61 -14,78.88 -41.86,105.53 -27.87,26.66 -67.71,42.95 -119.4,48.73zm-57.62 -345.14l0 -125.05c-36.61,6.59 -54.78,25.71 -54.78,57.21 0,27.05 18.17,49.67 54.78,67.84zm57.62 133.27l0 119.53c37.55,-5.79 56.4,-24.63 56.4,-56.4 0,-25.71 -18.85,-46.85 -56.4,-63.13z"/>
       </g>
       <g>
        <path class="fil4" d="M16996.74 3499.69c-40.25,0 -72.69,-12.79 -97.19,-38.23 -24.63,-25.58 -36.88,-59.9 -36.88,-102.98 0,-47.11 13.05,-84.4 39.17,-112 26.25,-27.59 61.11,-41.46 104.73,-41.46 41.86,0 74.44,12.52 97.99,37.56 23.56,24.9 35.27,60.04 35.27,105.27 0,46.44 -12.92,83.46 -39.03,110.78 -25.98,27.33 -60.71,41.06 -104.06,41.06zm7.4 -225.21c-38.36,0 -57.47,26.66 -57.47,80.1 0,50.48 18.17,75.65 54.78,75.65 37.29,0 56,-26.25 56,-78.88 0,-51.29 -17.77,-76.87 -53.31,-76.87zm405.45 -61.51l-368.29 565.5 -96.25 0 367.49 -565.5 97.05 0zm-60.71 573.44c-40.24,0 -72.69,-12.79 -97.18,-38.36 -24.64,-25.44 -36.89,-59.77 -36.89,-102.85 0,-47.11 13.06,-84.4 39.17,-111.99 26.25,-27.6 61.12,-41.46 104.73,-41.46 42.13,0 74.85,12.38 98.27,37.02 23.42,24.76 35.13,59.76 35.13,104.99 0,46.44 -13.06,83.6 -39.17,111.19 -25.98,27.6 -60.71,41.46 -104.06,41.46zm6.33 -225.2c-38.09,0 -57.21,26.65 -57.21,79.96 0,50.48 18.58,75.78 55.6,75.78 37.28,0 55.99,-26.25 55.99,-78.88 0,-24.5 -4.98,-43.34 -14.94,-56.81 -9.96,-13.32 -23.15,-20.05 -39.44,-20.05z"/>
        <circle class="fil3 str0" cx="17177.39" cy="3495.71" r="567.89"/>
       </g>
      </g>
      <g>
       <g>
        <circle class="fil3 str0" cx="3728.63" cy="5003.78" r="567.89"/>
        <path class="fil4" d="M3756.69 5278.93l0 85.48 -57.62 0 0 -83.19c-53.44,-0.27 -103.11,-12.38 -149.01,-36.21l0 -109.3c15.21,12.38 37.96,23.82 68.11,34.32 30.29,10.5 57.21,16.56 80.9,18.18l0 -143.63c-61.51,-22.89 -103.51,-47.66 -125.99,-74.31 -22.48,-26.65 -33.79,-59.23 -33.79,-97.59 0,-41.33 14.67,-76.46 43.88,-105.54 29.08,-29.08 67.71,-45.9 115.9,-50.61l0 -73.37 57.62 0 0 71.75c55.46,2.69 96.78,11.58 124.11,26.79l0 106.48c-36.75,-22.35 -78.21,-35.94 -124.11,-40.93l0 149.42c57.48,20.73 98.8,44.56 123.84,71.21 24.9,26.66 37.42,58.96 37.42,96.79 0,43.61 -14,78.88 -41.86,105.53 -27.87,26.66 -67.71,42.95 -119.4,48.73zm-57.62 -345.14l0 -125.05c-36.61,6.59 -54.78,25.71 -54.78,57.21 0,27.05 18.17,49.67 54.78,67.84zm57.62 133.27l0 119.53c37.55,-5.79 56.4,-24.63 56.4,-56.4 0,-25.71 -18.85,-46.85 -56.4,-63.13z"/>
       </g>
       <g>
        <path class="fil4" d="M6526.27 5007.76c-40.25,0 -72.69,-12.79 -97.19,-38.23 -24.63,-25.58 -36.88,-59.9 -36.88,-102.98 0,-47.11 13.05,-84.4 39.17,-112 26.25,-27.59 61.11,-41.46 104.73,-41.46 41.86,0 74.44,12.52 97.99,37.56 23.56,24.9 35.27,60.04 35.27,105.27 0,46.44 -12.92,83.46 -39.03,110.78 -25.98,27.33 -60.71,41.06 -104.06,41.06zm7.4 -225.21c-38.36,0 -57.47,26.66 -57.47,80.1 0,50.48 18.17,75.65 54.78,75.65 37.29,0 56,-26.25 56,-78.88 0,-51.29 -17.77,-76.87 -53.31,-76.87zm405.45 -61.51l-368.29 565.5 -96.25 0 367.49 -565.5 97.05 0zm-60.71 573.44c-40.24,0 -72.69,-12.79 -97.18,-38.36 -24.64,-25.44 -36.89,-59.77 -36.89,-102.85 0,-47.11 13.06,-84.4 39.17,-111.99 26.25,-27.6 61.12,-41.46 104.73,-41.46 42.13,0 74.85,12.38 98.27,37.02 23.42,24.76 35.13,59.76 35.13,104.99 0,46.44 -13.06,83.6 -39.17,111.19 -25.98,27.6 -60.71,41.46 -104.06,41.46zm6.33 -225.2c-38.09,0 -57.21,26.65 -57.21,79.96 0,50.48 18.58,75.78 55.6,75.78 37.28,0 55.99,-26.25 55.99,-78.88 0,-24.5 -4.98,-43.34 -14.94,-56.81 -9.96,-13.32 -23.15,-20.05 -39.44,-20.05z"/>
        <circle class="fil3 str0" cx="6706.92" cy="5003.78" r="567.89"/>
       </g>
       <g>
        <circle class="fil3 str0" cx="9685.2" cy="5003.78" r="567.89"/>
        <path class="fil4" d="M9713.26 5278.93l0 85.48 -57.62 0 0 -83.19c-53.44,-0.27 -103.11,-12.38 -149.01,-36.21l0 -109.3c15.21,12.38 37.96,23.82 68.11,34.32 30.29,10.5 57.21,16.56 80.9,18.18l0 -143.63c-61.51,-22.89 -103.51,-47.66 -125.99,-74.31 -22.48,-26.65 -33.79,-59.23 -33.79,-97.59 0,-41.33 14.67,-76.46 43.88,-105.54 29.08,-29.08 67.71,-45.9 115.9,-50.61l0 -73.37 57.62 0 0 71.75c55.46,2.69 96.78,11.58 124.11,26.79l0 106.48c-36.75,-22.35 -78.21,-35.94 -124.11,-40.93l0 149.42c57.48,20.73 98.8,44.56 123.84,71.21 24.9,26.66 37.42,58.96 37.42,96.79 0,43.61 -14,78.88 -41.86,105.53 -27.87,26.66 -67.71,42.95 -119.4,48.73zm-57.62 -345.14l0 -125.05c-36.61,6.59 -54.78,25.71 -54.78,57.21 0,27.05 18.17,49.67 54.78,67.84zm57.62 133.27l0 119.53c37.55,-5.79 56.4,-24.63 56.4,-56.4 0,-25.71 -18.85,-46.85 -56.4,-63.13z"/>
       </g>
       <g>
        <path class="fil4" d="M12482.84 5007.76c-40.25,0 -72.69,-12.79 -97.19,-38.23 -24.63,-25.58 -36.88,-59.9 -36.88,-102.98 0,-47.11 13.05,-84.4 39.17,-112 26.25,-27.59 61.11,-41.46 104.73,-41.46 41.86,0 74.44,12.52 97.99,37.56 23.56,24.9 35.27,60.04 35.27,105.27 0,46.44 -12.92,83.46 -39.03,110.78 -25.98,27.33 -60.71,41.06 -104.06,41.06zm7.4 -225.21c-38.36,0 -57.47,26.66 -57.47,80.1 0,50.48 18.17,75.65 54.78,75.65 37.29,0 56,-26.25 56,-78.88 0,-51.29 -17.77,-76.87 -53.31,-76.87zm405.45 -61.51l-368.29 565.5 -96.25 0 367.49 -565.5 97.05 0zm-60.71 573.44c-40.24,0 -72.69,-12.79 -97.18,-38.36 -24.64,-25.44 -36.89,-59.77 -36.89,-102.85 0,-47.11 13.06,-84.4 39.17,-111.99 26.25,-27.6 61.12,-41.46 104.73,-41.46 42.13,0 74.85,12.38 98.27,37.02 23.42,24.76 35.13,59.76 35.13,104.99 0,46.44 -13.06,83.6 -39.17,111.19 -25.98,27.6 -60.71,41.46 -104.06,41.46zm6.33 -225.2c-38.09,0 -57.21,26.65 -57.21,79.96 0,50.48 18.58,75.78 55.6,75.78 37.28,0 55.99,-26.25 55.99,-78.88 0,-24.5 -4.98,-43.34 -14.94,-56.81 -9.96,-13.32 -23.15,-20.05 -39.44,-20.05z"/>
        <circle class="fil3 str0" cx="12663.49" cy="5003.78" r="567.89"/>
       </g>
       <g>
        <circle class="fil3 str0" cx="15641.79" cy="5003.78" r="567.89"/>
        <path class="fil4" d="M15669.86 5278.93l0 85.48 -57.62 0 0 -83.19c-53.44,-0.27 -103.11,-12.38 -149.01,-36.21l0 -109.3c15.21,12.38 37.96,23.82 68.11,34.32 30.29,10.5 57.21,16.56 80.9,18.18l0 -143.63c-61.51,-22.89 -103.51,-47.66 -125.99,-74.31 -22.48,-26.65 -33.79,-59.23 -33.79,-97.59 0,-41.33 14.67,-76.46 43.88,-105.54 29.08,-29.08 67.71,-45.9 115.9,-50.61l0 -73.37 57.62 0 0 71.75c55.46,2.69 96.78,11.58 124.11,26.79l0 106.48c-36.75,-22.35 -78.21,-35.94 -124.11,-40.93l0 149.42c57.48,20.73 98.8,44.56 123.84,71.21 24.9,26.66 37.42,58.96 37.42,96.79 0,43.61 -14,78.88 -41.86,105.53 -27.87,26.66 -67.71,42.95 -119.4,48.73zm-57.62 -345.14l0 -125.05c-36.61,6.59 -54.78,25.71 -54.78,57.21 0,27.05 18.17,49.67 54.78,67.84zm57.62 133.27l0 119.53c37.55,-5.79 56.4,-24.63 56.4,-56.4 0,-25.71 -18.85,-46.85 -56.4,-63.13z"/>
       </g>
      </g>
      <g>
       <g>
        <path class="fil4" d="M5070.95 6515.83c-40.25,0 -72.69,-12.79 -97.19,-38.23 -24.63,-25.58 -36.88,-59.9 -36.88,-102.98 0,-47.11 13.05,-84.4 39.17,-112 26.25,-27.59 61.11,-41.46 104.73,-41.46 41.86,0 74.44,12.52 97.99,37.56 23.56,24.9 35.27,60.04 35.27,105.27 0,46.44 -12.92,83.46 -39.03,110.78 -25.98,27.33 -60.71,41.06 -104.06,41.06zm7.4 -225.21c-38.36,0 -57.47,26.66 -57.47,80.1 0,50.48 18.17,75.65 54.78,75.65 37.29,0 56,-26.25 56,-78.88 0,-51.29 -17.77,-76.87 -53.31,-76.87zm405.45 -61.51l-368.29 565.5 -96.25 0 367.49 -565.5 97.05 0zm-60.71 573.44c-40.24,0 -72.69,-12.79 -97.18,-38.36 -24.64,-25.44 -36.89,-59.77 -36.89,-102.85 0,-47.11 13.06,-84.4 39.17,-111.99 26.25,-27.6 61.12,-41.46 104.73,-41.46 42.13,0 74.85,12.38 98.27,37.02 23.42,24.76 35.13,59.76 35.13,104.99 0,46.44 -13.06,83.6 -39.17,111.19 -25.98,27.6 -60.71,41.46 -104.06,41.46zm6.33 -225.2c-38.09,0 -57.21,26.65 -57.21,79.96 0,50.48 18.58,75.78 55.6,75.78 37.28,0 55.99,-26.25 55.99,-78.88 0,-24.5 -4.98,-43.34 -14.94,-56.81 -9.96,-13.32 -23.15,-20.05 -39.44,-20.05z"/>
        <circle class="fil3 str0" cx="5251.6" cy="6511.85" r="567.89"/>
       </g>
       <g>
        <circle class="fil3 str0" cx="8233.04" cy="6511.85" r="567.89"/>
        <path class="fil4" d="M8261.1 6787l0 85.48 -57.62 0 0 -83.19c-53.44,-0.27 -103.11,-12.38 -149.01,-36.21l0 -109.3c15.21,12.38 37.96,23.82 68.11,34.32 30.29,10.5 57.21,16.56 80.9,18.18l0 -143.63c-61.51,-22.89 -103.51,-47.66 -125.99,-74.31 -22.48,-26.65 -33.79,-59.23 -33.79,-97.59 0,-41.33 14.67,-76.46 43.88,-105.54 29.08,-29.08 67.71,-45.9 115.9,-50.61l0 -73.37 57.62 0 0 71.75c55.46,2.69 96.78,11.58 124.11,26.79l0 106.48c-36.75,-22.35 -78.21,-35.94 -124.11,-40.93l0 149.42c57.48,20.73 98.8,44.56 123.84,71.21 24.9,26.66 37.42,58.96 37.42,96.79 0,43.61 -14,78.88 -41.86,105.53 -27.87,26.66 -67.71,42.95 -119.4,48.73zm-57.62 -345.14l0 -125.05c-36.61,6.59 -54.78,25.71 -54.78,57.21 0,27.05 18.17,49.67 54.78,67.84zm57.62 133.27l0 119.53c37.55,-5.79 56.4,-24.63 56.4,-56.4 0,-25.71 -18.85,-46.85 -56.4,-63.13z"/>
       </g>
       <g>
        <path class="fil4" d="M11033.84 6515.83c-40.25,0 -72.69,-12.79 -97.19,-38.23 -24.63,-25.58 -36.88,-59.9 -36.88,-102.98 0,-47.11 13.05,-84.4 39.17,-112 26.25,-27.59 61.11,-41.46 104.73,-41.46 41.86,0 74.44,12.52 97.99,37.56 23.56,24.9 35.27,60.04 35.27,105.27 0,46.44 -12.92,83.46 -39.03,110.78 -25.98,27.33 -60.71,41.06 -104.06,41.06zm7.4 -225.21c-38.36,0 -57.47,26.66 -57.47,80.1 0,50.48 18.17,75.65 54.78,75.65 37.29,0 56,-26.25 56,-78.88 0,-51.29 -17.77,-76.87 -53.31,-76.87zm405.45 -61.51l-368.29 565.5 -96.25 0 367.49 -565.5 97.05 0zm-60.71 573.44c-40.24,0 -72.69,-12.79 -97.18,-38.36 -24.64,-25.44 -36.89,-59.77 -36.89,-102.85 0,-47.11 13.06,-84.4 39.17,-111.99 26.25,-27.6 61.12,-41.46 104.73,-41.46 42.13,0 74.85,12.38 98.27,37.02 23.42,24.76 35.13,59.76 35.13,104.99 0,46.44 -13.06,83.6 -39.17,111.19 -25.98,27.6 -60.71,41.46 -104.06,41.46zm6.33 -225.2c-38.09,0 -57.21,26.65 -57.21,79.96 0,50.48 18.58,75.78 55.6,75.78 37.28,0 55.99,-26.25 55.99,-78.88 0,-24.5 -4.98,-43.34 -14.94,-56.81 -9.96,-13.32 -23.15,-20.05 -39.44,-20.05z"/>
        <circle class="fil3 str0" cx="11214.49" cy="6511.85" r="567.89"/>
       </g>
       <g>
        <circle class="fil3 str0" cx="14195.93" cy="6511.85" r="567.89"/>
        <path class="fil4" d="M14223.99 6787l0 85.48 -57.62 0 0 -83.19c-53.44,-0.27 -103.11,-12.38 -149.01,-36.21l0 -109.3c15.21,12.38 37.96,23.82 68.11,34.32 30.29,10.5 57.21,16.56 80.9,18.18l0 -143.63c-61.51,-22.89 -103.51,-47.66 -125.99,-74.31 -22.48,-26.65 -33.79,-59.23 -33.79,-97.59 0,-41.33 14.67,-76.46 43.88,-105.54 29.08,-29.08 67.71,-45.9 115.9,-50.61l0 -73.37 57.62 0 0 71.75c55.46,2.69 96.78,11.58 124.11,26.79l0 106.48c-36.75,-22.35 -78.21,-35.94 -124.11,-40.93l0 149.42c57.48,20.73 98.8,44.56 123.84,71.21 24.9,26.66 37.42,58.96 37.42,96.79 0,43.61 -14,78.88 -41.86,105.53 -27.87,26.66 -67.71,42.95 -119.4,48.73zm-57.62 -345.14l0 -125.05c-36.61,6.59 -54.78,25.71 -54.78,57.21 0,27.05 18.17,49.67 54.78,67.84zm57.62 133.27l0 119.53c37.55,-5.79 56.4,-24.63 56.4,-56.4 0,-25.71 -18.85,-46.85 -56.4,-63.13z"/>
       </g>
       <g>
        <path class="fil4" d="M16996.74 6515.83c-40.25,0 -72.69,-12.79 -97.19,-38.23 -24.63,-25.58 -36.88,-59.9 -36.88,-102.98 0,-47.11 13.05,-84.4 39.17,-112 26.25,-27.59 61.11,-41.46 104.73,-41.46 41.86,0 74.44,12.52 97.99,37.56 23.56,24.9 35.27,60.04 35.27,105.27 0,46.44 -12.92,83.46 -39.03,110.78 -25.98,27.33 -60.71,41.06 -104.06,41.06zm7.4 -225.21c-38.36,0 -57.47,26.66 -57.47,80.1 0,50.48 18.17,75.65 54.78,75.65 37.29,0 56,-26.25 56,-78.88 0,-51.29 -17.77,-76.87 -53.31,-76.87zm405.45 -61.51l-368.29 565.5 -96.25 0 367.49 -565.5 97.05 0zm-60.71 573.44c-40.24,0 -72.69,-12.79 -97.18,-38.36 -24.64,-25.44 -36.89,-59.77 -36.89,-102.85 0,-47.11 13.06,-84.4 39.17,-111.99 26.25,-27.6 61.12,-41.46 104.73,-41.46 42.13,0 74.85,12.38 98.27,37.02 23.42,24.76 35.13,59.76 35.13,104.99 0,46.44 -13.06,83.6 -39.17,111.19 -25.98,27.6 -60.71,41.46 -104.06,41.46zm6.33 -225.2c-38.09,0 -57.21,26.65 -57.21,79.96 0,50.48 18.58,75.78 55.6,75.78 37.28,0 55.99,-26.25 55.99,-78.88 0,-24.5 -4.98,-43.34 -14.94,-56.81 -9.96,-13.32 -23.15,-20.05 -39.44,-20.05z"/>
        <circle class="fil3 str0" cx="17177.39" cy="6511.85" r="567.89"/>
       </g>
      </g>
      <g>
       <g>
        <circle class="fil3 str0" cx="3728.63" cy="8019.95" r="567.89"/>
        <path class="fil4" d="M3756.69 8295.09l0 85.48 -57.62 0 0 -83.19c-53.44,-0.27 -103.11,-12.38 -149.01,-36.21l0 -109.3c15.21,12.38 37.96,23.82 68.11,34.32 30.29,10.5 57.21,16.56 80.9,18.18l0 -143.63c-61.51,-22.89 -103.51,-47.66 -125.99,-74.31 -22.48,-26.65 -33.79,-59.23 -33.79,-97.59 0,-41.33 14.67,-76.46 43.88,-105.54 29.08,-29.08 67.71,-45.9 115.9,-50.61l0 -73.37 57.62 0 0 71.75c55.46,2.69 96.78,11.58 124.11,26.79l0 106.48c-36.75,-22.35 -78.21,-35.94 -124.11,-40.93l0 149.42c57.48,20.73 98.8,44.56 123.84,71.21 24.9,26.66 37.42,58.96 37.42,96.79 0,43.61 -14,78.88 -41.86,105.53 -27.87,26.66 -67.71,42.95 -119.4,48.73zm-57.62 -345.14l0 -125.05c-36.61,6.59 -54.78,25.71 -54.78,57.21 0,27.05 18.17,49.67 54.78,67.84zm57.62 133.27l0 119.53c37.55,-5.79 56.4,-24.63 56.4,-56.4 0,-25.71 -18.85,-46.85 -56.4,-63.13z"/>
       </g>
       <g>
        <path class="fil4" d="M6526.27 8023.93c-40.25,0 -72.69,-12.79 -97.19,-38.23 -24.63,-25.58 -36.88,-59.9 -36.88,-102.98 0,-47.11 13.05,-84.4 39.17,-112 26.25,-27.59 61.11,-41.46 104.73,-41.46 41.86,0 74.44,12.52 97.99,37.56 23.56,24.9 35.27,60.04 35.27,105.27 0,46.44 -12.92,83.46 -39.03,110.78 -25.98,27.33 -60.71,41.06 -104.06,41.06zm7.4 -225.21c-38.36,0 -57.47,26.66 -57.47,80.1 0,50.48 18.17,75.65 54.78,75.65 37.29,0 56,-26.25 56,-78.88 0,-51.29 -17.77,-76.87 -53.31,-76.87zm405.45 -61.51l-368.29 565.5 -96.25 0 367.49 -565.5 97.05 0zm-60.71 573.44c-40.24,0 -72.69,-12.79 -97.18,-38.36 -24.64,-25.44 -36.89,-59.77 -36.89,-102.85 0,-47.11 13.06,-84.4 39.17,-111.99 26.25,-27.6 61.12,-41.46 104.73,-41.46 42.13,0 74.85,12.38 98.27,37.02 23.42,24.76 35.13,59.76 35.13,104.99 0,46.44 -13.06,83.6 -39.17,111.19 -25.98,27.6 -60.71,41.46 -104.06,41.46zm6.33 -225.2c-38.09,0 -57.21,26.65 -57.21,79.96 0,50.48 18.58,75.78 55.6,75.78 37.28,0 55.99,-26.25 55.99,-78.88 0,-24.5 -4.98,-43.34 -14.94,-56.81 -9.96,-13.32 -23.15,-20.05 -39.44,-20.05z"/>
        <circle class="fil3 str0" cx="6706.92" cy="8019.95" r="567.89"/>
       </g>
       <g>
        <circle class="fil3 str0" cx="9685.2" cy="8019.95" r="567.89"/>
        <path class="fil4" d="M9713.26 8295.09l0 85.48 -57.62 0 0 -83.19c-53.44,-0.27 -103.11,-12.38 -149.01,-36.21l0 -109.3c15.21,12.38 37.96,23.82 68.11,34.32 30.29,10.5 57.21,16.56 80.9,18.18l0 -143.63c-61.51,-22.89 -103.51,-47.66 -125.99,-74.31 -22.48,-26.65 -33.79,-59.23 -33.79,-97.59 0,-41.33 14.67,-76.46 43.88,-105.54 29.08,-29.08 67.71,-45.9 115.9,-50.61l0 -73.37 57.62 0 0 71.75c55.46,2.69 96.78,11.58 124.11,26.79l0 106.48c-36.75,-22.35 -78.21,-35.94 -124.11,-40.93l0 149.42c57.48,20.73 98.8,44.56 123.84,71.21 24.9,26.66 37.42,58.96 37.42,96.79 0,43.61 -14,78.88 -41.86,105.53 -27.87,26.66 -67.71,42.95 -119.4,48.73zm-57.62 -345.14l0 -125.05c-36.61,6.59 -54.78,25.71 -54.78,57.21 0,27.05 18.17,49.67 54.78,67.84zm57.62 133.27l0 119.53c37.55,-5.79 56.4,-24.63 56.4,-56.4 0,-25.71 -18.85,-46.85 -56.4,-63.13z"/>
       </g>
       <g>
        <path class="fil4" d="M12482.84 8023.93c-40.25,0 -72.69,-12.79 -97.19,-38.23 -24.63,-25.58 -36.88,-59.9 -36.88,-102.98 0,-47.11 13.05,-84.4 39.17,-112 26.25,-27.59 61.11,-41.46 104.73,-41.46 41.86,0 74.44,12.52 97.99,37.56 23.56,24.9 35.27,60.04 35.27,105.27 0,46.44 -12.92,83.46 -39.03,110.78 -25.98,27.33 -60.71,41.06 -104.06,41.06zm7.4 -225.21c-38.36,0 -57.47,26.66 -57.47,80.1 0,50.48 18.17,75.65 54.78,75.65 37.29,0 56,-26.25 56,-78.88 0,-51.29 -17.77,-76.87 -53.31,-76.87zm405.45 -61.51l-368.29 565.5 -96.25 0 367.49 -565.5 97.05 0zm-60.71 573.44c-40.24,0 -72.69,-12.79 -97.18,-38.36 -24.64,-25.44 -36.89,-59.77 -36.89,-102.85 0,-47.11 13.06,-84.4 39.17,-111.99 26.25,-27.6 61.12,-41.46 104.73,-41.46 42.13,0 74.85,12.38 98.27,37.02 23.42,24.76 35.13,59.76 35.13,104.99 0,46.44 -13.06,83.6 -39.17,111.19 -25.98,27.6 -60.71,41.46 -104.06,41.46zm6.33 -225.2c-38.09,0 -57.21,26.65 -57.21,79.96 0,50.48 18.58,75.78 55.6,75.78 37.28,0 55.99,-26.25 55.99,-78.88 0,-24.5 -4.98,-43.34 -14.94,-56.81 -9.96,-13.32 -23.15,-20.05 -39.44,-20.05z"/>
        <circle class="fil3 str0" cx="12663.49" cy="8019.95" r="567.89"/>
       </g>
       <g>
        <circle class="fil3 str0" cx="15641.79" cy="8019.95" r="567.89"/>
        <path class="fil4" d="M15669.86 8295.09l0 85.48 -57.62 0 0 -83.19c-53.44,-0.27 -103.11,-12.38 -149.01,-36.21l0 -109.3c15.21,12.38 37.96,23.82 68.11,34.32 30.29,10.5 57.21,16.56 80.9,18.18l0 -143.63c-61.51,-22.89 -103.51,-47.66 -125.99,-74.31 -22.48,-26.65 -33.79,-59.23 -33.79,-97.59 0,-41.33 14.67,-76.46 43.88,-105.54 29.08,-29.08 67.71,-45.9 115.9,-50.61l0 -73.37 57.62 0 0 71.75c55.46,2.69 96.78,11.58 124.11,26.79l0 106.48c-36.75,-22.35 -78.21,-35.94 -124.11,-40.93l0 149.42c57.48,20.73 98.8,44.56 123.84,71.21 24.9,26.66 37.42,58.96 37.42,96.79 0,43.61 -14,78.88 -41.86,105.53 -27.87,26.66 -67.71,42.95 -119.4,48.73zm-57.62 -345.14l0 -125.05c-36.61,6.59 -54.78,25.71 -54.78,57.21 0,27.05 18.17,49.67 54.78,67.84zm57.62 133.27l0 119.53c37.55,-5.79 56.4,-24.63 56.4,-56.4 0,-25.71 -18.85,-46.85 -56.4,-63.13z"/>
       </g>
      </g>
     </g>
     <polygon class="fil2" points="17618.55,1147.48 27432.83,1147.48 27432.83,8860.1 17618.55,8860.1 "/>
    </g>
    <g style="clip-path:url(#id1)">
     <g>
     </g>
    </g>
    <g style="clip-path:url(#id2)">
     <polygon id="_1_0" class="fil3" points="17618.55,1147.48 27432.83,1147.48 27432.83,8860.1 17618.55,8860.1 "/>
    </g>
   </g>
   <path class="fil3" d="M3160.34 1233.48l13673.51 0c-0.23,7.86 -0.39,15.76 -0.39,23.68 0,431.07 349.45,780.52 780.52,780.52 431.07,0 780.52,-349.45 780.52,-780.52 0,-7.92 -0.16,-15.82 -0.39,-23.68l8439.68 0c161.85,0 294.24,132.42 294.24,294.27l0 6952.09c0,161.85 -132.39,294.27 -294.24,294.27l-8439.42 0c0.05,-3.39 0.13,-6.78 0.13,-10.19 0,-431.07 -349.45,-780.52 -780.52,-780.52 -431.07,0 -780.52,349.45 -780.52,780.52 0,3.41 0.08,6.8 0.13,10.19l-13673.25 0c-161.85,0 -294.24,-132.42 -294.24,-294.27l0 -6952.09c0,-161.85 132.39,-294.27 294.24,-294.27z"/>
   <line class="fil3 str1" x1="17592.24" y1="2389.37" x2="17592.24" y2= "7628.13" />
   <path class="fil0" d="M20246.08 2472.87c-54.72,0 -99.37,-17.98 -133.81,-53.95 -34.31,-36.1 -51.53,-84.19 -51.53,-144.52l0 -12.76c0,-40.05 7.66,-75.89 22.96,-107.4 15.31,-31.5 36.74,-56.25 64.29,-73.98 27.55,-17.85 57.4,-26.78 89.54,-26.78 52.55,0 93.37,17.35 122.58,51.91 29.08,34.7 43.75,84.31 43.75,148.86l0 28.82 -273.98 0c1.02,39.8 12.62,71.94 34.95,96.43 22.32,24.49 50.63,36.74 85.07,36.74 24.37,0 45.03,-4.98 61.99,-14.92 16.97,-9.95 31.77,-23.09 44.52,-39.42l42.22 32.91c-33.93,52.04 -84.82,78.06 -152.55,78.06zm-8.55 -362.76c-27.93,0 -51.28,10.21 -70.28,30.61 -18.88,20.41 -30.61,48.98 -35.08,85.72l202.56 0 0 -5.23c-2.04,-35.33 -11.48,-62.63 -28.45,-82.02 -16.96,-19.38 -39.92,-29.08 -68.75,-29.08z"/>
   <polygon id="_1_1" class="fil0" points="20806.29,2289.2 20757.69,2289.2 20757.69,2465.22 20688.56,2465.22 20688.56,2289.2 20639.96,2289.2 20526.69,2465.22 20439.32,2465.22 20583.84,2255.65 20453.09,2061.13 20536.77,2061.13 20641.11,2227.97 20688.56,2227.97 20688.56,2061.13 20757.69,2061.13 20757.69,2227.97 20804.76,2227.97 20909.74,2061.13 20993.41,2061.13 20862.29,2255.9 21006.93,2465.22 20919.43,2465.22 "/>
   <path id="_2_2" class="fil0" d="M21230.02 2472.87c-54.72,0 -99.37,-17.98 -133.81,-53.95 -34.31,-36.1 -51.53,-84.19 -51.53,-144.52l0 -12.76c0,-40.05 7.66,-75.89 22.96,-107.4 15.31,-31.5 36.74,-56.25 64.29,-73.98 27.55,-17.85 57.4,-26.78 89.54,-26.78 52.55,0 93.37,17.35 122.58,51.91 29.08,34.7 43.75,84.31 43.75,148.86l0 28.82 -273.98 0c1.02,39.8 12.62,71.94 34.95,96.43 22.32,24.49 50.63,36.74 85.07,36.74 24.37,0 45.03,-4.98 61.99,-14.92 16.97,-9.95 31.77,-23.09 44.52,-39.42l42.22 32.91c-33.93,52.04 -84.82,78.06 -152.55,78.06zm-8.55 -362.76c-27.93,0 -51.28,10.21 -70.28,30.61 -18.88,20.41 -30.61,48.98 -35.08,85.72l202.56 0 0 -5.23c-2.04,-35.33 -11.48,-62.63 -28.45,-82.02 -16.96,-19.38 -39.92,-29.08 -68.75,-29.08z"/>
   <path id="_3_3" class="fil0" d="M21464.46 2408.59l23.85 -29.47c26.91,-34.82 42.35,-87.12 46.05,-156.76l6.37 -161.23 260.47 0 0 347.46 51.91 0 0 175.25 -69.13 0 0 -118.62 -282.15 0 0 118.62 -69.13 0 0.38 -175.25 31.38 0zm81.89 0l185.71 0 0 -283.17 -124.49 0 -4.08 96.17c-4.21,80.23 -23.34,142.48 -57.14,187z"/>
   <polygon id="_4_4" class="fil0" points="22259.88,2465.22 22190.75,2465.22 22190.75,2293.02 22005.03,2293.02 22005.03,2465.22 21935.51,2465.22 21935.51,2061.13 22005.03,2061.13 22005.03,2236.39 22190.75,2236.39 22190.75,2061.13 22259.88,2061.13 "/>
   <path id="_5_5" class="fil0" d="M22538.71 2472.87c-54.72,0 -99.37,-17.98 -133.81,-53.95 -34.31,-36.1 -51.53,-84.19 -51.53,-144.52l0 -12.76c0,-40.05 7.66,-75.89 22.96,-107.4 15.31,-31.5 36.74,-56.25 64.29,-73.98 27.55,-17.85 57.4,-26.78 89.54,-26.78 52.55,0 93.37,17.35 122.58,51.91 29.08,34.7 43.75,84.31 43.75,148.86l0 28.82 -273.98 0c1.02,39.8 12.62,71.94 34.95,96.43 22.32,24.49 50.63,36.74 85.07,36.74 24.37,0 45.03,-4.98 61.99,-14.92 16.97,-9.95 31.77,-23.09 44.52,-39.42l42.22 32.91c-33.93,52.04 -84.82,78.06 -152.55,78.06zm-8.55 -362.76c-27.93,0 -51.28,10.21 -70.28,30.61 -18.88,20.41 -30.61,48.98 -35.08,85.72l202.56 0 0 -5.23c-2.04,-35.33 -11.48,-62.63 -28.45,-82.02 -16.96,-19.38 -39.92,-29.08 -68.75,-29.08z"/>
   <path id="_6_6" class="fil0" d="M22782.59 2465.22l0 -404.09 157.65 0c53.83,0 95.16,9.44 123.98,28.19 28.7,18.75 43.12,46.3 43.12,82.65 0,18.76 -5.61,35.59 -16.84,50.64 -11.22,15.05 -27.81,26.53 -49.62,34.57 24.37,5.74 44.01,16.84 58.8,33.55 14.8,16.71 22.2,36.6 22.2,59.82 0,37.12 -13.65,65.43 -40.95,85.21 -27.16,19.64 -65.81,29.46 -115.56,29.46l-182.78 0zm69.13 -177.55l0 121.68 114.42 0c28.82,0 50.51,-5.36 64.79,-16.07 14.29,-10.71 21.43,-25.77 21.43,-45.15 0,-40.31 -29.59,-60.46 -88.9,-60.46l-111.74 0zm0 -55.11l89.29 0c64.8,0 97.19,-19 97.19,-56.89 0,-37.88 -30.61,-57.4 -91.96,-58.67l-94.52 0 0 115.56z"/>
   <polygon id="_7_7" class="fil0" points="23543.95,2465.22 23474.82,2465.22 23474.82,2293.02 23289.1,2293.02 23289.1,2465.22 23219.58,2465.22 23219.58,2061.13 23289.1,2061.13 23289.1,2236.39 23474.82,2236.39 23474.82,2061.13 23543.95,2061.13 "/>
   <path id="_8_8" class="fil0" d="M23730.3 2200.42l104.98 0c45.79,0.51 82.14,12.5 108.8,35.84 26.66,23.47 39.92,55.1 39.92,95.28 0,40.31 -13.64,72.71 -41.07,97.07 -27.42,24.36 -64.28,36.61 -110.59,36.61l-171.17 0 0 -404.09 69.13 0 0 139.29zm397.97 264.8l-69.52 0 0 -404.09 69.52 0 0 404.09zm-397.97 -208.17l0 151.54 102.68 0c26.02,0 46.05,-6.64 60.21,-19.9 14.28,-13.27 21.3,-31.51 21.3,-54.59 0,-22.33 -6.89,-40.57 -20.67,-54.85 -13.9,-14.29 -33.29,-21.69 -58.16,-22.2l-105.36 0z"/>
   <path id="_9_9" class="fil0" d="M24510.67 2061.13l69.13 0 0 404.09 -69.13 0 0 -294.65 -186.48 294.65 -69.14 0 0 -404.09 69.14 0 0 295.03 186.48 -295.03zm18.75 -148.47c0,30.36 -10.33,54.85 -30.87,73.34 -20.53,18.5 -47.58,27.68 -80.87,27.68 -33.42,0 -60.46,-9.31 -81.12,-27.93 -20.67,-18.5 -31,-42.99 -31,-73.09l56.38 0c0,17.47 4.72,31.12 14.16,41.07 9.57,9.82 23.34,14.8 41.58,14.8 17.35,0 31,-4.85 40.82,-14.67 9.95,-9.7 14.8,-23.47 14.8,-41.2l56.12 0z"/>
   <path class="fil0" d="M20246.08 3861.42c-54.72,0 -99.37,-17.98 -133.81,-53.95 -34.31,-36.1 -51.53,-84.19 -51.53,-144.52l0 -12.76c0,-40.05 7.66,-75.89 22.96,-107.4 15.31,-31.5 36.74,-56.25 64.29,-73.98 27.55,-17.85 57.4,-26.78 89.54,-26.78 52.55,0 93.37,17.35 122.58,51.91 29.08,34.7 43.75,84.31 43.75,148.86l0 28.82 -273.98 0c1.02,39.8 12.62,71.94 34.95,96.43 22.32,24.49 50.63,36.74 85.07,36.74 24.37,0 45.03,-4.98 61.99,-14.92 16.97,-9.95 31.77,-23.09 44.52,-39.42l42.22 32.91c-33.93,52.04 -84.82,78.06 -152.55,78.06zm-8.55 -362.76c-27.93,0 -51.28,10.21 -70.28,30.61 -18.88,20.41 -30.61,48.98 -35.08,85.72l202.56 0 0 -5.23c-2.04,-35.33 -11.48,-62.63 -28.45,-82.02 -16.96,-19.38 -39.92,-29.08 -68.75,-29.08z"/>
   <polygon id="_1_10" class="fil0" points="20806.29,3677.75 20757.69,3677.75 20757.69,3853.77 20688.56,3853.77 20688.56,3677.75 20639.96,3677.75 20526.69,3853.77 20439.32,3853.77 20583.84,3644.2 20453.09,3449.68 20536.77,3449.68 20641.11,3616.52 20688.56,3616.52 20688.56,3449.68 20757.69,3449.68 20757.69,3616.52 20804.76,3616.52 20909.74,3449.68 20993.41,3449.68 20862.29,3644.45 21006.93,3853.77 20919.43,3853.77 "/>
   <path id="_2_11" class="fil0" d="M21230.02 3861.42c-54.72,0 -99.37,-17.98 -133.81,-53.95 -34.31,-36.1 -51.53,-84.19 -51.53,-144.52l0 -12.76c0,-40.05 7.66,-75.89 22.96,-107.4 15.31,-31.5 36.74,-56.25 64.29,-73.98 27.55,-17.85 57.4,-26.78 89.54,-26.78 52.55,0 93.37,17.35 122.58,51.91 29.08,34.7 43.75,84.31 43.75,148.86l0 28.82 -273.98 0c1.02,39.8 12.62,71.94 34.95,96.43 22.32,24.49 50.63,36.74 85.07,36.74 24.37,0 45.03,-4.98 61.99,-14.92 16.97,-9.95 31.77,-23.09 44.52,-39.42l42.22 32.91c-33.93,52.04 -84.82,78.06 -152.55,78.06zm-8.55 -362.76c-27.93,0 -51.28,10.21 -70.28,30.61 -18.88,20.41 -30.61,48.98 -35.08,85.72l202.56 0 0 -5.23c-2.04,-35.33 -11.48,-62.63 -28.45,-82.02 -16.96,-19.38 -39.92,-29.08 -68.75,-29.08z"/>
   <polygon id="_3_12" class="fil0" points="21798.01,3853.77 21728.88,3853.77 21728.88,3681.57 21543.16,3681.57 21543.16,3853.77 21473.64,3853.77 21473.64,3449.68 21543.16,3449.68 21543.16,3624.94 21728.88,3624.94 21728.88,3449.68 21798.01,3449.68 "/>
   <path id="_4_13" class="fil0" d="M22076.84 3861.42c-54.72,0 -99.37,-17.98 -133.81,-53.95 -34.31,-36.1 -51.53,-84.19 -51.53,-144.52l0 -12.76c0,-40.05 7.66,-75.89 22.96,-107.4 15.31,-31.5 36.74,-56.25 64.29,-73.98 27.55,-17.85 57.4,-26.78 89.54,-26.78 52.55,0 93.37,17.35 122.58,51.91 29.08,34.7 43.75,84.31 43.75,148.86l0 28.82 -273.98 0c1.02,39.8 12.62,71.94 34.95,96.43 22.32,24.49 50.63,36.74 85.07,36.74 24.37,0 45.03,-4.98 61.99,-14.92 16.97,-9.95 31.77,-23.09 44.52,-39.42l42.22 32.91c-33.93,52.04 -84.82,78.06 -152.55,78.06zm-8.55 -362.76c-27.93,0 -51.28,10.21 -70.28,30.61 -18.88,20.41 -30.61,48.98 -35.08,85.72l202.56 0 0 -5.23c-2.04,-35.33 -11.48,-62.63 -28.45,-82.02 -16.96,-19.38 -39.92,-29.08 -68.75,-29.08z"/>
   <path id="_5_14" class="fil0" d="M22311.28 3797.14l23.85 -29.47c26.91,-34.82 42.35,-87.12 46.05,-156.76l6.37 -161.23 260.47 0 0 347.46 51.91 0 0 175.25 -69.13 0 0 -118.62 -282.15 0 0 118.62 -69.13 0 0.38 -175.25 31.38 0zm81.89 0l185.71 0 0 -283.17 -124.49 0 -4.08 96.17c-4.21,80.23 -23.34,142.48 -57.14,187z"/>
   <path id="_6_15" class="fil0" d="M22944.2 3861.42c-54.72,0 -99.37,-17.98 -133.81,-53.95 -34.31,-36.1 -51.53,-84.19 -51.53,-144.52l0 -12.76c0,-40.05 7.66,-75.89 22.96,-107.4 15.31,-31.5 36.74,-56.25 64.29,-73.98 27.55,-17.85 57.4,-26.78 89.54,-26.78 52.55,0 93.37,17.35 122.58,51.91 29.08,34.7 43.75,84.31 43.75,148.86l0 28.82 -273.98 0c1.02,39.8 12.62,71.94 34.95,96.43 22.32,24.49 50.63,36.74 85.07,36.74 24.37,0 45.03,-4.98 61.99,-14.92 16.97,-9.95 31.77,-23.09 44.52,-39.42l42.22 32.91c-33.93,52.04 -84.82,78.06 -152.55,78.06zm-8.55 -362.76c-27.93,0 -51.28,10.21 -70.28,30.61 -18.88,20.41 -30.61,48.98 -35.08,85.72l202.56 0 0 -5.23c-2.04,-35.33 -11.48,-62.63 -28.45,-82.02 -16.96,-19.38 -39.92,-29.08 -68.75,-29.08z"/>
   <path id="_7_16" class="fil0" d="M23513.34 3449.68l0 404.09 -69.52 0 0 -346.69 -137.63 0 -8.16 151.15c-4.47,69.39 -16.07,119.01 -34.95,148.86 -18.75,29.84 -48.6,45.4 -89.54,46.68l-27.56 0 0 -61.23 19.78 -1.53c22.44,-2.42 38.52,-15.43 48.21,-38.77 9.69,-23.34 15.94,-66.59 18.62,-129.85l7.53 -172.71 273.22 0z"/>
   <path id="_8_17" class="fil0" d="M23699.82 3588.97l104.97 0c45.92,0.51 82.15,12.5 108.81,35.84 26.66,23.47 39.92,55.1 39.92,95.28 0,40.31 -13.65,72.71 -41.07,97.07 -27.42,24.36 -64.29,36.61 -110.59,36.61l-171.18 0 0 -404.09 69.14 0 0 139.29zm0 56.63l0 151.54 102.81 0c25.89,0 45.92,-6.64 60.07,-19.9 14.29,-13.27 21.43,-31.51 21.43,-54.59 0,-22.33 -7.01,-40.57 -20.79,-54.85 -13.9,-14.29 -33.16,-21.69 -58.16,-22.2l-105.36 0z"/>
   <polygon id="_9_18" class="fil0" points="24370.24,3853.77 24301.11,3853.77 24301.11,3681.57 24115.39,3681.57 24115.39,3853.77 24045.87,3853.77 24045.87,3449.68 24115.39,3449.68 24115.39,3624.94 24301.11,3624.94 24301.11,3449.68 24370.24,3449.68 "/>
   <path id="_10_19" class="fil0" d="M24556.59 3588.97l104.98 0c45.79,0.51 82.14,12.5 108.8,35.84 26.66,23.47 39.92,55.1 39.92,95.28 0,40.31 -13.64,72.71 -41.07,97.07 -27.42,24.36 -64.28,36.61 -110.59,36.61l-171.17 0 0 -404.09 69.13 0 0 139.29zm397.97 264.8l-69.52 0 0 -404.09 69.52 0 0 404.09zm-397.97 -208.17l0 151.54 102.68 0c26.02,0 46.05,-6.64 60.21,-19.9 14.28,-13.27 21.3,-31.51 21.3,-54.59 0,-22.33 -6.89,-40.57 -20.67,-54.85 -13.9,-14.29 -33.29,-21.69 -58.16,-22.2l-105.36 0z"/>
   <path id="_11_20" class="fil0" d="M25336.96 3449.68l69.13 0 0 404.09 -69.13 0 0 -294.65 -186.48 294.65 -69.14 0 0 -404.09 69.14 0 0 295.03 186.48 -295.03zm18.75 -148.47c0,30.36 -10.33,54.85 -30.87,73.34 -20.53,18.5 -47.58,27.68 -80.87,27.68 -33.42,0 -60.46,-9.31 -81.12,-27.93 -20.67,-18.5 -31,-42.99 -31,-73.09l56.38 0c0,17.47 4.72,31.12 14.16,41.07 9.57,9.82 23.34,14.8 41.58,14.8 17.35,0 31,-4.85 40.82,-14.67 9.95,-9.7 14.8,-23.47 14.8,-41.2l56.12 0z"/>
   <path class="fil0" d="M20246.08 5249.97c-54.72,0 -99.37,-17.98 -133.81,-53.95 -34.31,-36.1 -51.53,-84.19 -51.53,-144.52l0 -12.76c0,-40.05 7.66,-75.89 22.96,-107.4 15.31,-31.5 36.74,-56.25 64.29,-73.98 27.55,-17.85 57.4,-26.78 89.54,-26.78 52.55,0 93.37,17.35 122.58,51.91 29.08,34.7 43.75,84.31 43.75,148.86l0 28.82 -273.98 0c1.02,39.8 12.62,71.94 34.95,96.43 22.32,24.49 50.63,36.74 85.07,36.74 24.37,0 45.03,-4.98 61.99,-14.92 16.97,-9.95 31.77,-23.09 44.52,-39.42l42.22 32.91c-33.93,52.04 -84.82,78.06 -152.55,78.06zm-8.55 -362.76c-27.93,0 -51.28,10.21 -70.28,30.61 -18.88,20.41 -30.61,48.98 -35.08,85.72l202.56 0 0 -5.23c-2.04,-35.33 -11.48,-62.63 -28.45,-82.02 -16.96,-19.38 -39.92,-29.08 -68.75,-29.08z"/>
   <polygon id="_1_21" class="fil0" points="20806.29,5066.3 20757.69,5066.3 20757.69,5242.32 20688.56,5242.32 20688.56,5066.3 20639.96,5066.3 20526.69,5242.32 20439.32,5242.32 20583.84,5032.75 20453.09,4838.23 20536.77,4838.23 20641.11,5005.07 20688.56,5005.07 20688.56,4838.23 20757.69,4838.23 20757.69,5005.07 20804.76,5005.07 20909.74,4838.23 20993.41,4838.23 20862.29,5033 21006.93,5242.32 20919.43,5242.32 "/>
   <path id="_2_22" class="fil0" d="M21230.02 5249.97c-54.72,0 -99.37,-17.98 -133.81,-53.95 -34.31,-36.1 -51.53,-84.19 -51.53,-144.52l0 -12.76c0,-40.05 7.66,-75.89 22.96,-107.4 15.31,-31.5 36.74,-56.25 64.29,-73.98 27.55,-17.85 57.4,-26.78 89.54,-26.78 52.55,0 93.37,17.35 122.58,51.91 29.08,34.7 43.75,84.31 43.75,148.86l0 28.82 -273.98 0c1.02,39.8 12.62,71.94 34.95,96.43 22.32,24.49 50.63,36.74 85.07,36.74 24.37,0 45.03,-4.98 61.99,-14.92 16.97,-9.95 31.77,-23.09 44.52,-39.42l42.22 32.91c-33.93,52.04 -84.82,78.06 -152.55,78.06zm-8.55 -362.76c-27.93,0 -51.28,10.21 -70.28,30.61 -18.88,20.41 -30.61,48.98 -35.08,85.72l202.56 0 0 -5.23c-2.04,-35.33 -11.48,-62.63 -28.45,-82.02 -16.96,-19.38 -39.92,-29.08 -68.75,-29.08z"/>
   <polygon id="_3_23" class="fil0" points="21700.43,5150.86 21838.06,4838.23 21924.29,4838.23 21924.29,5242.32 21855.15,5242.32 21855.15,4948.44 21724.41,5242.32 21676.58,5242.32 21543.16,4942.06 21543.16,5242.32 21474.02,5242.32 21474.02,4838.23 21563.69,4838.23 "/>
   <path id="_4_24" class="fil0" d="M22203.12 5249.97c-54.72,0 -99.37,-17.98 -133.81,-53.95 -34.31,-36.1 -51.53,-84.19 -51.53,-144.52l0 -12.76c0,-40.05 7.66,-75.89 22.96,-107.4 15.31,-31.5 36.74,-56.25 64.29,-73.98 27.55,-17.85 57.4,-26.78 89.54,-26.78 52.55,0 93.37,17.35 122.58,51.91 29.08,34.7 43.75,84.31 43.75,148.86l0 28.82 -273.98 0c1.02,39.8 12.62,71.94 34.95,96.43 22.32,24.49 50.63,36.74 85.07,36.74 24.37,0 45.03,-4.98 61.99,-14.92 16.97,-9.95 31.77,-23.09 44.52,-39.42l42.22 32.91c-33.93,52.04 -84.82,78.06 -152.55,78.06zm-8.55 -362.76c-27.93,0 -51.28,10.21 -70.28,30.61 -18.88,20.41 -30.61,48.98 -35.08,85.72l202.56 0 0 -5.23c-2.04,-35.33 -11.48,-62.63 -28.45,-82.02 -16.96,-19.38 -39.92,-29.08 -68.75,-29.08z"/>
   <path id="_5_25" class="fil0" d="M22602.74 5193.34c24.74,0 46.3,-7.4 64.67,-22.32 18.49,-14.93 28.7,-33.55 30.61,-56l65.44 0c-1.28,23.22 -9.19,45.28 -23.86,66.2 -14.79,20.92 -34.44,37.63 -58.93,50.13 -24.49,12.37 -50.51,18.62 -77.93,18.62 -54.98,0 -98.85,-18.36 -131.38,-55.1 -32.4,-36.74 -48.73,-87.12 -48.73,-150.9l0 -11.6c0,-39.29 7.27,-74.37 21.69,-104.98 14.41,-30.61 35.2,-54.46 62.24,-71.43 27.05,-16.96 58.93,-25.38 95.8,-25.38 45.41,0 83.03,13.52 113.14,40.69 29.97,27.17 45.92,62.5 47.96,105.74l-65.44 0c-1.91,-26.15 -11.86,-47.71 -29.72,-64.54 -17.73,-16.84 -39.79,-25.26 -65.94,-25.26 -35.08,0 -62.25,12.63 -81.64,37.88 -19.26,25.39 -28.95,61.87 -28.95,109.83l0 13.01c0,46.56 9.56,82.53 28.83,107.65 19.13,25.13 46.55,37.76 82.14,37.76z"/>
   <path id="_6_26" class="fil0" d="M23150.59 4838.23l0 404.09 -69.52 0 0 -157.66 -104.34 0 -95.28 157.66 -74.75 0 101.66 -168.12c-25.89,-9.43 -45.79,-23.98 -59.57,-43.75 -13.9,-19.77 -20.79,-42.85 -20.79,-69.26 0,-36.73 13.91,-66.33 41.46,-88.9 27.68,-22.45 64.67,-33.8 110.97,-34.06l170.16 0zm-253.07 123.73c0,19.64 6.76,35.59 20.15,47.58 13.52,12.11 31.25,18.24 53.45,18.49l109.95 0 0 -133.93 -99.49 0c-25.64,0 -46.05,6.25 -61.23,18.88 -15.18,12.5 -22.83,28.82 -22.83,48.98z"/>
   <path id="_7_27" class="fil0" d="M23566.53 5242.32l-69.38 0 0 -146.69c-30.49,8.04 -61.61,11.99 -93.5,11.99 -50.51,0 -89.16,-13.01 -115.69,-38.9 -26.53,-25.89 -40.05,-62.76 -40.44,-110.59l0 -120.66 69.14 0 0 122.96c1.15,60.33 30.23,90.56 86.99,90.56 31.89,0 63.01,-3.95 93.5,-11.99l0 -200.77 69.38 0 0 404.09z"/>
   <polygon id="_8_28" class="fil0" points="24007.74,5242.32 23938.61,5242.32 23938.61,5070.12 23752.89,5070.12 23752.89,5242.32 23683.37,5242.32 23683.37,4838.23 23752.89,4838.23 23752.89,5013.49 23938.61,5013.49 23938.61,4838.23 24007.74,4838.23 "/>
   <path id="_9_29" class="fil0" d="M24194.09 4977.52l104.98 0c45.79,0.51 82.14,12.5 108.8,35.84 26.66,23.47 39.92,55.1 39.92,95.28 0,40.31 -13.64,72.71 -41.07,97.07 -27.42,24.36 -64.28,36.61 -110.59,36.61l-171.17 0 0 -404.09 69.13 0 0 139.29zm397.97 264.8l-69.52 0 0 -404.09 69.52 0 0 404.09zm-397.97 -208.17l0 151.54 102.68 0c26.02,0 46.05,-6.64 60.21,-19.9 14.28,-13.27 21.3,-31.51 21.3,-54.59 0,-22.33 -6.89,-40.57 -20.67,-54.85 -13.9,-14.29 -33.29,-21.69 -58.16,-22.2l-105.36 0z"/>
   <path id="_10_30" class="fil0" d="M24974.46 4838.23l69.13 0 0 404.09 -69.13 0 0 -294.65 -186.48 294.65 -69.14 0 0 -404.09 69.14 0 0 295.03 186.48 -295.03zm18.75 -148.47c0,30.36 -10.33,54.85 -30.87,73.34 -20.53,18.5 -47.58,27.68 -80.87,27.68 -33.42,0 -60.46,-9.31 -81.12,-27.93 -20.67,-18.5 -31,-42.99 -31,-73.09l56.38 0c0,17.47 4.72,31.12 14.16,41.07 9.57,9.82 23.34,14.8 41.58,14.8 17.35,0 31,-4.85 40.82,-14.67 9.95,-9.7 14.8,-23.47 14.8,-41.2l56.12 0z"/>
   <path class="fil0" d="M20246.08 6526.01c-54.72,0 -99.37,-17.98 -133.81,-53.95 -34.31,-36.1 -51.53,-84.19 -51.53,-144.52l0 -12.76c0,-40.05 7.66,-75.89 22.96,-107.4 15.31,-31.5 36.74,-56.25 64.29,-73.98 27.55,-17.85 57.4,-26.78 89.54,-26.78 52.55,0 93.37,17.35 122.58,51.91 29.08,34.7 43.75,84.31 43.75,148.86l0 28.82 -273.98 0c1.02,39.8 12.62,71.94 34.95,96.43 22.32,24.49 50.63,36.74 85.07,36.74 24.37,0 45.03,-4.98 61.99,-14.92 16.97,-9.95 31.77,-23.09 44.52,-39.42l42.22 32.91c-33.93,52.04 -84.82,78.06 -152.55,78.06zm-8.55 -362.76c-27.93,0 -51.28,10.21 -70.28,30.61 -18.88,20.41 -30.61,48.98 -35.08,85.72l202.56 0 0 -5.23c-2.04,-35.33 -11.48,-62.63 -28.45,-82.02 -16.96,-19.38 -39.92,-29.08 -68.75,-29.08z"/>
   <polygon id="_1_31" class="fil0" points="20806.29,6342.34 20757.69,6342.34 20757.69,6518.36 20688.56,6518.36 20688.56,6342.34 20639.96,6342.34 20526.69,6518.36 20439.32,6518.36 20583.84,6308.79 20453.09,6114.27 20536.77,6114.27 20641.11,6281.11 20688.56,6281.11 20688.56,6114.27 20757.69,6114.27 20757.69,6281.11 20804.76,6281.11 20909.74,6114.27 20993.41,6114.27 20862.29,6309.04 21006.93,6518.36 20919.43,6518.36 "/>
   <path id="_2_32" class="fil0" d="M21230.02 6526.01c-54.72,0 -99.37,-17.98 -133.81,-53.95 -34.31,-36.1 -51.53,-84.19 -51.53,-144.52l0 -12.76c0,-40.05 7.66,-75.89 22.96,-107.4 15.31,-31.5 36.74,-56.25 64.29,-73.98 27.55,-17.85 57.4,-26.78 89.54,-26.78 52.55,0 93.37,17.35 122.58,51.91 29.08,34.7 43.75,84.31 43.75,148.86l0 28.82 -273.98 0c1.02,39.8 12.62,71.94 34.95,96.43 22.32,24.49 50.63,36.74 85.07,36.74 24.37,0 45.03,-4.98 61.99,-14.92 16.97,-9.95 31.77,-23.09 44.52,-39.42l42.22 32.91c-33.93,52.04 -84.82,78.06 -152.55,78.06zm-8.55 -362.76c-27.93,0 -51.28,10.21 -70.28,30.61 -18.88,20.41 -30.61,48.98 -35.08,85.72l202.56 0 0 -5.23c-2.04,-35.33 -11.48,-62.63 -28.45,-82.02 -16.96,-19.38 -39.92,-29.08 -68.75,-29.08z"/>
   <polygon id="_3_33" class="fil0" points="21593.54,6346.16 21543.16,6346.16 21543.16,6518.36 21473.64,6518.36 21473.64,6114.27 21543.16,6114.27 21543.16,6284.94 21588.31,6284.94 21724.41,6114.27 21808.09,6114.27 21648.13,6308.28 21821.61,6518.36 21733.72,6518.36 "/>
   <path id="_4_34" class="fil0" d="M21887.17 6518.36l0 -404.09 157.65 0c53.83,0 95.16,9.44 123.98,28.19 28.7,18.75 43.12,46.3 43.12,82.65 0,18.76 -5.61,35.59 -16.84,50.64 -11.22,15.05 -27.81,26.53 -49.62,34.57 24.37,5.74 44.01,16.84 58.8,33.55 14.8,16.71 22.2,36.6 22.2,59.82 0,37.12 -13.65,65.43 -40.95,85.21 -27.16,19.64 -65.81,29.46 -115.56,29.46l-182.78 0zm69.13 -177.55l0 121.68 114.42 0c28.82,0 50.51,-5.36 64.79,-16.07 14.29,-10.71 21.43,-25.77 21.43,-45.15 0,-40.31 -29.59,-60.46 -88.9,-60.46l-111.74 0zm0 -55.11l89.29 0c64.8,0 97.19,-19 97.19,-56.89 0,-37.88 -30.61,-57.4 -91.96,-58.67l-94.52 0 0 115.56z"/>
   <path id="_5_35" class="fil0" d="M22567.79 6518.36c-3.96,-7.91 -7.14,-22.07 -9.7,-42.48 -32.14,33.42 -70.53,50.13 -115.05,50.13 -39.92,0 -72.58,-11.22 -98.09,-33.8 -25.51,-22.58 -38.26,-51.15 -38.26,-85.71 0,-42.1 15.94,-74.88 47.96,-98.09 32.01,-23.35 77.04,-34.95 135.08,-34.95l67.22 0 0 -31.76c0,-24.11 -7.15,-43.37 -21.56,-57.78 -14.54,-14.29 -35.84,-21.43 -63.9,-21.43 -24.75,0 -45.41,6.25 -62.12,18.62 -16.71,12.5 -25,27.55 -25,45.15l-69.52 0c0,-20.15 7.14,-39.67 21.43,-58.54 14.41,-18.75 33.8,-33.68 58.42,-44.65 24.49,-10.97 51.4,-16.45 80.87,-16.45 46.55,0 83.03,11.61 109.44,34.95 26.4,23.21 40.18,55.36 41.07,96.17l0 186.1c0,37.12 4.85,66.59 14.29,88.52l0 6 -72.58 0zm-114.67 -51.28c21.68,0 42.22,-5.61 61.61,-16.96 19.51,-11.23 33.54,-26.02 42.22,-44.01l0 -83.67 -54.09 0c-84.69,0 -127.04,25 -127.04,75 0,21.81 7.14,38.9 21.56,51.15 14.54,12.37 33.03,18.49 55.74,18.49z"/>
   <path id="_6_36" class="fil0" d="M23076.08 6320.78c0,61.61 -14.15,111.1 -42.22,148.73 -28.18,37.63 -66.32,56.5 -114.41,56.5 -48.98,0 -87.63,-15.56 -115.82,-46.68l0 194.39 -69.13 0 0 -559.45 63.14 0 3.44 44.64c28.06,-34.82 67.22,-52.29 117.22,-52.29 48.6,0 87.12,18.37 115.31,54.97 28.32,36.61 42.47,87.5 42.47,152.81l0 6.38zm-69.13 -7.78c0,-45.54 -9.69,-81.51 -29.21,-107.91 -19.39,-26.4 -46.05,-39.54 -79.97,-39.54 -41.84,0 -73.22,18.49 -94.14,55.61l0 192.99c20.66,36.86 52.3,55.23 94.9,55.23 33.16,0 59.57,-13.14 79.08,-39.41 19.52,-26.28 29.34,-65.18 29.34,-116.97z"/>
   <polygon id="_7_37" class="fil0" points="23434.51,6170.14 23298.8,6170.14 23298.8,6518.36 23229.66,6518.36 23229.66,6170.14 23096.62,6170.14 23096.62,6114.27 23434.51,6114.27 "/>
   <path id="_8_38" class="fil0" d="M23745.36 6518.36c-3.96,-7.91 -7.14,-22.07 -9.7,-42.48 -32.14,33.42 -70.53,50.13 -115.05,50.13 -39.92,0 -72.58,-11.22 -98.09,-33.8 -25.51,-22.58 -38.26,-51.15 -38.26,-85.71 0,-42.1 15.94,-74.88 47.96,-98.09 32.01,-23.35 77.04,-34.95 135.08,-34.95l67.22 0 0 -31.76c0,-24.11 -7.15,-43.37 -21.56,-57.78 -14.54,-14.29 -35.84,-21.43 -63.9,-21.43 -24.75,0 -45.41,6.25 -62.12,18.62 -16.71,12.5 -25,27.55 -25,45.15l-69.52 0c0,-20.15 7.14,-39.67 21.43,-58.54 14.41,-18.75 33.8,-33.68 58.42,-44.65 24.49,-10.97 51.4,-16.45 80.87,-16.45 46.55,0 83.03,11.61 109.44,34.95 26.4,23.21 40.18,55.36 41.07,96.17l0 186.1c0,37.12 4.85,66.59 14.29,88.52l0 6 -72.58 0zm-114.67 -51.28c21.68,0 42.22,-5.61 61.61,-16.96 19.51,-11.23 33.54,-26.02 42.22,-44.01l0 -83.67 -54.09 0c-84.69,0 -127.04,25 -127.04,75 0,21.81 7.14,38.9 21.56,51.15 14.54,12.37 33.03,18.49 55.74,18.49z"/>
   <path id="_9_39" class="fil0" d="M24243.58 6114.27l0 404.09 -69.52 0 0 -346.69 -137.63 0 -8.16 151.15c-4.47,69.39 -16.07,119.01 -34.95,148.86 -18.75,29.84 -48.6,45.4 -89.54,46.68l-27.56 0 0 -61.23 19.78 -1.53c22.44,-2.42 38.52,-15.43 48.21,-38.77 9.69,-23.34 15.94,-66.59 18.62,-129.85l7.53 -172.71 273.22 0z"/>
   <path id="_10_40" class="fil0" d="M24430.06 6253.56l104.97 0c45.92,0.51 82.15,12.5 108.81,35.84 26.66,23.47 39.92,55.1 39.92,95.28 0,40.31 -13.65,72.71 -41.07,97.07 -27.42,24.36 -64.29,36.61 -110.59,36.61l-171.18 0 0 -404.09 69.14 0 0 139.29zm0 56.63l0 151.54 102.81 0c25.89,0 45.92,-6.64 60.07,-19.9 14.29,-13.27 21.43,-31.51 21.43,-54.59 0,-22.33 -7.01,-40.57 -20.79,-54.85 -13.9,-14.29 -33.16,-21.69 -58.16,-22.2l-105.36 0z"/>
   <polygon id="_11_41" class="fil0" points="25100.48,6518.36 25031.35,6518.36 25031.35,6346.16 24845.63,6346.16 24845.63,6518.36 24776.11,6518.36 24776.11,6114.27 24845.63,6114.27 24845.63,6289.53 25031.35,6289.53 25031.35,6114.27 25100.48,6114.27 "/>
   <path id="_12_42" class="fil0" d="M25286.83 6253.56l104.98 0c45.79,0.51 82.14,12.5 108.8,35.84 26.66,23.47 39.92,55.1 39.92,95.28 0,40.31 -13.64,72.71 -41.07,97.07 -27.42,24.36 -64.28,36.61 -110.59,36.61l-171.17 0 0 -404.09 69.13 0 0 139.29zm397.97 264.8l-69.52 0 0 -404.09 69.52 0 0 404.09zm-397.97 -208.17l0 151.54 102.68 0c26.02,0 46.05,-6.64 60.21,-19.9 14.28,-13.27 21.3,-31.51 21.3,-54.59 0,-22.33 -6.89,-40.57 -20.67,-54.85 -13.9,-14.29 -33.29,-21.69 -58.16,-22.2l-105.36 0z"/>
   <path id="_13_43" class="fil0" d="M26067.2 6114.27l69.13 0 0 404.09 -69.13 0 0 -294.65 -186.48 294.65 -69.14 0 0 -404.09 69.14 0 0 295.03 186.48 -295.03zm18.75 -148.47c0,30.36 -10.33,54.85 -30.87,73.34 -20.53,18.5 -47.58,27.68 -80.87,27.68 -33.42,0 -60.46,-9.31 -81.12,-27.93 -20.67,-18.5 -31,-42.99 -31,-73.09l56.38 0c0,17.47 4.72,31.12 14.16,41.07 9.57,9.82 23.34,14.8 41.58,14.8 17.35,0 31,-4.85 40.82,-14.67 9.95,-9.7 14.8,-23.47 14.8,-41.2l56.12 0z"/>
   <path class="fil0" d="M20246.08 7949.76c-54.72,0 -99.37,-17.98 -133.81,-53.95 -34.31,-36.1 -51.53,-84.19 -51.53,-144.52l0 -12.76c0,-40.05 7.66,-75.89 22.96,-107.4 15.31,-31.5 36.74,-56.25 64.29,-73.98 27.55,-17.85 57.4,-26.78 89.54,-26.78 52.55,0 93.37,17.35 122.58,51.91 29.08,34.7 43.75,84.31 43.75,148.86l0 28.82 -273.98 0c1.02,39.8 12.62,71.94 34.95,96.43 22.32,24.49 50.63,36.74 85.07,36.74 24.37,0 45.03,-4.98 61.99,-14.92 16.97,-9.95 31.77,-23.09 44.52,-39.42l42.22 32.91c-33.93,52.04 -84.82,78.06 -152.55,78.06zm-8.55 -362.76c-27.93,0 -51.28,10.21 -70.28,30.61 -18.88,20.41 -30.61,48.98 -35.08,85.72l202.56 0 0 -5.23c-2.04,-35.33 -11.48,-62.63 -28.45,-82.02 -16.96,-19.38 -39.92,-29.08 -68.75,-29.08z"/>
   <polygon id="_1_44" class="fil0" points="20806.29,7766.09 20757.69,7766.09 20757.69,7942.11 20688.56,7942.11 20688.56,7766.09 20639.96,7766.09 20526.69,7942.11 20439.32,7942.11 20583.84,7732.54 20453.09,7538.02 20536.77,7538.02 20641.11,7704.86 20688.56,7704.86 20688.56,7538.02 20757.69,7538.02 20757.69,7704.86 20804.76,7704.86 20909.74,7538.02 20993.41,7538.02 20862.29,7732.79 21006.93,7942.11 20919.43,7942.11 "/>
   <path id="_2_45" class="fil0" d="M21230.02 7949.76c-54.72,0 -99.37,-17.98 -133.81,-53.95 -34.31,-36.1 -51.53,-84.19 -51.53,-144.52l0 -12.76c0,-40.05 7.66,-75.89 22.96,-107.4 15.31,-31.5 36.74,-56.25 64.29,-73.98 27.55,-17.85 57.4,-26.78 89.54,-26.78 52.55,0 93.37,17.35 122.58,51.91 29.08,34.7 43.75,84.31 43.75,148.86l0 28.82 -273.98 0c1.02,39.8 12.62,71.94 34.95,96.43 22.32,24.49 50.63,36.74 85.07,36.74 24.37,0 45.03,-4.98 61.99,-14.92 16.97,-9.95 31.77,-23.09 44.52,-39.42l42.22 32.91c-33.93,52.04 -84.82,78.06 -152.55,78.06zm-8.55 -362.76c-27.93,0 -51.28,10.21 -70.28,30.61 -18.88,20.41 -30.61,48.98 -35.08,85.72l202.56 0 0 -5.23c-2.04,-35.33 -11.48,-62.63 -28.45,-82.02 -16.96,-19.38 -39.92,-29.08 -68.75,-29.08z"/>
   <polygon id="_3_46" class="fil0" points="21728.88,7595.42 21542.39,7595.42 21542.39,7942.11 21472.88,7942.11 21472.88,7538.02 21728.88,7538.02 "/>
   <path id="_4_47" class="fil0" d="M21762.81 7736.37c0,-39.67 7.78,-75.26 23.34,-106.89 15.56,-31.76 37.25,-56.13 65.05,-73.35 27.68,-17.22 59.44,-25.76 95.03,-25.76 55.1,0 99.62,19 133.68,57.14 33.93,38.14 50.89,88.91 50.89,152.17l0 4.85c0,39.41 -7.53,74.75 -22.58,106 -15.05,31.25 -36.6,55.61 -64.67,73.08 -27.93,17.48 -60.2,26.15 -96.55,26.15 -54.85,0 -99.24,-19 -133.17,-57.14 -34.06,-38.14 -51.02,-88.65 -51.02,-151.41l0 -4.84zm69.52 8.03c0,44.77 10.33,80.87 31.12,108.04 20.79,27.17 48.72,40.69 83.55,40.69 35.07,0 63.01,-13.78 83.67,-41.33 20.66,-27.55 31,-66.07 31,-115.69 0,-44.39 -10.46,-80.23 -31.51,-107.78 -21.05,-27.55 -48.98,-41.33 -83.93,-41.33 -34.06,0 -61.61,13.52 -82.53,40.69 -20.91,27.17 -31.37,66.07 -31.37,116.71z"/>
   <path id="_5_48" class="fil0" d="M22187.56 7885.48l23.85 -29.47c26.91,-34.82 42.35,-87.12 46.05,-156.76l6.37 -161.23 260.47 0 0 347.46 51.91 0 0 175.25 -69.13 0 0 -118.62 -282.15 0 0 118.62 -69.13 0 0.38 -175.25 31.38 0zm81.89 0l185.71 0 0 -283.17 -124.49 0 -4.08 96.17c-4.21,80.23 -23.34,142.48 -57.14,187z"/>
   <polygon id="_6_49" class="fil0" points="22982.98,7942.11 22913.85,7942.11 22913.85,7769.91 22728.13,7769.91 22728.13,7942.11 22658.61,7942.11 22658.61,7538.02 22728.13,7538.02 22728.13,7713.28 22913.85,7713.28 22913.85,7538.02 22982.98,7538.02 "/>
   <path id="_7_50" class="fil0" d="M23169.33 7677.31l104.98 0c45.79,0.51 82.14,12.5 108.8,35.84 26.66,23.47 39.92,55.1 39.92,95.28 0,40.31 -13.64,72.71 -41.07,97.07 -27.42,24.36 -64.28,36.61 -110.59,36.61l-171.17 0 0 -404.09 69.13 0 0 139.29zm397.97 264.8l-69.52 0 0 -404.09 69.52 0 0 404.09zm-397.97 -208.17l0 151.54 102.68 0c26.02,0 46.05,-6.64 60.21,-19.9 14.28,-13.27 21.3,-31.51 21.3,-54.59 0,-22.33 -6.89,-40.57 -20.67,-54.85 -13.9,-14.29 -33.29,-21.69 -58.16,-22.2l-105.36 0z"/>
   <path id="_8_51" class="fil0" d="M23949.7 7538.02l69.13 0 0 404.09 -69.13 0 0 -294.65 -186.48 294.65 -69.14 0 0 -404.09 69.14 0 0 295.03 186.48 -295.03zm18.75 -148.47c0,30.36 -10.33,54.85 -30.87,73.34 -20.53,18.5 -47.58,27.68 -80.87,27.68 -33.42,0 -60.46,-9.31 -81.12,-27.93 -20.67,-18.5 -31,-42.99 -31,-73.09l56.38 0c0,17.47 4.72,31.12 14.16,41.07 9.57,9.82 23.34,14.8 41.58,14.8 17.35,0 31,-4.85 40.82,-14.67 9.95,-9.7 14.8,-23.47 14.8,-41.2l56.12 0z"/>
   <path class="fil5" d="M19288.91 2060.62c15.57,15.57 15.57,40.85 0,56.42l-318.84 318.84c-15.56,15.57 -40.85,15.57 -56.42,0l-159.41 -159.42c-15.57,-15.57 -15.57,-40.85 0,-56.42 15.56,-15.57 40.85,-15.57 56.42,0l131.27 131.15 290.69 -290.57c15.57,-15.57 40.85,-15.57 56.42,0l-0.13 0z"/>
   <path class="fil5" d="M19321.99 3449.17c15.57,15.57 15.57,40.85 0,56.42l-318.84 318.84c-15.56,15.57 -40.85,15.57 -56.42,0l-159.41 -159.42c-15.57,-15.57 -15.57,-40.85 0,-56.42 15.56,-15.57 40.85,-15.57 56.42,0l131.27 131.15 290.69 -290.57c15.57,-15.57 40.85,-15.57 56.42,0l-0.13 0z"/>
   <path class="fil5" d="M19321.99 4782.23c15.57,15.57 15.57,40.85 0,56.42l-318.84 318.84c-15.56,15.57 -40.85,15.57 -56.42,0l-159.41 -159.42c-15.57,-15.57 -15.57,-40.85 0,-56.42 15.56,-15.57 40.85,-15.57 56.42,0l131.27 131.15 290.69 -290.57c15.57,-15.57 40.85,-15.57 56.42,0l-0.13 0z"/>
   <path class="fil5" d="M19295.54 6132.13c15.57,15.57 15.57,40.85 0,56.42l-318.84 318.84c-15.56,15.57 -40.85,15.57 -56.42,0l-159.41 -159.42c-15.57,-15.57 -15.57,-40.85 0,-56.42 15.56,-15.57 40.85,-15.57 56.42,0l131.27 131.15 290.69 -290.57c15.57,-15.57 40.85,-15.57 56.42,0l-0.13 0z"/>
   <path class="fil5" d="M19269.07 7537.51c15.57,15.57 15.57,40.85 0,56.42l-318.84 318.84c-15.56,15.57 -40.85,15.57 -56.42,0l-159.41 -159.42c-15.57,-15.57 -15.57,-40.85 0,-56.42 15.56,-15.57 40.85,-15.57 56.42,0l131.27 131.15 290.69 -290.57c15.57,-15.57 40.85,-15.57 56.42,0l-0.13 0z"/>
   <path class="fil0" d="M6314.19 5228.65c-13.01,137.7 -63.86,245.43 -152.53,322.91 -88.67,77.17 -206.39,115.91 -353.78,115.91 -102.89,0 -193.38,-24.52 -271.76,-73.24 -78.39,-48.72 -138.61,-118.03 -181.28,-207.91 -42.67,-89.88 -64.77,-194.29 -66.58,-313.23l0 -120.75c0,-121.96 21.79,-229.09 64.76,-322 43.28,-92.91 105.02,-164.64 185.82,-214.87 80.8,-50.24 174.01,-75.36 279.63,-75.36 142.55,0 257.24,38.74 344.1,115.91 86.86,77.47 137.4,186.73 151.62,328.06l-223.34 0c-10.6,-92.61 -37.83,-159.79 -81.11,-200.65 -43.58,-41.16 -107.13,-61.74 -191.27,-61.74 -97.44,0 -172.19,35.71 -224.55,106.83 -52.36,71.42 -79.29,175.83 -80.2,313.53l0 114.4c0,139.82 24.82,246.04 74.75,319.58 49.94,73.24 123.17,109.86 219.41,109.86 88.07,0 154.35,-19.67 198.53,-59.32 44.49,-39.64 72.63,-105.62 84.44,-197.92l223.34 0z"/>
   <path id="_1_52" class="fil0" d="M7236.92 5349.7l-499.95 0 -104.71 299.61 -233.03 0 487.54 -1291.04 201.26 0 488.45 1291.04 -233.94 0 -105.62 -299.61zm-437 -181.58l374.06 0 -187.03 -535.97 -187.03 535.97z"/>
   <path id="_2_53" class="fil0" d="M8398.13 5316.71c0,-56.59 -19.97,-100.47 -59.92,-131.04 -39.95,-30.87 -111.97,-61.73 -215.78,-93.21 -104.1,-31.17 -187.03,-66.28 -248.46,-104.71 -117.42,-73.84 -176.44,-170.38 -176.44,-289.32 0,-104.11 42.37,-189.75 127.41,-257.24 84.74,-67.49 194.9,-101.08 330.18,-101.08 89.88,0 169.77,16.65 240.29,49.63 70.21,33.29 125.59,80.2 165.84,141.64 39.95,61.13 60.23,128.92 60.23,203.67l-223.35 0c0,-67.49 -21.18,-120.15 -63.55,-157.98 -42.07,-38.13 -102.59,-57.19 -181.28,-57.19 -73.24,0 -130.13,15.73 -170.69,46.9 -40.55,31.18 -60.83,74.76 -60.83,131.05 0,47.21 22.1,86.55 65.68,118.02 43.88,31.48 115.91,62.04 216.38,92 100.48,29.66 181.28,63.86 242.11,101.99 60.83,38.13 105.32,82.02 133.76,131.35 28.45,49.63 42.67,107.43 42.67,173.71 0,107.74 -41.15,193.38 -123.77,257.24 -82.32,63.55 -194.29,95.33 -335.63,95.33 -93.21,0 -179.16,-17.25 -257.54,-52.06 -78.38,-34.5 -139.21,-82.31 -182.49,-143.14 -43.58,-60.83 -65.37,-131.95 -65.37,-213.06l224.56 0c0,73.24 24.21,129.83 72.63,170.08 48.42,40.25 117.73,60.23 208.21,60.23 78.08,0 136.8,-15.74 176.14,-47.51 39.34,-31.48 59.01,-73.24 59.01,-125.3z"/>
   <polygon id="_3_54" class="fil0" points="9843.52,5649.31 9620.17,5649.31 9620.17,5077.33 9043.05,5077.33 9043.05,5649.31 8818.79,5649.31 8818.79,4358.27 9043.05,4358.27 9043.05,4895.75 9620.17,4895.75 9620.17,4358.27 9843.52,4358.27 "/>
   <path id="_4_55" class="fil0" d="M10108.92 5649.31l0 -1291.04 442.46 0c145.87,0 257.24,29.35 333.2,87.76 76.26,58.41 114.39,145.57 114.39,261.18 0,59.31 -15.73,112.27 -47.81,159.79 -31.78,47.21 -78.69,83.83 -140.12,109.86 69.91,18.76 123.77,54.47 161.91,106.83 38.13,52.35 57.19,115 57.19,188.54 0,121.35 -38.73,214.26 -116.51,279.33 -77.78,65.07 -189.15,97.75 -333.81,97.75l-470.9 0zm224.26 -582.88l0 403.11 249.06 0c70.52,0 125.3,-17.55 164.94,-52.35 39.65,-34.8 59.62,-83.23 59.62,-145.27 0,-134.06 -68.7,-202.46 -205.79,-205.49l-267.83 0zm0 -165.23l220.01 0c69.61,0 124.08,-15.74 163.42,-47.21 39.35,-31.48 59.02,-76.27 59.02,-134.07 0,-63.56 -18.16,-109.25 -54.48,-137.7 -36.31,-28.15 -92.9,-42.37 -169.77,-42.37l-218.2 0 0 361.35z"/>
   <path id="_5_56" class="fil0" d="M11976.78 5349.7l-499.95 0 -104.71 299.61 -233.03 0 487.54 -1291.04 201.26 0 488.45 1291.04 -233.94 0 -105.62 -299.61zm-437 -181.58l374.06 0 -187.03 -535.97 -187.03 535.97z"/>
   <path id="_6_57" class="fil0" d="M13429.43 5228.65c-13.01,137.7 -63.86,245.43 -152.53,322.91 -88.67,77.17 -206.39,115.91 -353.78,115.91 -102.89,0 -193.38,-24.52 -271.76,-73.24 -78.39,-48.72 -138.61,-118.03 -181.28,-207.91 -42.67,-89.88 -64.77,-194.29 -66.58,-313.23l0 -120.75c0,-121.96 21.79,-229.09 64.76,-322 43.28,-92.91 105.02,-164.64 185.82,-214.87 80.8,-50.24 174.01,-75.36 279.63,-75.36 142.55,0 257.24,38.74 344.1,115.91 86.86,77.47 137.4,186.73 151.62,328.06l-223.34 0c-10.6,-92.61 -37.83,-159.79 -81.11,-200.65 -43.58,-41.16 -107.13,-61.74 -191.27,-61.74 -97.44,0 -172.19,35.71 -224.55,106.83 -52.36,71.42 -79.29,175.83 -80.2,313.53l0 114.4c0,139.82 24.82,246.04 74.75,319.58 49.94,73.24 123.17,109.86 219.41,109.86 88.07,0 154.35,-19.67 198.53,-59.32 44.49,-39.64 72.63,-105.62 84.44,-197.92l223.34 0z"/>
   <polygon id="_7_58" class="fil0" points="14000.2,5091.55 13854.03,5246.81 13854.03,5649.31 13629.77,5649.31 13629.77,4358.27 13854.03,4358.27 13854.03,4963.84 13978.11,4810.41 14355.79,4358.27 14626.96,4358.27 14147.58,4930.25 14654.5,5649.31 14388.48,5649.31 "/>
  </g>
 </g>
</svg>
