<svg width="917" height="285" viewBox="0 0 917 285" fill="none" xmlns="http://www.w3.org/2000/svg">
<path d="M30.4498 45.1559H20.9718V50.1309H25.1807C26.6895 50.1309 28.0006 50.3913 29.1239 50.9068C30.2423 51.4276 31.0957 52.1605 31.6789 53.1103C32.2624 54.0646 32.5565 55.1637 32.5565 56.4174C32.5565 58.3359 31.9007 59.8836 30.5991 61.0499C29.2928 62.2167 27.5187 62.8097 25.2673 62.829H17.3998V42.263H30.4498V45.1559ZM20.9718 53.0234V59.9652H25.1709C26.3762 59.9652 27.3112 59.6375 27.9863 58.9867C28.6613 58.3359 28.9939 57.473 28.9939 56.3981C28.9939 55.3663 28.6662 54.5514 28.0055 53.949C27.3498 53.351 26.434 53.0426 25.2673 53.0234H20.9718Z" fill="white"/>
<path d="M34.6632 55.053C34.6632 53.5536 34.9621 52.204 35.5548 51.0036C36.1478 49.8032 36.9819 48.8821 38.0568 48.2362C39.1272 47.5903 40.3612 47.2672 41.7547 47.2672C43.818 47.2672 45.4908 47.9327 46.7777 49.2582C48.0601 50.589 48.7544 52.3483 48.8606 54.542L48.875 55.347C48.875 56.8558 48.5858 58.2009 48.0072 59.387C47.424 60.573 46.5993 61.4937 45.5195 62.1445C44.4397 62.7953 43.1958 63.1181 41.7834 63.1181C39.6287 63.1181 37.9026 62.4 36.6059 60.9634C35.314 59.5268 34.6632 57.6129 34.6632 55.2215V55.053ZM38.0954 55.3421C38.0954 56.9136 38.4234 58.1431 39.0743 59.0351C39.7202 59.9267 40.6265 60.3704 41.7834 60.3704C42.9403 60.3704 43.8421 59.9172 44.4881 59.0158C45.134 58.1095 45.4571 56.7885 45.4571 55.0432C45.4571 53.5007 45.1242 52.2762 44.459 51.3698C43.7987 50.4684 42.8973 50.0152 41.7547 50.0152C40.636 50.0152 39.7444 50.4586 39.0886 51.3505C38.428 52.2425 38.0954 53.568 38.0954 55.3421Z" fill="white"/>
<path d="M64.5377 47.5567V62.829H61.1055V50.3335H56.7859L56.5013 55.6509C56.3229 58.2058 55.8312 60.0427 55.0261 61.1562C54.2211 62.2696 52.992 62.829 51.3335 62.829H50.273L50.2583 59.9652L50.9673 59.893C51.719 59.7917 52.2686 59.334 52.611 58.5192C52.9535 57.7043 53.1749 56.2242 53.2668 54.0695L53.551 47.5567H64.5377Z" fill="white"/>
<path d="M71.8896 52.416H75.2496C76.5033 52.416 77.5926 52.6329 78.5231 53.0668C79.4581 53.4958 80.1668 54.1032 80.6491 54.884C81.1359 55.6653 81.377 56.5716 81.377 57.6079C81.377 59.1795 80.8225 60.4377 79.7136 61.3875C78.6002 62.3422 77.125 62.8191 75.2787 62.829H68.4571V47.5567H71.8896V52.416ZM71.8896 55.1637V60.0813H75.2353C76.074 60.0813 76.7346 59.8738 77.2165 59.4542C77.7037 59.0351 77.9444 58.4421 77.9444 57.6707C77.9444 56.8993 77.7082 56.2919 77.2312 55.8486C76.7588 55.3999 76.1174 55.1735 75.3075 55.1637H71.8896Z" fill="white"/>
<path d="M87.6877 47.5567V60.0813H92.465V47.5567H95.8976V60.0813H100.685V47.5567H104.103V62.829H84.26V47.5567H87.6877Z" fill="white"/>
<path d="M114.559 63.1181C112.385 63.1181 110.62 62.4336 109.27 61.0647C107.921 59.6905 107.241 57.8683 107.241 55.5882V55.1637C107.241 53.6406 107.535 52.2762 108.128 51.0758C108.716 49.8754 109.54 48.94 110.606 48.2699C111.666 47.5998 112.852 47.2672 114.164 47.2672C116.246 47.2672 117.851 47.9327 118.984 49.2631C120.122 50.5935 120.686 52.4738 120.686 54.9037V56.2919H110.702C110.808 57.5501 111.228 58.5434 111.965 59.2713C112.708 60.0038 113.638 60.3704 114.757 60.3704C116.328 60.3704 117.611 59.7388 118.599 58.4708L120.45 60.2355C119.838 61.1512 119.018 61.8599 117.996 62.3614C116.974 62.8675 115.832 63.1181 114.559 63.1181ZM114.149 50.0152C113.209 50.0152 112.447 50.3478 111.869 51.0081C111.29 51.6688 110.919 52.5944 110.76 53.7755H117.297V53.52C117.225 52.3676 116.916 51.4953 116.381 50.9023C115.846 50.3093 115.099 50.0152 114.149 50.0152Z" fill="white"/>
<path d="M139.68 62.829C139.526 62.5398 139.396 62.0674 139.285 61.4067C138.191 62.5493 136.855 63.1181 135.274 63.1181C133.736 63.1181 132.488 62.6797 131.514 61.8021C130.545 60.9248 130.063 59.8401 130.063 58.5479C130.063 56.9186 130.665 55.6653 131.875 54.7926C133.085 53.9199 134.816 53.486 137.068 53.486H139.169V52.4833C139.169 51.693 138.948 51.0614 138.509 50.5841C138.065 50.1067 137.39 49.8705 136.489 49.8705C135.708 49.8705 135.067 50.0682 134.566 50.4586C134.069 50.849 133.818 51.3456 133.818 51.9485H130.386C130.386 51.1094 130.665 50.3286 131.22 49.6006C131.774 48.8727 132.531 48.299 133.486 47.8893C134.44 47.4746 135.51 47.2672 136.687 47.2672C138.475 47.2672 139.902 47.7158 140.963 48.6172C142.028 49.5137 142.573 50.7768 142.602 52.4062V59.3C142.602 60.6739 142.795 61.7684 143.18 62.5878V62.829H139.68ZM135.906 60.3704C136.585 60.3704 137.222 60.2064 137.819 59.8738C138.417 59.5461 138.87 59.1024 139.169 58.5434V55.6554H137.318C136.05 55.6554 135.096 55.8773 134.454 56.321C133.813 56.7643 133.49 57.391 133.49 58.2059C133.49 58.8661 133.712 59.3919 134.151 59.7823C134.589 60.1727 135.173 60.3704 135.906 60.3704Z" fill="white"/>
<path d="M151.626 56.7545H149.891V62.829H146.458V47.5567H149.891V53.6307H151.4L155.623 47.5567H159.86L154.34 54.8409L160.328 62.829H155.864L151.626 56.7545Z" fill="white"/>
<path d="M174.236 50.2756H169.281V62.829H165.848V50.2756H160.95V47.5567H174.236V50.2756Z" fill="white"/>
<path d="M186.062 47.5567H189.48V62.829H186.062V52.6379L180.074 62.829H176.656V47.5567H180.074V57.7478L186.062 47.5567Z" fill="white"/>
<path d="M193.389 62.829V47.5567H199.594C201.681 47.5567 203.272 47.9229 204.367 48.6508C205.456 49.3788 206.006 50.4249 206.006 51.7893C206.006 52.4931 205.784 53.1296 205.345 53.6886C204.911 54.2479 204.26 54.6769 203.407 54.9808C204.405 55.183 205.196 55.6025 205.779 56.2341C206.363 56.8656 206.652 57.6079 206.652 58.4663C206.652 59.8881 206.131 60.9683 205.08 61.7155C204.029 62.4578 202.52 62.829 200.553 62.829H193.389ZM196.822 56.321V60.11H200.582C202.342 60.11 203.224 59.4784 203.224 58.2202C203.224 56.9522 202.327 56.321 200.539 56.321H196.822ZM196.822 53.862H199.647C201.599 53.862 202.573 53.2887 202.573 52.1412C202.573 50.9359 201.648 50.3142 199.801 50.2756H196.822V53.862Z" fill="white"/>
<path d="M222.556 62.829H219.123V56.668H213.174V62.829H209.747V47.5567H213.174V53.9199H219.123V47.5567H222.556V62.829Z" fill="white"/>
<path d="M225.554 55.053C225.554 53.5536 225.853 52.204 226.446 51.0036C227.039 49.8032 227.873 48.8821 228.948 48.2362C230.018 47.5903 231.252 47.2672 232.646 47.2672C234.709 47.2672 236.382 47.9327 237.669 49.2582C238.951 50.589 239.645 52.3483 239.752 54.542L239.766 55.347C239.766 56.8558 239.477 58.2009 238.898 59.387C238.315 60.573 237.49 61.4937 236.411 62.1445C235.331 62.7953 234.087 63.1181 232.675 63.1181C230.52 63.1181 228.794 62.4 227.497 60.9634C226.205 59.5268 225.554 57.6129 225.554 55.2215V55.053ZM228.986 55.3421C228.986 56.9136 229.315 58.1431 229.965 59.0351C230.611 59.9267 231.518 60.3704 232.675 60.3704C233.831 60.3704 234.733 59.9172 235.379 59.0158C236.025 58.1095 236.348 56.7885 236.348 55.0432C236.348 53.5007 236.015 52.2762 235.35 51.3698C234.69 50.4684 233.788 50.0152 232.646 50.0152C231.527 50.0152 230.635 50.4586 229.98 51.3505C229.319 52.2425 228.986 53.568 228.986 55.3421Z" fill="white"/>
<path d="M248.945 60.3704C249.798 60.3704 250.512 60.1198 251.076 59.6232C251.64 59.1265 251.944 58.5093 251.977 57.7769H255.212C255.179 58.7312 254.88 59.6183 254.325 60.4426C253.771 61.2669 253.014 61.9177 252.064 62.4C251.114 62.8774 250.088 63.1181 248.984 63.1181C246.848 63.1181 245.151 62.4242 243.902 61.0405C242.649 59.6568 242.022 57.7429 242.022 55.3036V54.9517C242.022 52.628 242.644 50.7625 243.888 49.3644C245.132 47.9664 246.824 47.2672 248.969 47.2672C250.787 47.2672 252.271 47.7974 253.414 48.8583C254.556 49.9139 255.159 51.3071 255.212 53.0332H251.977C251.944 52.1507 251.645 51.4326 251.081 50.8637C250.521 50.2995 249.808 50.0152 248.945 50.0152C247.832 50.0152 246.973 50.42 246.371 51.2251C245.768 52.0301 245.464 53.2498 245.455 54.8889V55.4385C245.455 57.0969 245.754 58.331 246.352 59.1458C246.949 59.9607 247.812 60.3704 248.945 60.3704Z" fill="white"/>
<path d="M269.839 50.2756H264.883V62.829H261.45V50.2756H256.552V47.5567H269.839V50.2756Z" fill="white"/>
<path d="M281.664 47.5567H285.082V62.829H281.664V52.6379L275.676 62.829H272.259V47.5567H275.676V57.7478L281.664 47.5567Z" fill="white"/>
<path d="M302.592 55.482H295.177V52.7051H302.592V55.482Z" fill="white"/>
<path d="M312.889 62.829V47.5567H319.093C321.18 47.5567 322.772 47.9229 323.866 48.6508C324.955 49.3788 325.505 50.4249 325.505 51.7893C325.505 52.4931 325.283 53.1296 324.844 53.6886C324.41 54.2479 323.76 54.6769 322.907 54.9808C323.904 55.183 324.695 55.6025 325.278 56.2341C325.862 56.8656 326.151 57.6079 326.151 58.4663C326.151 59.8881 325.63 60.9683 324.579 61.7155C323.528 62.4578 322.02 62.829 320.053 62.829H312.889ZM316.321 56.321V60.11H320.081C321.841 60.11 322.723 59.4784 322.723 58.2202C322.723 56.9522 321.826 56.321 320.038 56.321H316.321ZM316.321 53.862H319.146C321.098 53.862 322.072 53.2887 322.072 52.1412C322.072 50.9359 321.147 50.3142 319.3 50.2756H316.321V53.862Z" fill="white"/>
<path d="M332.799 52.416H336.159C337.412 52.416 338.507 52.6329 339.437 53.0668C340.373 53.4958 341.081 54.1032 341.563 54.884C342.05 55.6653 342.291 56.5716 342.291 57.6079C342.291 59.1795 341.737 60.4377 340.623 61.3875C339.514 62.3422 338.034 62.8191 336.188 62.829H329.367V47.5567H332.799V52.416ZM348.264 62.829H344.832V47.5567H348.264V62.829ZM332.799 55.1637V60.0813H336.149C336.983 60.0813 337.649 59.8738 338.131 59.4542C338.618 59.0351 338.859 58.4421 338.859 57.6707C338.859 56.8993 338.623 56.2919 338.145 55.8486C337.673 55.3999 337.027 55.1735 336.217 55.1637H332.799Z" fill="white"/>
<path d="M355.934 47.5567V60.0813H360.712V47.5567H364.144V60.0813H368.931V47.5567H372.349V62.829H352.507V47.5567H355.934Z" fill="white"/>
<path d="M382.806 63.1181C380.631 63.1181 378.867 62.4336 377.517 61.0647C376.167 59.6905 375.487 57.8683 375.487 55.5882V55.1637C375.487 53.6406 375.781 52.2762 376.374 51.0758C376.963 49.8754 377.787 48.94 378.852 48.2699C379.913 47.5998 381.099 47.2672 382.41 47.2672C384.493 47.2672 386.098 47.9327 387.231 49.2631C388.369 50.5935 388.933 52.4738 388.933 54.9037V56.2919H378.949C379.055 57.5501 379.474 58.5434 380.212 59.2713C380.954 60.0038 381.885 60.3704 383.003 60.3704C384.575 60.3704 385.857 59.7388 386.845 58.4708L388.696 60.2355C388.085 61.1512 387.265 61.8599 386.243 62.3614C385.221 62.8675 384.078 63.1181 382.806 63.1181ZM382.396 50.0152C381.456 50.0152 380.694 50.3478 380.115 51.0081C379.537 51.6688 379.166 52.5944 379.007 53.7755H385.544V53.52C385.471 52.3676 385.163 51.4953 384.628 50.9023C384.093 50.3093 383.345 50.0152 382.396 50.0152Z" fill="white"/>
<path d="M404.225 56.7545H402.489V62.829H399.057V47.5567H402.489V53.6307H403.998L408.221 47.5567H412.459L406.939 54.8409L412.926 62.829H408.462L404.225 56.7545Z" fill="white"/>
<path d="M421.319 63.1181C419.145 63.1181 417.381 62.4336 416.031 61.0647C414.681 59.6905 414.001 57.8683 414.001 55.5882V55.1637C414.001 53.6406 414.295 52.2762 414.888 51.0758C415.476 49.8754 416.301 48.94 417.366 48.2699C418.427 47.5998 419.613 47.2672 420.924 47.2672C423.007 47.2672 424.612 47.9327 425.745 49.2631C426.882 50.5935 427.446 52.4738 427.446 54.9037V56.2919H417.462C417.569 57.5501 417.988 58.5434 418.726 59.2713C419.468 60.0038 420.398 60.3704 421.517 60.3704C423.089 60.3704 424.371 59.7388 425.359 58.4708L427.21 60.2355C426.598 61.1512 425.778 61.8599 424.757 62.3614C423.735 62.8675 422.592 63.1181 421.319 63.1181ZM420.909 50.0152C419.969 50.0152 419.208 50.3478 418.629 51.0081C418.051 51.6688 417.679 52.5944 417.521 53.7755H424.058V53.52C423.985 52.3676 423.677 51.4953 423.142 50.9023C422.606 50.3093 421.859 50.0152 420.909 50.0152Z" fill="white"/>
<path d="M433.671 47.5567V60.0813H438.448V47.5567H441.88V60.0813H446.668V47.5567H450.085V62.829H430.243V47.5567H433.671Z" fill="white"/>
<path d="M461 48.3953C462.923 48.3953 464.461 49.0363 465.618 50.3237C466.78 51.606 467.358 53.3511 467.358 55.5541V55.7231C467.358 57.9213 466.727 59.7052 465.473 61.0692C464.215 62.4336 462.509 63.1181 460.354 63.1181C458.252 63.1181 456.555 62.4242 455.268 61.0307C453.976 59.6375 453.335 57.7383 453.335 55.3278V54.3394C453.335 51.0467 453.918 48.4388 455.085 46.5199C456.251 44.6015 457.991 43.4011 460.31 42.9188C461.607 42.6584 462.451 42.3791 462.832 42.0801C463.212 41.7861 463.4 41.3809 463.4 40.8748H466.173C466.173 41.8246 466.014 42.596 465.705 43.1887C465.396 43.7817 464.919 44.2639 464.278 44.6351C463.637 45.0062 462.537 45.3581 460.971 45.6862C459.544 45.9897 458.454 46.5249 457.702 47.2963C456.955 48.0677 456.454 49.1331 456.198 50.4971C457.562 49.0946 459.168 48.3953 461 48.3953ZM460.325 51.1431C459.211 51.1431 458.338 51.5191 457.712 52.2663C457.08 53.0135 456.762 54.161 456.762 55.7133C456.762 57.1839 457.076 58.3264 457.697 59.1409C458.319 59.9607 459.202 60.3704 460.349 60.3704C461.491 60.3704 462.374 59.9607 463 59.1364C463.627 58.3117 463.94 57.0728 463.94 55.4192C463.94 54.1032 463.627 53.057 463 52.2905C462.374 51.524 461.482 51.1431 460.325 51.1431Z" fill="white"/>
<path d="M475.515 50.0152C474.715 50.0152 474.035 50.2609 473.481 50.7526C472.927 51.2493 472.647 51.8665 472.647 52.6088H469.412C469.412 51.6688 469.687 50.7866 470.232 49.9669C470.781 49.1425 471.529 48.4868 472.478 48C473.428 47.5132 474.44 47.2672 475.515 47.2672C477.588 47.2672 479.252 47.9758 480.51 49.398C481.763 50.8203 482.395 52.7195 482.395 55.0915V55.4483C482.395 56.9091 482.11 58.23 481.541 59.4157C480.968 60.6017 480.167 61.5179 479.131 62.1589C478.094 62.7999 476.894 63.1181 475.53 63.1181C474.373 63.1181 473.322 62.8774 472.382 62.3902C471.437 61.9034 470.709 61.2189 470.193 60.3413C469.672 59.4641 469.412 58.4708 469.412 57.3668H472.647C472.647 58.2444 472.927 58.9674 473.481 59.5268C474.035 60.0907 474.72 60.3704 475.53 60.3704C476.489 60.3704 477.265 60.0087 477.858 59.2857C478.451 58.5626 478.808 57.555 478.919 56.2628H474.117V53.8912H478.904C478.774 52.6522 478.413 51.693 477.82 51.0229C477.222 50.3528 476.456 50.0152 475.515 50.0152Z" fill="white"/>
<path d="M490.773 56.7545H489.038V62.829H485.605V47.5567H489.038V53.6307H490.546L494.77 47.5567H499.007L493.487 54.8409L499.475 62.829H495.011L490.773 56.7545Z" fill="white"/>
<path d="M503.438 59.2135C504.079 59.2135 504.571 59.3919 504.918 59.7532C505.27 60.1149 505.443 60.5681 505.443 61.1127C505.443 61.6479 505.27 62.0912 504.918 62.4435C504.571 62.7953 504.079 62.9737 503.438 62.9737C502.825 62.9737 502.339 62.7999 501.982 62.4529C501.625 62.1059 501.447 61.6573 501.447 61.1127C501.447 60.5681 501.62 60.1149 501.967 59.7532C502.314 59.3919 502.806 59.2135 503.438 59.2135ZM503.438 47.2093C504.079 47.2093 504.571 47.3877 504.918 47.7494C505.27 48.1107 505.443 48.5639 505.443 49.1089C505.443 49.6441 505.27 50.0874 504.918 50.4393C504.571 50.7912 504.079 50.9696 503.438 50.9696C502.825 50.9696 502.339 50.7961 501.982 50.4491C501.625 50.1018 501.447 49.6535 501.447 49.1089C501.447 48.5639 501.62 48.1107 501.967 47.7494C502.314 47.3877 502.806 47.2093 503.438 47.2093Z" fill="white"/>
<path fill-rule="evenodd" clip-rule="evenodd" d="M11.1209 0H527.915C527.906 0.297071 527.9 0.595656 527.9 0.894994C527.9 17.1874 541.108 30.395 557.4 30.395C573.693 30.395 586.9 17.1874 586.9 0.894994C586.9 0.595656 586.894 0.297071 586.885 0H905.865C911.983 0 916.986 5.00485 916.986 11.122V273.878C916.986 279.995 911.983 285 905.865 285H586.895C586.897 284.872 586.9 284.744 586.9 284.615C586.9 268.323 573.693 255.115 557.4 255.115C541.108 255.115 527.9 268.323 527.9 284.615C527.9 284.744 527.903 284.872 527.905 285H11.1209C5.00372 285 0 279.995 0 273.878V11.122C0 5.00485 5.00372 0 11.1209 0Z" fill="#0C202E"/>
<path fill-rule="evenodd" clip-rule="evenodd" d="M11.1209 0H527.915C527.906 0.297071 527.9 0.595656 527.9 0.894994C527.9 17.1874 541.108 30.395 557.4 30.395C573.693 30.395 586.9 17.1874 586.9 0.894994C586.9 0.595656 586.894 0.297071 586.885 0H905.865C911.983 0 916.986 5.00485 916.986 11.122V273.878C916.986 279.995 911.983 285 905.865 285H586.895C586.897 284.872 586.9 284.744 586.9 284.615C586.9 268.323 573.693 255.115 557.4 255.115C541.108 255.115 527.9 268.323 527.9 284.615C527.9 284.744 527.903 284.872 527.905 285H11.1209C5.00372 285 0 279.995 0 273.878V11.122C0 5.00485 5.00372 0 11.1209 0Z" fill="#061724"/>
<mask id="mask0_35_3" style="mask-type:luminance" maskUnits="userSpaceOnUse" x="0" y="0" width="917" height="286">
<path d="M11.1209 0H527.915C527.906 0.297071 527.9 0.595656 527.9 0.894994C527.9 17.1874 541.108 30.395 557.4 30.395C573.693 30.395 586.9 17.1874 586.9 0.894994C586.9 0.595656 586.894 0.297071 586.885 0H905.865C911.983 0 916.986 5.00485 916.986 11.122V273.878C916.986 279.995 911.983 285 905.865 285H586.895C586.897 284.872 586.9 284.744 586.9 284.615C586.9 268.323 573.693 255.115 557.4 255.115C541.108 255.115 527.9 268.323 527.9 284.615C527.9 284.744 527.903 284.872 527.905 285H11.1209C5.00372 285 0 279.995 0 273.878V11.122C0 5.00485 5.00372 0 11.1209 0Z" fill="white"/>
</mask>
<g mask="url(#mask0_35_3)">
<path d="M32.5996 49.9673C44.4536 49.9673 54.0631 40.3577 54.0631 28.5037C54.0631 16.6497 44.4536 7.04013 32.5996 7.04013C20.7456 7.04013 11.136 16.6497 11.136 28.5037C11.136 40.3577 20.7456 49.9673 32.5996 49.9673Z" stroke="#192736" stroke-width="2.00013" stroke-miterlimit="22.9256"/>
<path d="M33.6601 38.9031V42.1338H31.4823V38.9896C29.4626 38.9794 27.5853 38.5217 25.8505 37.6211V33.49C26.4253 33.9579 27.2852 34.3903 28.4247 34.7872C29.5695 35.184 30.587 35.4131 31.4823 35.4743V30.0457C29.1575 29.1806 27.5701 28.2444 26.7205 27.2372C25.8709 26.2299 25.4434 24.9986 25.4434 23.5487C25.4434 21.9867 25.9979 20.6589 27.1019 19.5598C28.2009 18.4607 29.661 17.825 31.4823 17.647V14.874H33.6601V17.5858C35.7562 17.6874 37.3179 18.0234 38.3509 18.5983V22.6228C36.9619 21.778 35.3949 21.2644 33.6601 21.0758V26.7232C35.8326 27.5067 37.3943 28.4073 38.3407 29.4146C39.2818 30.4222 39.755 31.643 39.755 33.0728C39.755 34.721 39.2258 36.0541 38.1729 37.0613C37.1195 38.0689 35.6137 38.6846 33.6601 38.9031ZM31.4823 25.8584V21.1321C30.0987 21.3812 29.4119 22.1038 29.4119 23.2944C29.4119 24.3167 30.0987 25.1717 31.4823 25.8584ZM33.6601 30.8954V35.413C35.0793 35.1942 35.7918 34.4822 35.7918 33.2814C35.7918 32.3097 35.0793 31.5107 33.6601 30.8954Z" fill="#192736"/>
<path d="M138.337 28.6541C136.816 28.6541 135.59 28.1707 134.664 27.2092C133.733 26.2424 133.27 24.9453 133.27 23.317C133.27 21.5365 133.763 20.1271 134.75 19.084C135.743 18.0412 137.06 17.517 138.709 17.517C140.291 17.517 141.522 17.9902 142.412 18.9366C143.303 19.8777 143.745 21.2058 143.745 22.9153C143.745 24.6705 143.257 26.0697 142.27 27.1022C141.288 28.1352 139.976 28.6541 138.337 28.6541ZM138.617 20.1422C137.167 20.1422 136.445 21.1499 136.445 23.1696C136.445 25.0775 137.131 26.0288 138.515 26.0288C139.925 26.0288 140.632 25.0367 140.632 23.0476C140.632 21.109 139.96 20.1422 138.617 20.1422ZM153.941 17.8174L140.021 39.1907H136.384L150.273 17.8174H153.941ZM151.646 39.4908C150.126 39.4908 148.899 39.0074 147.973 38.0409C147.042 37.0794 146.579 35.7819 146.579 34.1537C146.579 32.3732 147.073 30.9638 148.06 29.921C149.052 28.8779 150.37 28.354 152.018 28.354C153.61 28.354 154.847 28.8219 155.732 29.7532C156.617 30.689 157.06 32.0118 157.06 33.7213C157.06 35.4765 156.566 36.881 155.579 37.9238C154.597 38.9669 153.285 39.4908 151.646 39.4908ZM151.886 30.9793C150.446 30.9793 149.723 31.9865 149.723 34.0014C149.723 35.9093 150.426 36.8655 151.825 36.8655C153.234 36.8655 153.941 35.8734 153.941 33.8842C153.941 32.9582 153.753 32.2462 153.376 31.7371C153 31.2336 152.501 30.9793 151.886 30.9793Z" fill="#192736"/>
<path d="M145.165 49.9673C157.019 49.9673 166.628 40.3577 166.628 28.5037C166.628 16.6497 157.019 7.04013 145.165 7.04013C133.311 7.04013 123.701 16.6497 123.701 28.5037C123.701 40.3577 133.311 49.9673 145.165 49.9673Z" stroke="#192736" stroke-width="2.00013" stroke-miterlimit="22.9256"/>
<path d="M257.73 49.9673C269.584 49.9673 279.193 40.3577 279.193 28.5037C279.193 16.6497 269.584 7.04013 257.73 7.04013C245.876 7.04013 236.266 16.6497 236.266 28.5037C236.266 40.3577 245.876 49.9673 257.73 49.9673Z" stroke="#192736" stroke-width="2.00013" stroke-miterlimit="22.9256"/>
<path d="M258.79 38.9031V42.1338H256.613V38.9896C254.593 38.9794 252.715 38.5217 250.981 37.6211V33.49C251.556 33.9579 252.415 34.3903 253.555 34.7872C254.7 35.184 255.717 35.4131 256.613 35.4743V30.0457C254.288 29.1806 252.7 28.2444 251.851 27.2372C251.001 26.2299 250.574 24.9986 250.574 23.5487C250.574 21.9867 251.128 20.6589 252.232 19.5598C253.331 18.4607 254.791 17.825 256.613 17.647V14.874H258.79V17.5858C260.886 17.6874 262.448 18.0234 263.481 18.5983V22.6228C262.092 21.778 260.525 21.2644 258.79 21.0758V26.7232C260.963 27.5067 262.524 28.4073 263.471 29.4146C264.412 30.4222 264.885 31.643 264.885 33.0728C264.885 34.721 264.356 36.0541 263.303 37.0613C262.25 38.0689 260.744 38.6846 258.79 38.9031ZM256.613 25.8584V21.1321C255.229 21.3812 254.542 22.1038 254.542 23.2944C254.542 24.3167 255.229 25.1717 256.613 25.8584ZM258.79 30.8954V35.413C260.209 35.1942 260.922 34.4822 260.922 33.2814C260.922 32.3097 260.209 31.5107 258.79 30.8954Z" fill="#192736"/>
<path d="M363.467 28.6541C361.946 28.6541 360.72 28.1707 359.794 27.2092C358.863 26.2424 358.4 24.9453 358.4 23.317C358.4 21.5365 358.893 20.1271 359.881 19.084C360.873 18.0412 362.19 17.517 363.839 17.517C365.421 17.517 366.652 17.9902 367.542 18.9366C368.433 19.8777 368.875 21.2058 368.875 22.9153C368.875 24.6705 368.387 26.0697 367.4 27.1022C366.418 28.1352 365.106 28.6541 363.467 28.6541ZM363.747 20.1422C362.297 20.1422 361.575 21.1499 361.575 23.1696C361.575 25.0775 362.262 26.0288 363.645 26.0288C365.055 26.0288 365.762 25.0367 365.762 23.0476C365.762 21.109 365.09 20.1422 363.747 20.1422ZM379.071 17.8174L365.152 39.1907H361.514L375.403 17.8174H379.071ZM376.777 39.4908C375.256 39.4908 374.029 39.0074 373.104 38.0409C372.172 37.0794 371.709 35.7819 371.709 34.1537C371.709 32.3732 372.203 30.9638 373.19 29.921C374.182 28.8779 375.5 28.354 377.148 28.354C378.74 28.354 379.977 28.8219 380.862 29.7532C381.747 30.689 382.19 32.0118 382.19 33.7213C382.19 35.4765 381.696 36.881 380.71 37.9238C379.728 38.9669 378.415 39.4908 376.777 39.4908ZM377.016 30.9793C375.576 30.9793 374.854 31.9865 374.854 34.0014C374.854 35.9093 375.556 36.8655 376.955 36.8655C378.364 36.8655 379.071 35.8734 379.071 33.8842C379.071 32.9582 378.883 32.2462 378.506 31.7371C378.13 31.2336 377.632 30.9793 377.016 30.9793Z" fill="#192736"/>
<path d="M370.295 49.9673C382.149 49.9673 391.759 40.3577 391.759 28.5037C391.759 16.6497 382.149 7.04013 370.295 7.04013C358.441 7.04013 348.831 16.6497 348.831 28.5037C348.831 40.3577 358.441 49.9673 370.295 49.9673Z" stroke="#192736" stroke-width="2.00013" stroke-miterlimit="22.9256"/>
<path d="M482.861 49.9673C494.715 49.9673 504.324 40.3577 504.324 28.5037C504.324 16.6497 494.715 7.04013 482.861 7.04013C471.007 7.04013 461.397 16.6497 461.397 28.5037C461.397 40.3577 471.007 49.9673 482.861 49.9673Z" stroke="#192736" stroke-width="2.00013" stroke-miterlimit="22.9256"/>
<path d="M483.922 38.9031V42.1338H481.744V38.9896C479.724 38.9794 477.847 38.5217 476.112 37.6211V33.49C476.687 33.9579 477.547 34.3903 478.686 34.7872C479.831 35.184 480.848 35.4131 481.744 35.4743V30.0457C479.419 29.1806 477.832 28.2444 476.982 27.2372C476.132 26.2299 475.705 24.9986 475.705 23.5487C475.705 21.9867 476.259 20.6589 477.363 19.5598C478.462 18.4607 479.922 17.825 481.744 17.647V14.874H483.922V17.5858C486.018 17.6874 487.579 18.0234 488.612 18.5983V22.6228C487.223 21.778 485.656 21.2644 483.922 21.0758V26.7232C486.094 27.5067 487.656 28.4073 488.602 29.4146C489.543 30.4222 490.016 31.643 490.016 33.0728C490.016 34.721 489.487 36.0541 488.434 37.0613C487.381 38.0689 485.875 38.6846 483.922 38.9031ZM481.744 25.8584V21.1321C480.36 21.3812 479.673 22.1038 479.673 23.2944C479.673 24.3167 480.36 25.1717 481.744 25.8584ZM483.922 30.8954V35.413C485.341 35.1942 486.053 34.4822 486.053 33.2814C486.053 32.3097 485.341 31.5107 483.922 30.8954Z" fill="#192736"/>
<path d="M83.3329 85.652C81.8117 85.652 80.5856 85.1686 79.6596 84.2071C78.7287 83.2403 78.2657 81.9432 78.2657 80.315C78.2657 78.5344 78.7589 77.125 79.7462 76.0819C80.7383 75.0391 82.0558 74.5149 83.7045 74.5149C85.2866 74.5149 86.5179 74.9881 87.408 75.9345C88.2985 76.8756 88.7411 78.2037 88.7411 79.9132C88.7411 81.6684 88.2527 83.0676 87.2659 84.1002C86.284 85.1331 84.9714 85.652 83.3329 85.652ZM83.6126 77.1402C82.1628 77.1402 81.4405 78.1478 81.4405 80.1676C81.4405 82.0755 82.1273 83.0268 83.511 83.0268C84.9203 83.0268 85.6275 82.0347 85.6275 80.0455C85.6275 78.107 84.9559 77.1402 83.6126 77.1402ZM98.9367 74.8154L85.0171 96.1886H81.3793L95.2687 74.8154H98.9367ZM96.6422 96.4887C95.1213 96.4887 93.8948 96.0053 92.9692 95.0389C92.0379 94.0774 91.575 92.7798 91.575 91.1516C91.575 89.3711 92.0686 87.9617 93.0554 86.9189C94.0475 85.8758 95.3654 85.3519 97.0137 85.3519C98.606 85.3519 99.8427 85.8198 100.728 86.7511C101.613 87.6869 102.056 89.0098 102.056 90.7192C102.056 92.4745 101.562 93.8789 100.575 94.9217C99.5932 95.9648 98.2806 96.4887 96.6422 96.4887ZM96.8814 87.9772C95.4418 87.9772 94.7191 88.9844 94.7191 90.9993C94.7191 92.9072 95.4214 93.8634 96.8206 93.8634C98.2296 93.8634 98.9367 92.8713 98.9367 90.8821C98.9367 89.9562 98.7485 89.2441 98.372 88.735C97.9956 88.2316 97.4971 87.9772 96.8814 87.9772Z" fill="#192736"/>
<path d="M90.1606 106.965C102.015 106.965 111.624 97.3556 111.624 85.5016C111.624 73.6476 102.015 64.0381 90.1606 64.0381C78.3067 64.0381 68.6971 73.6476 68.6971 85.5016C68.6971 97.3556 78.3067 106.965 90.1606 106.965Z" stroke="#192736" stroke-width="2.00013" stroke-miterlimit="22.9256"/>
<path d="M202.845 106.965C214.699 106.965 224.309 97.3556 224.309 85.5016C224.309 73.6476 214.699 64.0381 202.845 64.0381C190.991 64.0381 181.381 73.6476 181.381 85.5016C181.381 97.3556 190.991 106.965 202.845 106.965Z" stroke="#192736" stroke-width="2.00013" stroke-miterlimit="22.9256"/>
<path d="M203.905 95.901V99.1317H201.728V95.9875C199.708 95.9773 197.831 95.5196 196.096 94.619V90.4879C196.671 90.9558 197.531 91.3882 198.67 91.7851C199.815 92.1819 200.832 92.411 201.728 92.4722V87.0437C199.403 86.1785 197.816 85.2423 196.966 84.2351C196.116 83.2278 195.689 81.9965 195.689 80.5467C195.689 78.9846 196.243 77.6568 197.347 76.5577C198.446 75.4587 199.906 74.8229 201.728 74.6449V71.8719H203.905V74.5837C206.002 74.6854 207.563 75.0214 208.596 75.5962V79.6207C207.207 78.7759 205.64 78.2623 203.905 78.0737V83.7211C206.078 84.5046 207.64 85.4052 208.586 86.4125C209.527 87.4201 210 88.6409 210 90.0707C210 91.7189 209.471 93.052 208.418 94.0592C207.365 95.0668 205.859 95.6825 203.905 95.901ZM201.728 82.8563V78.13C200.344 78.3791 199.657 79.1017 199.657 80.2923C199.657 81.3146 200.344 82.1696 201.728 82.8563ZM203.905 87.8933V92.411C205.325 92.1921 206.037 91.4801 206.037 90.2793C206.037 89.3076 205.325 88.5086 203.905 87.8933Z" fill="#192736"/>
<path d="M308.702 85.652C307.181 85.652 305.955 85.1686 305.029 84.2071C304.098 83.2403 303.635 81.9432 303.635 80.315C303.635 78.5344 304.128 77.125 305.115 76.0819C306.107 75.0391 307.425 74.5149 309.074 74.5149C310.656 74.5149 311.887 74.9881 312.777 75.9345C313.668 76.8756 314.11 78.2037 314.11 79.9132C314.11 81.6684 313.622 83.0676 312.635 84.1002C311.653 85.1331 310.34 85.652 308.702 85.652ZM308.982 77.1402C307.532 77.1402 306.81 78.1478 306.81 80.1676C306.81 82.0755 307.496 83.0268 308.88 83.0268C310.289 83.0268 310.997 82.0347 310.997 80.0455C310.997 78.107 310.325 77.1402 308.982 77.1402ZM324.306 74.8154L310.386 96.1886H306.748L320.638 74.8154H324.306ZM322.011 96.4887C320.49 96.4887 319.264 96.0053 318.338 95.0389C317.407 94.0774 316.944 92.7798 316.944 91.1516C316.944 89.3711 317.438 87.9617 318.424 86.9189C319.417 85.8758 320.734 85.3519 322.383 85.3519C323.975 85.3519 325.212 85.8198 326.097 86.7511C326.982 87.6869 327.425 89.0098 327.425 90.7192C327.425 92.4745 326.931 93.8789 325.944 94.9217C324.962 95.9648 323.65 96.4887 322.011 96.4887ZM322.25 87.9772C320.811 87.9772 320.088 88.9844 320.088 90.9993C320.088 92.9072 320.79 93.8634 322.19 93.8634C323.599 93.8634 324.306 92.8713 324.306 90.8821C324.306 89.9562 324.118 89.2441 323.741 88.735C323.365 88.2316 322.866 87.9772 322.25 87.9772Z" fill="#192736"/>
<path d="M315.53 106.965C327.384 106.965 336.993 97.3556 336.993 85.5016C336.993 73.6476 327.384 64.0381 315.53 64.0381C303.676 64.0381 294.066 73.6476 294.066 85.5016C294.066 97.3556 303.676 106.965 315.53 106.965Z" stroke="#192736" stroke-width="2.00013" stroke-miterlimit="22.9256"/>
<path d="M428.214 106.965C440.068 106.965 449.678 97.3556 449.678 85.5016C449.678 73.6476 440.068 64.0381 428.214 64.0381C416.36 64.0381 406.75 73.6476 406.75 85.5016C406.75 97.3556 416.36 106.965 428.214 106.965Z" stroke="#192736" stroke-width="2.00013" stroke-miterlimit="22.9256"/>
<path d="M429.275 95.901V99.1317H427.097V95.9875C425.077 95.9773 423.2 95.5196 421.465 94.619V90.4879C422.04 90.9558 422.9 91.3882 424.039 91.7851C425.184 92.1819 426.201 92.411 427.097 92.4722V87.0437C424.772 86.1785 423.185 85.2423 422.335 84.2351C421.485 83.2278 421.058 81.9965 421.058 80.5467C421.058 78.9846 421.612 77.6568 422.716 76.5577C423.815 75.4587 425.276 74.8229 427.097 74.6449V71.8719H429.275V74.5837C431.371 74.6854 432.932 75.0214 433.965 75.5962V79.6207C432.576 78.7759 431.009 78.2623 429.275 78.0737V83.7211C431.447 84.5046 433.009 85.4052 433.955 86.4125C434.896 87.4201 435.369 88.6409 435.369 90.0707C435.369 91.7189 434.84 93.052 433.787 94.0592C432.734 95.0668 431.228 95.6825 429.275 95.901ZM427.097 82.8563V78.13C425.713 78.3791 425.026 79.1017 425.026 80.2923C425.026 81.3146 425.713 82.1696 427.097 82.8563ZM429.275 87.8933V92.411C430.694 92.1921 431.406 91.4801 431.406 90.2793C431.406 89.3076 430.694 88.5086 429.275 87.8933Z" fill="#192736"/>
<path d="M534.071 85.652C532.55 85.652 531.324 85.1686 530.398 84.2071C529.467 83.2403 529.004 81.9432 529.004 80.315C529.004 78.5344 529.497 77.125 530.485 76.0819C531.477 75.0391 532.794 74.5149 534.443 74.5149C536.025 74.5149 537.257 74.9881 538.147 75.9345C539.037 76.8756 539.48 78.2037 539.48 79.9132C539.48 81.6684 538.991 83.0676 538.004 84.1002C537.023 85.1331 535.71 85.652 534.071 85.652ZM534.351 77.1402C532.901 77.1402 532.179 78.1478 532.179 80.1676C532.179 82.0755 532.866 83.0268 534.249 83.0268C535.659 83.0268 536.366 82.0347 536.366 80.0455C536.366 78.107 535.694 77.1402 534.351 77.1402ZM549.675 74.8154L535.756 96.1886H532.118L546.007 74.8154H549.675ZM547.381 96.4887C545.86 96.4887 544.633 96.0053 543.708 95.0389C542.776 94.0774 542.314 92.7798 542.314 91.1516C542.314 89.3711 542.807 87.9617 543.794 86.9189C544.786 85.8758 546.104 85.3519 547.752 85.3519C549.345 85.3519 550.581 85.8198 551.466 86.7511C552.352 87.6869 552.794 89.0098 552.794 90.7192C552.794 92.4745 552.301 93.8789 551.314 94.9217C550.332 95.9648 549.019 96.4887 547.381 96.4887ZM547.62 87.9772C546.18 87.9772 545.458 88.9844 545.458 90.9993C545.458 92.9072 546.16 93.8634 547.559 93.8634C548.968 93.8634 549.675 92.8713 549.675 90.8821C549.675 89.9562 549.487 89.2441 549.111 88.735C548.734 88.2316 548.236 87.9772 547.62 87.9772Z" fill="#192736"/>
<path d="M540.899 106.965C552.753 106.965 562.363 97.3556 562.363 85.5016C562.363 73.6476 552.753 64.0381 540.899 64.0381C529.045 64.0381 519.436 73.6476 519.436 85.5016C519.436 97.3556 529.045 106.965 540.899 106.965Z" stroke="#192736" stroke-width="2.00013" stroke-miterlimit="22.9256"/>
<path d="M32.5996 163.963C44.4536 163.963 54.0631 154.354 54.0631 142.5C54.0631 130.646 44.4536 121.036 32.5996 121.036C20.7456 121.036 11.136 130.646 11.136 142.5C11.136 154.354 20.7456 163.963 32.5996 163.963Z" stroke="#192736" stroke-width="2.00013" stroke-miterlimit="22.9256"/>
<path d="M33.6601 152.899V156.13H31.4823V152.985C29.4626 152.975 27.5853 152.518 25.8505 151.617V147.486C26.4253 147.954 27.2852 148.386 28.4247 148.783C29.5695 149.18 30.587 149.409 31.4823 149.47V144.042C29.1575 143.176 27.5701 142.24 26.7205 141.233C25.8709 140.226 25.4434 138.994 25.4434 137.545C25.4434 135.982 25.9979 134.655 27.1019 133.556C28.2009 132.457 29.661 131.821 31.4823 131.643V128.87H33.6601V131.582C35.7562 131.683 37.3179 132.019 38.3509 132.594V136.619C36.9619 135.774 35.3949 135.26 33.6601 135.072V140.719C35.8326 141.502 37.3943 142.403 38.3407 143.41C39.2818 144.418 39.755 145.639 39.755 147.069C39.755 148.717 39.2258 150.05 38.1729 151.057C37.1195 152.065 35.6137 152.68 33.6601 152.899ZM31.4823 139.854V135.128C30.0987 135.377 29.4119 136.1 29.4119 137.29C29.4119 138.313 30.0987 139.168 31.4823 139.854ZM33.6601 144.891V149.409C35.0793 149.19 35.7918 148.478 35.7918 147.277C35.7918 146.306 35.0793 145.507 33.6601 144.891Z" fill="#192736"/>
<path d="M138.337 142.65C136.816 142.65 135.59 142.167 134.664 141.205C133.733 140.238 133.27 138.941 133.27 137.313C133.27 135.532 133.763 134.123 134.75 133.08C135.743 132.037 137.06 131.513 138.709 131.513C140.291 131.513 141.522 131.986 142.412 132.932C143.303 133.874 143.745 135.202 143.745 136.911C143.745 138.666 143.257 140.066 142.27 141.098C141.288 142.131 139.976 142.65 138.337 142.65ZM138.617 134.138C137.167 134.138 136.445 135.146 136.445 137.165C136.445 139.073 137.131 140.025 138.515 140.025C139.925 140.025 140.632 139.033 140.632 137.043C140.632 135.105 139.96 134.138 138.617 134.138ZM153.941 131.813L140.021 153.187H136.384L150.273 131.813H153.941ZM151.646 153.487C150.126 153.487 148.899 153.003 147.973 152.037C147.042 151.075 146.579 149.778 146.579 148.15C146.579 146.369 147.073 144.96 148.06 143.917C149.052 142.874 150.37 142.35 152.018 142.35C153.61 142.35 154.847 142.818 155.732 143.749C156.617 144.685 157.06 146.008 157.06 147.717C157.06 149.472 156.566 150.877 155.579 151.92C154.597 152.963 153.285 153.487 151.646 153.487ZM151.886 144.975C150.446 144.975 149.723 145.982 149.723 147.997C149.723 149.905 150.426 150.861 151.825 150.861C153.234 150.861 153.941 149.869 153.941 147.88C153.941 146.954 153.753 146.242 153.376 145.733C153 145.229 152.501 144.975 151.886 144.975Z" fill="#192736"/>
<path d="M145.165 163.963C157.019 163.963 166.628 154.354 166.628 142.5C166.628 130.646 157.019 121.036 145.165 121.036C133.311 121.036 123.701 130.646 123.701 142.5C123.701 154.354 133.311 163.963 145.165 163.963Z" stroke="#192736" stroke-width="2.00013" stroke-miterlimit="22.9256"/>
<path d="M257.73 163.963C269.584 163.963 279.193 154.354 279.193 142.5C279.193 130.646 269.584 121.036 257.73 121.036C245.876 121.036 236.266 130.646 236.266 142.5C236.266 154.354 245.876 163.963 257.73 163.963Z" stroke="#192736" stroke-width="2.00013" stroke-miterlimit="22.9256"/>
<path d="M258.79 152.899V156.13H256.613V152.985C254.593 152.975 252.715 152.518 250.981 151.617V147.486C251.556 147.954 252.415 148.386 253.555 148.783C254.7 149.18 255.717 149.409 256.613 149.47V144.042C254.288 143.176 252.7 142.24 251.851 141.233C251.001 140.226 250.574 138.994 250.574 137.545C250.574 135.982 251.128 134.655 252.232 133.556C253.331 132.457 254.791 131.821 256.613 131.643V128.87H258.79V131.582C260.886 131.683 262.448 132.019 263.481 132.594V136.619C262.092 135.774 260.525 135.26 258.79 135.072V140.719C260.963 141.502 262.524 142.403 263.471 143.41C264.412 144.418 264.885 145.639 264.885 147.069C264.885 148.717 264.356 150.05 263.303 151.057C262.25 152.065 260.744 152.68 258.79 152.899ZM256.613 139.854V135.128C255.229 135.377 254.542 136.1 254.542 137.29C254.542 138.313 255.229 139.168 256.613 139.854ZM258.79 144.891V149.409C260.209 149.19 260.922 148.478 260.922 147.277C260.922 146.306 260.209 145.507 258.79 144.891Z" fill="#192736"/>
<path d="M363.467 142.65C361.946 142.65 360.72 142.167 359.794 141.205C358.863 140.238 358.4 138.941 358.4 137.313C358.4 135.532 358.893 134.123 359.881 133.08C360.873 132.037 362.19 131.513 363.839 131.513C365.421 131.513 366.652 131.986 367.542 132.932C368.433 133.874 368.875 135.202 368.875 136.911C368.875 138.666 368.387 140.066 367.4 141.098C366.418 142.131 365.106 142.65 363.467 142.65ZM363.747 134.138C362.297 134.138 361.575 135.146 361.575 137.165C361.575 139.073 362.262 140.025 363.645 140.025C365.055 140.025 365.762 139.033 365.762 137.043C365.762 135.105 365.09 134.138 363.747 134.138ZM379.071 131.813L365.152 153.187H361.514L375.403 131.813H379.071ZM376.777 153.487C375.256 153.487 374.029 153.003 373.104 152.037C372.172 151.075 371.709 149.778 371.709 148.15C371.709 146.369 372.203 144.96 373.19 143.917C374.182 142.874 375.5 142.35 377.148 142.35C378.74 142.35 379.977 142.818 380.862 143.749C381.747 144.685 382.19 146.008 382.19 147.717C382.19 149.472 381.696 150.877 380.71 151.92C379.728 152.963 378.415 153.487 376.777 153.487ZM377.016 144.975C375.576 144.975 374.854 145.982 374.854 147.997C374.854 149.905 375.556 150.861 376.955 150.861C378.364 150.861 379.071 149.869 379.071 147.88C379.071 146.954 378.883 146.242 378.506 145.733C378.13 145.229 377.632 144.975 377.016 144.975Z" fill="#192736"/>
<path d="M370.295 163.963C382.149 163.963 391.759 154.354 391.759 142.5C391.759 130.646 382.149 121.036 370.295 121.036C358.441 121.036 348.831 130.646 348.831 142.5C348.831 154.354 358.441 163.963 370.295 163.963Z" stroke="#192736" stroke-width="2.00013" stroke-miterlimit="22.9256"/>
<path d="M482.861 163.963C494.715 163.963 504.324 154.354 504.324 142.5C504.324 130.646 494.715 121.036 482.861 121.036C471.007 121.036 461.397 130.646 461.397 142.5C461.397 154.354 471.007 163.963 482.861 163.963Z" stroke="#192736" stroke-width="2.00013" stroke-miterlimit="22.9256"/>
<path d="M483.922 152.899V156.13H481.744V152.985C479.724 152.975 477.847 152.518 476.112 151.617V147.486C476.687 147.954 477.547 148.386 478.686 148.783C479.831 149.18 480.848 149.409 481.744 149.47V144.042C479.419 143.176 477.832 142.24 476.982 141.233C476.132 140.226 475.705 138.994 475.705 137.545C475.705 135.982 476.259 134.655 477.363 133.556C478.462 132.457 479.922 131.821 481.744 131.643V128.87H483.922V131.582C486.018 131.683 487.579 132.019 488.612 132.594V136.619C487.223 135.774 485.656 135.26 483.922 135.072V140.719C486.094 141.502 487.656 142.403 488.602 143.41C489.543 144.418 490.016 145.639 490.016 147.069C490.016 148.717 489.487 150.05 488.434 151.057C487.381 152.065 485.875 152.68 483.922 152.899ZM481.744 139.854V135.128C480.36 135.377 479.673 136.1 479.673 137.29C479.673 138.313 480.36 139.168 481.744 139.854ZM483.922 144.891V149.409C485.341 149.19 486.053 148.478 486.053 147.277C486.053 146.306 485.341 145.507 483.922 144.891Z" fill="#192736"/>
<path d="M83.3329 199.648C81.8117 199.648 80.5856 199.164 79.6596 198.203C78.7287 197.236 78.2657 195.939 78.2657 194.311C78.2657 192.53 78.7589 191.121 79.7462 190.078C80.7383 189.035 82.0558 188.511 83.7045 188.511C85.2866 188.511 86.5179 188.984 87.408 189.93C88.2985 190.871 88.7411 192.2 88.7411 193.909C88.7411 195.664 88.2527 197.063 87.2659 198.096C86.284 199.129 84.9714 199.648 83.3329 199.648ZM83.6126 191.136C82.1628 191.136 81.4405 192.144 81.4405 194.163C81.4405 196.071 82.1273 197.023 83.511 197.023C84.9203 197.023 85.6275 196.031 85.6275 194.041C85.6275 192.103 84.9559 191.136 83.6126 191.136ZM98.9367 188.811L85.0171 210.184H81.3793L95.2687 188.811H98.9367ZM96.6422 210.485C95.1213 210.485 93.8948 210.001 92.9692 209.035C92.0379 208.073 91.575 206.776 91.575 205.147C91.575 203.367 92.0686 201.958 93.0554 200.915C94.0475 199.872 95.3654 199.348 97.0137 199.348C98.606 199.348 99.8427 199.816 100.728 200.747C101.613 201.683 102.056 203.006 102.056 204.715C102.056 206.47 101.562 207.875 100.575 208.918C99.5932 209.961 98.2806 210.485 96.6422 210.485ZM96.8814 201.973C95.4418 201.973 94.7191 202.98 94.7191 204.995C94.7191 206.903 95.4214 207.859 96.8206 207.859C98.2296 207.859 98.9367 206.867 98.9367 204.878C98.9367 203.952 98.7485 203.24 98.372 202.731C97.9956 202.227 97.4971 201.973 96.8814 201.973Z" fill="#192736"/>
<path d="M90.1606 220.961C102.015 220.961 111.624 211.351 111.624 199.497C111.624 187.643 102.015 178.034 90.1606 178.034C78.3067 178.034 68.6971 187.643 68.6971 199.497C68.6971 211.351 78.3067 220.961 90.1606 220.961Z" stroke="#192736" stroke-width="2.00013" stroke-miterlimit="22.9256"/>
<path d="M202.845 220.961C214.699 220.961 224.309 211.351 224.309 199.497C224.309 187.643 214.699 178.034 202.845 178.034C190.991 178.034 181.381 187.643 181.381 199.497C181.381 211.351 190.991 220.961 202.845 220.961Z" stroke="#192736" stroke-width="2.00013" stroke-miterlimit="22.9256"/>
<path d="M203.905 209.897V213.128H201.728V209.983C199.708 209.973 197.831 209.515 196.096 208.615V204.484C196.671 204.952 197.531 205.384 198.67 205.781C199.815 206.178 200.832 206.407 201.728 206.468V201.039C199.403 200.174 197.816 199.238 196.966 198.231C196.116 197.224 195.689 195.992 195.689 194.542C195.689 192.98 196.243 191.653 197.347 190.554C198.446 189.454 199.906 188.819 201.728 188.641V185.868H203.905V188.58C206.002 188.681 207.563 189.017 208.596 189.592V193.617C207.207 192.772 205.64 192.258 203.905 192.07V197.717C206.078 198.5 207.64 199.401 208.586 200.408C209.527 201.416 210 202.637 210 204.067C210 205.715 209.471 207.048 208.418 208.055C207.365 209.063 205.859 209.678 203.905 209.897ZM201.728 196.852V192.126C200.344 192.375 199.657 193.098 199.657 194.288C199.657 195.31 200.344 196.165 201.728 196.852ZM203.905 201.889V206.407C205.325 206.188 206.037 205.476 206.037 204.275C206.037 203.303 205.325 202.504 203.905 201.889Z" fill="#192736"/>
<path d="M308.702 199.648C307.181 199.648 305.955 199.164 305.029 198.203C304.098 197.236 303.635 195.939 303.635 194.311C303.635 192.53 304.128 191.121 305.115 190.078C306.107 189.035 307.425 188.511 309.074 188.511C310.656 188.511 311.887 188.984 312.777 189.93C313.668 190.871 314.11 192.2 314.11 193.909C314.11 195.664 313.622 197.063 312.635 198.096C311.653 199.129 310.34 199.648 308.702 199.648ZM308.982 191.136C307.532 191.136 306.81 192.144 306.81 194.163C306.81 196.071 307.496 197.023 308.88 197.023C310.289 197.023 310.997 196.031 310.997 194.041C310.997 192.103 310.325 191.136 308.982 191.136ZM324.306 188.811L310.386 210.184H306.748L320.638 188.811H324.306ZM322.011 210.485C320.49 210.485 319.264 210.001 318.338 209.035C317.407 208.073 316.944 206.776 316.944 205.147C316.944 203.367 317.438 201.958 318.424 200.915C319.417 199.872 320.734 199.348 322.383 199.348C323.975 199.348 325.212 199.816 326.097 200.747C326.982 201.683 327.425 203.006 327.425 204.715C327.425 206.47 326.931 207.875 325.944 208.918C324.962 209.961 323.65 210.485 322.011 210.485ZM322.25 201.973C320.811 201.973 320.088 202.98 320.088 204.995C320.088 206.903 320.79 207.859 322.19 207.859C323.599 207.859 324.306 206.867 324.306 204.878C324.306 203.952 324.118 203.24 323.741 202.731C323.365 202.227 322.866 201.973 322.25 201.973Z" fill="#192736"/>
<path d="M315.53 220.961C327.384 220.961 336.993 211.351 336.993 199.497C336.993 187.643 327.384 178.034 315.53 178.034C303.676 178.034 294.066 187.643 294.066 199.497C294.066 211.351 303.676 220.961 315.53 220.961Z" stroke="#192736" stroke-width="2.00013" stroke-miterlimit="22.9256"/>
<path d="M428.214 220.961C440.068 220.961 449.678 211.351 449.678 199.497C449.678 187.643 440.068 178.034 428.214 178.034C416.36 178.034 406.75 187.643 406.75 199.497C406.75 211.351 416.36 220.961 428.214 220.961Z" stroke="#192736" stroke-width="2.00013" stroke-miterlimit="22.9256"/>
<path d="M429.275 209.897V213.128H427.097V209.983C425.077 209.973 423.2 209.515 421.465 208.615V204.484C422.04 204.952 422.9 205.384 424.039 205.781C425.184 206.178 426.201 206.407 427.097 206.468V201.039C424.772 200.174 423.185 199.238 422.335 198.231C421.485 197.224 421.058 195.992 421.058 194.542C421.058 192.98 421.612 191.653 422.716 190.554C423.815 189.454 425.276 188.819 427.097 188.641V185.868H429.275V188.58C431.371 188.681 432.932 189.017 433.965 189.592V193.617C432.576 192.772 431.009 192.258 429.275 192.07V197.717C431.447 198.5 433.009 199.401 433.955 200.408C434.896 201.416 435.369 202.637 435.369 204.067C435.369 205.715 434.84 207.048 433.787 208.055C432.734 209.063 431.228 209.678 429.275 209.897ZM427.097 196.852V192.126C425.713 192.375 425.026 193.098 425.026 194.288C425.026 195.31 425.713 196.165 427.097 196.852ZM429.275 201.889V206.407C430.694 206.188 431.406 205.476 431.406 204.275C431.406 203.303 430.694 202.504 429.275 201.889Z" fill="#192736"/>
<path d="M534.071 199.648C532.55 199.648 531.324 199.164 530.398 198.203C529.467 197.236 529.004 195.939 529.004 194.311C529.004 192.53 529.497 191.121 530.485 190.078C531.477 189.035 532.794 188.511 534.443 188.511C536.025 188.511 537.257 188.984 538.147 189.93C539.037 190.871 539.48 192.2 539.48 193.909C539.48 195.664 538.991 197.063 538.004 198.096C537.023 199.129 535.71 199.648 534.071 199.648ZM534.351 191.136C532.901 191.136 532.179 192.144 532.179 194.163C532.179 196.071 532.866 197.023 534.249 197.023C535.659 197.023 536.366 196.031 536.366 194.041C536.366 192.103 535.694 191.136 534.351 191.136ZM549.675 188.811L535.756 210.184H532.118L546.007 188.811H549.675ZM547.381 210.485C545.86 210.485 544.633 210.001 543.708 209.035C542.776 208.073 542.314 206.776 542.314 205.147C542.314 203.367 542.807 201.958 543.794 200.915C544.786 199.872 546.104 199.348 547.752 199.348C549.345 199.348 550.581 199.816 551.466 200.747C552.352 201.683 552.794 203.006 552.794 204.715C552.794 206.47 552.301 207.875 551.314 208.918C550.332 209.961 549.019 210.485 547.381 210.485ZM547.62 201.973C546.18 201.973 545.458 202.98 545.458 204.995C545.458 206.903 546.16 207.859 547.559 207.859C548.968 207.859 549.675 206.867 549.675 204.878C549.675 203.952 549.487 203.24 549.111 202.731C548.734 202.227 548.236 201.973 547.62 201.973Z" fill="#192736"/>
<path d="M540.899 220.961C552.753 220.961 562.363 211.351 562.363 199.497C562.363 187.643 552.753 178.034 540.899 178.034C529.045 178.034 519.436 187.643 519.436 199.497C519.436 211.351 529.045 220.961 540.899 220.961Z" stroke="#192736" stroke-width="2.00013" stroke-miterlimit="22.9256"/>
<path d="M32.5996 277.96C44.4536 277.96 54.0631 268.35 54.0631 256.496C54.0631 244.642 44.4536 235.033 32.5996 235.033C20.7456 235.033 11.136 244.642 11.136 256.496C11.136 268.35 20.7456 277.96 32.5996 277.96Z" stroke="#192736" stroke-width="2.00013" stroke-miterlimit="22.9256"/>
<path d="M33.6601 266.895V270.126H31.4823V266.982C29.4626 266.972 27.5853 266.514 25.8505 265.613V261.482C26.4253 261.95 27.2852 262.383 28.4247 262.78C29.5695 263.176 30.587 263.405 31.4823 263.467V258.038C29.1575 257.173 27.5701 256.237 26.7205 255.23C25.8709 254.222 25.4434 252.991 25.4434 251.541C25.4434 249.979 25.9979 248.651 27.1019 247.552C28.2009 246.453 29.661 245.817 31.4823 245.639V242.866H33.6601V245.578C35.7562 245.68 37.3179 246.016 38.3509 246.591V250.615C36.9619 249.77 35.3949 249.257 33.6601 249.068V254.716C35.8326 255.499 37.3943 256.4 38.3407 257.407C39.2818 258.415 39.755 259.635 39.755 261.065C39.755 262.713 39.2258 264.047 38.1729 265.054C37.1195 266.061 35.6137 266.677 33.6601 266.895ZM31.4823 253.851V249.125C30.0987 249.374 29.4119 250.096 29.4119 251.287C29.4119 252.309 30.0987 253.164 31.4823 253.851ZM33.6601 258.888V263.405C35.0793 263.187 35.7918 262.475 35.7918 261.274C35.7918 260.302 35.0793 259.503 33.6601 258.888Z" fill="#192736"/>
<path d="M138.337 256.647C136.816 256.647 135.59 256.164 134.664 255.202C133.733 254.235 133.27 252.938 133.27 251.31C133.27 249.529 133.763 248.12 134.75 247.077C135.743 246.034 137.06 245.51 138.709 245.51C140.291 245.51 141.522 245.983 142.412 246.929C143.303 247.87 143.745 249.199 143.745 250.908C143.745 252.663 143.257 254.063 142.27 255.095C141.288 256.128 139.976 256.647 138.337 256.647ZM138.617 248.135C137.167 248.135 136.445 249.143 136.445 251.162C136.445 253.07 137.131 254.022 138.515 254.022C139.925 254.022 140.632 253.03 140.632 251.04C140.632 249.102 139.96 248.135 138.617 248.135ZM153.941 245.81L140.021 267.184H136.384L150.273 245.81H153.941ZM151.646 267.484C150.126 267.484 148.899 267 147.973 266.034C147.042 265.072 146.579 263.775 146.579 262.147C146.579 260.366 147.073 258.957 148.06 257.914C149.052 256.871 150.37 256.347 152.018 256.347C153.61 256.347 154.847 256.815 155.732 257.746C156.617 258.682 157.06 260.005 157.06 261.714C157.06 263.469 156.566 264.874 155.579 265.917C154.597 266.96 153.285 267.484 151.646 267.484ZM151.886 258.972C150.446 258.972 149.723 259.979 149.723 261.994C149.723 263.902 150.426 264.858 151.825 264.858C153.234 264.858 153.941 263.866 153.941 261.877C153.941 260.951 153.753 260.239 153.376 259.73C153 259.226 152.501 258.972 151.886 258.972Z" fill="#192736"/>
<path d="M145.165 277.96C157.019 277.96 166.628 268.35 166.628 256.496C166.628 244.642 157.019 235.033 145.165 235.033C133.311 235.033 123.701 244.642 123.701 256.496C123.701 268.35 133.311 277.96 145.165 277.96Z" stroke="#192736" stroke-width="2.00013" stroke-miterlimit="22.9256"/>
<path d="M257.73 277.96C269.584 277.96 279.193 268.35 279.193 256.496C279.193 244.642 269.584 235.033 257.73 235.033C245.876 235.033 236.266 244.642 236.266 256.496C236.266 268.35 245.876 277.96 257.73 277.96Z" stroke="#192736" stroke-width="2.00013" stroke-miterlimit="22.9256"/>
<path d="M258.79 266.895V270.126H256.613V266.982C254.593 266.972 252.715 266.514 250.981 265.613V261.482C251.556 261.95 252.415 262.383 253.555 262.78C254.7 263.176 255.717 263.405 256.613 263.467V258.038C254.288 257.173 252.7 256.237 251.851 255.23C251.001 254.222 250.574 252.991 250.574 251.541C250.574 249.979 251.128 248.651 252.232 247.552C253.331 246.453 254.791 245.817 256.613 245.639V242.866H258.79V245.578C260.886 245.68 262.448 246.016 263.481 246.591V250.615C262.092 249.77 260.525 249.257 258.79 249.068V254.716C260.963 255.499 262.524 256.4 263.471 257.407C264.412 258.415 264.885 259.635 264.885 261.065C264.885 262.713 264.356 264.047 263.303 265.054C262.25 266.061 260.744 266.677 258.79 266.895ZM256.613 253.851V249.125C255.229 249.374 254.542 250.096 254.542 251.287C254.542 252.309 255.229 253.164 256.613 253.851ZM258.79 258.888V263.405C260.209 263.187 260.922 262.475 260.922 261.274C260.922 260.302 260.209 259.503 258.79 258.888Z" fill="#192736"/>
<path d="M363.467 256.647C361.946 256.647 360.72 256.164 359.794 255.202C358.863 254.235 358.4 252.938 358.4 251.31C358.4 249.529 358.893 248.12 359.881 247.077C360.873 246.034 362.19 245.51 363.839 245.51C365.421 245.51 366.652 245.983 367.542 246.929C368.433 247.87 368.875 249.199 368.875 250.908C368.875 252.663 368.387 254.063 367.4 255.095C366.418 256.128 365.106 256.647 363.467 256.647ZM363.747 248.135C362.297 248.135 361.575 249.143 361.575 251.162C361.575 253.07 362.262 254.022 363.645 254.022C365.055 254.022 365.762 253.03 365.762 251.04C365.762 249.102 365.09 248.135 363.747 248.135ZM379.071 245.81L365.152 267.184H361.514L375.403 245.81H379.071ZM376.777 267.484C375.256 267.484 374.029 267 373.104 266.034C372.172 265.072 371.709 263.775 371.709 262.147C371.709 260.366 372.203 258.957 373.19 257.914C374.182 256.871 375.5 256.347 377.148 256.347C378.74 256.347 379.977 256.815 380.862 257.746C381.747 258.682 382.19 260.005 382.19 261.714C382.19 263.469 381.696 264.874 380.71 265.917C379.728 266.96 378.415 267.484 376.777 267.484ZM377.016 258.972C375.576 258.972 374.854 259.979 374.854 261.994C374.854 263.902 375.556 264.858 376.955 264.858C378.364 264.858 379.071 263.866 379.071 261.877C379.071 260.951 378.883 260.239 378.506 259.73C378.13 259.226 377.632 258.972 377.016 258.972Z" fill="#192736"/>
<path d="M370.295 277.96C382.149 277.96 391.759 268.35 391.759 256.496C391.759 244.642 382.149 235.033 370.295 235.033C358.441 235.033 348.831 244.642 348.831 256.496C348.831 268.35 358.441 277.96 370.295 277.96Z" stroke="#192736" stroke-width="2.00013" stroke-miterlimit="22.9256"/>
<path d="M482.861 277.96C494.715 277.96 504.324 268.35 504.324 256.496C504.324 244.642 494.715 235.033 482.861 235.033C471.007 235.033 461.397 244.642 461.397 256.496C461.397 268.35 471.007 277.96 482.861 277.96Z" stroke="#192736" stroke-width="2.00013" stroke-miterlimit="22.9256"/>
<path d="M483.922 266.895V270.126H481.744V266.982C479.724 266.972 477.847 266.514 476.112 265.613V261.482C476.687 261.95 477.547 262.383 478.686 262.78C479.831 263.176 480.848 263.405 481.744 263.467V258.038C479.419 257.173 477.832 256.237 476.982 255.23C476.132 254.222 475.705 252.991 475.705 251.541C475.705 249.979 476.259 248.651 477.363 247.552C478.462 246.453 479.922 245.817 481.744 245.639V242.866H483.922V245.578C486.018 245.68 487.579 246.016 488.612 246.591V250.615C487.223 249.77 485.656 249.257 483.922 249.068V254.716C486.094 255.499 487.656 256.4 488.602 257.407C489.543 258.415 490.016 259.635 490.016 261.065C490.016 262.713 489.487 264.047 488.434 265.054C487.381 266.061 485.875 266.677 483.922 266.895ZM481.744 253.851V249.125C480.36 249.374 479.673 250.096 479.673 251.287C479.673 252.309 480.36 253.164 481.744 253.851ZM483.922 258.888V263.405C485.341 263.187 486.053 262.475 486.053 261.274C486.053 260.302 485.341 259.503 483.922 258.888Z" fill="#192736"/>
<path fill-rule="evenodd" clip-rule="evenodd" d="M557.573 -3.2504H928.506V288.25H557.573V-3.2504Z" fill="#061724"/>
</g>
<path d="M556.578 43.6872V241.688" stroke="#FEFEFE" stroke-width="2.00013" stroke-miterlimit="22.9256" stroke-linecap="round" stroke-linejoin="round" stroke-dasharray="10 10"/>
<path d="M135.114 137.75H125.159C124.977 136.462 124.606 135.318 124.045 134.318C123.485 133.303 122.765 132.439 121.886 131.727C121.008 131.015 119.992 130.47 118.841 130.091C117.705 129.712 116.47 129.523 115.136 129.523C112.727 129.523 110.629 130.121 108.841 131.318C107.053 132.5 105.667 134.227 104.682 136.5C103.697 138.758 103.205 141.5 103.205 144.727C103.205 148.045 103.697 150.833 104.682 153.091C105.682 155.348 107.076 157.053 108.864 158.205C110.652 159.356 112.72 159.932 115.068 159.932C116.386 159.932 117.606 159.758 118.727 159.409C119.864 159.061 120.871 158.553 121.75 157.886C122.629 157.205 123.356 156.379 123.932 155.409C124.523 154.439 124.932 153.333 125.159 152.091L135.114 152.136C134.856 154.273 134.212 156.333 133.182 158.318C132.167 160.288 130.795 162.053 129.068 163.614C127.356 165.159 125.311 166.386 122.932 167.295C120.568 168.189 117.894 168.636 114.909 168.636C110.758 168.636 107.045 167.697 103.773 165.818C100.515 163.939 97.9394 161.22 96.0455 157.659C94.1667 154.098 93.2273 149.788 93.2273 144.727C93.2273 139.652 94.1818 135.333 96.0909 131.773C98 128.212 100.591 125.5 103.864 123.636C107.136 121.758 110.818 120.818 114.909 120.818C117.606 120.818 120.106 121.197 122.409 121.955C124.727 122.712 126.78 123.818 128.568 125.273C130.356 126.712 131.811 128.477 132.932 130.568C134.068 132.659 134.795 135.053 135.114 137.75ZM149.318 168H138.773L154.841 121.455H167.523L183.568 168H173.023L161.364 132.091H161L149.318 168ZM148.659 149.705H173.568V157.386H148.659V149.705ZM213.358 134.841C213.176 133.008 212.396 131.583 211.017 130.568C209.638 129.553 207.767 129.045 205.403 129.045C203.797 129.045 202.441 129.273 201.335 129.727C200.229 130.167 199.381 130.78 198.79 131.568C198.214 132.356 197.926 133.25 197.926 134.25C197.896 135.083 198.07 135.811 198.449 136.432C198.843 137.053 199.381 137.591 200.062 138.045C200.744 138.485 201.532 138.871 202.426 139.205C203.32 139.523 204.275 139.795 205.29 140.023L209.472 141.023C211.502 141.477 213.366 142.083 215.062 142.841C216.759 143.598 218.229 144.53 219.472 145.636C220.714 146.742 221.676 148.045 222.358 149.545C223.055 151.045 223.411 152.765 223.426 154.705C223.411 157.553 222.684 160.023 221.244 162.114C219.82 164.189 217.759 165.803 215.062 166.955C212.381 168.091 209.146 168.659 205.358 168.659C201.6 168.659 198.328 168.083 195.54 166.932C192.767 165.78 190.6 164.076 189.04 161.818C187.494 159.545 186.684 156.735 186.608 153.386H196.131C196.237 154.947 196.684 156.25 197.472 157.295C198.275 158.326 199.343 159.106 200.676 159.636C202.025 160.152 203.547 160.409 205.244 160.409C206.911 160.409 208.358 160.167 209.585 159.682C210.828 159.197 211.79 158.523 212.472 157.659C213.153 156.795 213.494 155.803 213.494 154.682C213.494 153.636 213.184 152.758 212.562 152.045C211.956 151.333 211.063 150.727 209.881 150.227C208.714 149.727 207.282 149.273 205.585 148.864L200.517 147.591C196.593 146.636 193.494 145.144 191.222 143.114C188.949 141.083 187.82 138.348 187.835 134.909C187.82 132.091 188.57 129.629 190.085 127.523C191.616 125.417 193.714 123.773 196.381 122.591C199.047 121.409 202.078 120.818 205.472 120.818C208.926 120.818 211.941 121.409 214.517 122.591C217.108 123.773 219.123 125.417 220.562 127.523C222.002 129.629 222.744 132.068 222.79 134.841H213.358ZM230.045 168V121.455H239.886V140.659H259.864V121.455H269.682V168H259.864V148.773H239.886V168H230.045ZM277.795 168V121.455H296.432C299.856 121.455 302.712 121.962 305 122.977C307.288 123.992 309.008 125.402 310.159 127.205C311.311 128.992 311.886 131.053 311.886 133.386C311.886 135.205 311.523 136.803 310.795 138.182C310.068 139.545 309.068 140.667 307.795 141.545C306.538 142.409 305.098 143.023 303.477 143.386V143.841C305.25 143.917 306.909 144.417 308.455 145.341C310.015 146.265 311.28 147.561 312.25 149.227C313.22 150.879 313.705 152.848 313.705 155.136C313.705 157.606 313.091 159.811 311.864 161.75C310.652 163.674 308.856 165.197 306.477 166.318C304.098 167.439 301.167 168 297.682 168H277.795ZM287.636 159.955H295.659C298.402 159.955 300.402 159.432 301.659 158.386C302.917 157.326 303.545 155.917 303.545 154.159C303.545 152.871 303.235 151.735 302.614 150.75C301.992 149.765 301.106 148.992 299.955 148.432C298.818 147.871 297.462 147.591 295.886 147.591H287.636V159.955ZM287.636 140.932H294.932C296.28 140.932 297.477 140.697 298.523 140.227C299.583 139.742 300.417 139.061 301.023 138.182C301.644 137.303 301.955 136.25 301.955 135.023C301.955 133.341 301.356 131.985 300.159 130.955C298.977 129.924 297.295 129.409 295.114 129.409H287.636V140.932ZM328.131 168H317.585L333.653 121.455H346.335L362.381 168H351.835L340.176 132.091H339.812L328.131 168ZM327.472 149.705H352.381V157.386H327.472V149.705ZM406.864 137.75H396.909C396.727 136.462 396.356 135.318 395.795 134.318C395.235 133.303 394.515 132.439 393.636 131.727C392.758 131.015 391.742 130.47 390.591 130.091C389.455 129.712 388.22 129.523 386.886 129.523C384.477 129.523 382.379 130.121 380.591 131.318C378.803 132.5 377.417 134.227 376.432 136.5C375.447 138.758 374.955 141.5 374.955 144.727C374.955 148.045 375.447 150.833 376.432 153.091C377.432 155.348 378.826 157.053 380.614 158.205C382.402 159.356 384.47 159.932 386.818 159.932C388.136 159.932 389.356 159.758 390.477 159.409C391.614 159.061 392.621 158.553 393.5 157.886C394.379 157.205 395.106 156.379 395.682 155.409C396.273 154.439 396.682 153.333 396.909 152.091L406.864 152.136C406.606 154.273 405.962 156.333 404.932 158.318C403.917 160.288 402.545 162.053 400.818 163.614C399.106 165.159 397.061 166.386 394.682 167.295C392.318 168.189 389.644 168.636 386.659 168.636C382.508 168.636 378.795 167.697 375.523 165.818C372.265 163.939 369.689 161.22 367.795 157.659C365.917 154.098 364.977 149.788 364.977 144.727C364.977 139.652 365.932 135.333 367.841 131.773C369.75 128.212 372.341 125.5 375.614 123.636C378.886 121.758 382.568 120.818 386.659 120.818C389.356 120.818 391.856 121.197 394.159 121.955C396.477 122.712 398.53 123.818 400.318 125.273C402.106 126.712 403.561 128.477 404.682 130.568C405.818 132.659 406.545 135.053 406.864 137.75ZM413.92 168V121.455H423.761V141.977H424.375L441.125 121.455H452.92L435.648 142.295L453.125 168H441.352L428.602 148.864L423.761 154.773V168H413.92Z" fill="white"/>
</svg>
