<svg width="37" height="29" viewBox="0 0 37 29" fill="none" xmlns="http://www.w3.org/2000/svg">
<path d="M36.7809 8.39433L18.3904 28.7153L0 8.39433L8.49676 0H28.2845L36.7809 8.39433Z" fill="#A683BA"/>
<path d="M9.76025 8.39433H0L8.49676 0L9.76025 8.39433Z" fill="#1574D9"/>
<path d="M18.3904 28.7153L0 8.39508H9.76025L18.3904 28.7153Z" fill="#3589E3"/>
<path d="M18.3904 28.7153L9.76025 8.39508H27.0206L18.3904 28.7153Z" fill="#1375E1"/>
<path d="M27.0206 8.39433H9.76025L18.3904 0L27.0206 8.39433Z" fill="#1B7AE0"/>
<path d="M36.7808 8.39433H27.0206L28.2844 0L36.7808 8.39433Z" fill="#1574D9"/>
<path d="M36.7809 8.39508L18.3904 28.7153L27.0206 8.39508H36.7809Z" fill="#3589E3"/>
<path d="M18.3904 0L9.76026 8.39433L8.49677 0H18.3904Z" fill="#166ECC"/>
<path d="M28.2845 0L27.0206 8.39433L18.3904 0H28.2845Z" fill="#166ECC"/>
</svg>
