<?xml version="1.0" encoding="UTF-8"?>
<!DOCTYPE svg PUBLIC "-//W3C//DTD SVG 1.1//EN" "http://www.w3.org/Graphics/SVG/1.1/DTD/svg11.dtd">
<!-- Creator: CorelDRAW 2020 (64-Bit) -->
<svg xmlns="http://www.w3.org/2000/svg" xml:space="preserve" width="12.7mm" height="12.7mm" version="1.1" style="shape-rendering:geometricPrecision; text-rendering:geometricPrecision; image-rendering:optimizeQuality; fill-rule:evenodd; clip-rule:evenodd"
viewBox="0 0 1270 1270"
 xmlns:xlink="http://www.w3.org/1999/xlink"
 xmlns:xodm="http://www.corel.com/coreldraw/odm/2003">
 <defs>
  <style type="text/css">
   <![CDATA[
    .fil0 {fill:#1375E1}
    .fil1 {fill:#FEFEFE;fill-rule:nonzero}
   ]]>
  </style>
 </defs>
 <g id="Слой_x0020_1">
  <metadata id="CorelCorpID_0Corel-Layer"/>
  <g id="_2141766386896">
   <path class="fil0" d="M634.99 69.24c312.47,0 565.77,253.29 565.77,565.77 0,312.46 -253.3,565.76 -565.77,565.76 -312.46,0 -565.76,-253.3 -565.76,-565.76 0,-312.48 253.3,-565.77 565.76,-565.77z"/>
   <path class="fil1" d="M498.03 802.58l0 381.46c43.86,10.9 89.73,16.73 136.96,16.73 20.96,0 41.63,-1.18 62,-3.4l0 -394.79 148.37 0 30.88 -167.75 -179.25 0 0 -59.36c0,-88.67 34.82,-122.63 124.7,-122.63 27.96,0 50.43,0.69 63.46,2.06l0 -152.14c-24.53,-6.7 -84.56,-13.55 -119.21,-13.55 -183.35,0 -267.91,86.61 -267.91,273.4l0 72.22 -113.2 0 0 167.75 113.2 0z"/>
  </g>
 </g>
</svg>
