<?xml version="1.0" encoding="UTF-8"?>
<!DOCTYPE svg PUBLIC "-//W3C//DTD SVG 1.1//EN" "http://www.w3.org/Graphics/SVG/1.1/DTD/svg11.dtd">
<!-- Creator: CorelDRAW 2020 (64-Bit) -->
<svg xmlns="http://www.w3.org/2000/svg" xml:space="preserve" width="12.7mm" height="12.7mm" version="1.1" style="shape-rendering:geometricPrecision; text-rendering:geometricPrecision; image-rendering:optimizeQuality; fill-rule:evenodd; clip-rule:evenodd"
viewBox="0 0 1270 1270"
 xmlns:xlink="http://www.w3.org/1999/xlink"
 xmlns:xodm="http://www.corel.com/coreldraw/odm/2003">
 <defs>
  <style type="text/css">
   <![CDATA[
    .fil0 {fill:#BA1118}
    .fil1 {fill:#FEFEFE;fill-rule:nonzero}
   ]]>
  </style>
 </defs>
 <g id="Слой_x0020_1">
  <metadata id="CorelCorpID_0Corel-Layer"/>
  <g id="_2184464500240">
   <path class="fil0" d="M635.01 69.24c312.46,0 565.76,253.29 565.76,565.77 0,312.46 -253.3,565.76 -565.76,565.76 -312.46,0 -565.77,-253.3 -565.77,-565.76 0,-312.48 253.31,-565.77 565.77,-565.77z"/>
   <path class="fil1" d="M998.18 643.62c0,210.62 -144.23,360.49 -357.22,360.49 -204.2,0 -369.12,-164.91 -369.12,-369.11 0,-204.21 164.92,-369.13 369.12,-369.13 99.43,0 183.08,36.46 247.52,96.6l-100.46 96.6c-131.43,-126.81 -375.82,-31.55 -375.82,175.93 0,128.75 102.85,233.08 228.76,233.08 146.16,0 200.94,-104.79 209.57,-159.11l-209.57 0 0 -126.97 351.41 0c3.43,18.91 5.81,37.06 5.81,61.62z"/>
  </g>
 </g>
</svg>
