<svg width="189" height="326" viewBox="0 0 189 326" fill="none" xmlns="http://www.w3.org/2000/svg">
<g clip-path="url(#clip0_2_26)">
<path fill-rule="evenodd" clip-rule="evenodd" d="M0 319.922V5.865C0 2.63925 2.63925 0 5.865 0H64.4685C64.4685 16.4576 77.8098 29.7989 94.2674 29.7989C110.725 29.7989 124.066 16.4576 124.066 0H182.67C185.895 0 188.535 2.63925 188.535 5.865V319.922C188.535 323.148 185.895 325.787 182.67 325.787H124.066C124.066 309.33 110.725 295.989 94.2674 295.989C77.8098 295.989 64.4685 309.33 64.4685 325.787H5.865C2.63925 325.787 0 323.148 0 319.922Z" fill="#1E2D3C"/>
<mask id="mask0_2_26" style="mask-type:luminance" maskUnits="userSpaceOnUse" x="0" y="0" width="189" height="326">
<path d="M0 319.922V5.865C0 2.63925 2.63925 0 5.865 0H64.4685C64.4685 16.4576 77.8098 29.7989 94.2674 29.7989C110.725 29.7989 124.066 16.4576 124.066 0H182.67C185.895 0 188.535 2.63925 188.535 5.865V319.922C188.535 323.148 185.895 325.787 182.67 325.787H124.066C124.066 309.33 110.725 295.989 94.2674 295.989C77.8098 295.989 64.4685 309.33 64.4685 325.787H5.865C2.63925 325.787 0 323.148 0 319.922Z" fill="white"/>
</mask>
<g mask="url(#mask0_2_26)">
<path fill-rule="evenodd" clip-rule="evenodd" d="M-28.0022 -16.6719C-11.8637 -2.72843 2.37694 13.3522 14.2798 31.1302L-28.0022 59.3374V-16.6719Z" fill="#0C202E"/>
<path fill-rule="evenodd" clip-rule="evenodd" d="M-28.0022 59.3374L14.2798 31.1302C31.3383 56.6078 43.5954 85.5715 49.7568 116.727L-28.0022 132.135V59.3374Z" fill="#1E2D3C"/>
<path fill-rule="evenodd" clip-rule="evenodd" d="M-28.0022 132.135L49.7568 116.727C52.7194 131.708 54.2728 147.195 54.2728 163.045C54.2728 178.913 52.7158 194.418 49.747 209.414L-28.0022 193.889V132.135Z" fill="#0C202E"/>
<path fill-rule="evenodd" clip-rule="evenodd" d="M-28.0022 193.889L49.747 209.414C43.5758 240.583 31.3035 269.557 14.2262 295.041L-28.0022 266.78V193.889Z" fill="#1E2D3C"/>
<path fill-rule="evenodd" clip-rule="evenodd" d="M-28.0022 266.78L14.2262 295.041C2.33432 312.787 -11.8879 328.84 -28.0022 342.763V266.78Z" fill="#0C202E"/>
<path fill-rule="evenodd" clip-rule="evenodd" d="M-28.0022 -16.6719V-69.0542L49.1515 -184.339C95.0709 -153.582 134.056 -114.181 164.251 -68.9181L14.2798 31.1302C2.37694 13.3522 -11.8637 -2.72847 -28.0022 -16.6719Z" fill="#0C202E"/>
<path fill-rule="evenodd" clip-rule="evenodd" d="M-28.0022 342.763C-11.8879 328.84 2.33432 312.787 14.2262 295.041L164.001 395.276C133.243 441.196 93.8428 480.181 48.5791 510.377L-28.0022 395.582V342.763Z" fill="#0C202E"/>
<path fill-rule="evenodd" clip-rule="evenodd" d="M164.001 395.276L14.2262 295.041C31.3035 269.557 43.5758 240.583 49.747 209.414L226.391 244.685C215.301 300.227 193.672 350.978 164.001 395.276Z" fill="#1E2D3C"/>
<path fill-rule="evenodd" clip-rule="evenodd" d="M226.391 244.685L49.7469 209.414C52.7158 194.418 54.2728 178.913 54.2728 163.045C54.2728 147.195 52.7193 131.708 49.7567 116.727L226.618 81.6823C237.002 133.978 237.481 189.145 226.391 244.685Z" fill="#0C202E"/>
<path fill-rule="evenodd" clip-rule="evenodd" d="M226.618 81.6822L49.7568 116.727C43.5954 85.5715 31.3383 56.6078 14.2798 31.1302L164.251 -68.9181C194.447 -23.6548 215.854 27.472 226.618 81.6822Z" fill="#1E2D3C"/>
</g>
<path d="M145.346 184.871C143.553 184.871 142.24 183.87 141.414 181.885C140.363 179.361 138.933 172.063 139.331 163.992C139.848 153.491 140.619 142.239 142.788 140.601C143.129 140.344 143.653 140.2 144.381 140.2C145.573 140.2 146.238 140.683 146.356 141.648C146.41 141.985 146.438 142.321 146.438 142.658C146.438 143.086 146.416 143.506 146.356 143.914C145.136 152.124 143.931 160.843 144.309 169.172C144.671 177.084 146.054 180.809 146.878 180.809C147.758 180.809 150.034 178.161 150.408 177.514C150.584 177.208 150.721 176.852 150.918 176.58C151.158 176.25 151.445 176.084 151.816 176.003C152.144 175.931 152.54 175.906 153.027 176.166C153.648 176.499 154.062 177.186 153.882 177.905C153.361 179.983 149.965 183.104 147.922 184.213C147.086 184.666 146.239 184.871 145.346 184.871Z" fill="#FEFEFE"/>
<path d="M133.61 180.657C131.835 180.657 131.758 180.069 131.579 179.005C131.071 175.999 130.111 168.915 130.251 165.958C129.387 168.952 128.613 171.2 127.93 172.711C126.565 175.77 124.927 177.298 123.024 177.298C119.884 177.298 118.31 174.868 118.31 170.017C118.31 167.796 118.51 165.739 118.92 163.855C119.866 159.377 121.577 156.347 124.071 154.763C125.263 154.017 126.556 153.644 127.957 153.644C129.277 153.644 130.351 154.053 131.189 154.872L131.398 153.38C131.544 152.378 131.807 151.714 132.19 151.377C132.572 151.04 133.218 150.867 134.119 150.867C135.457 150.867 136.122 151.395 136.122 152.442C136.122 152.706 136.089 153.005 136.04 153.325C134.522 163.078 134.641 167.61 136.094 177.398C136.21 178.179 136.258 178.727 136.258 179.027C136.258 180.111 135.375 180.657 133.61 180.657ZM125.095 171.629C125.756 170.519 126.597 168.723 127.548 166.224C129.119 162.093 130.073 157.672 128.651 156.806C123.714 153.807 121.864 166.25 122.01 169.356C122.103 171.352 123.222 174.775 125.095 171.629Z" fill="#FEFEFE"/>
<path d="M112.012 182.604C110.437 182.604 109.645 182.095 109.645 181.085C109.645 180.693 109.691 180.12 109.773 179.373C109.955 177.635 110.119 174.904 110.283 171.191C110.41 168.488 110.464 166.013 110.464 163.773C110.464 159.141 109.873 156.82 108.68 156.82C108.044 156.82 107.352 157.985 106.605 160.306C106.014 162.126 105.549 165.212 105.213 169.562C104.876 173.921 104.612 176.534 104.412 177.398C104.184 178.417 103.256 178.918 101.645 178.918C100.098 178.918 99.3242 178.363 99.3242 177.244C99.3242 176.616 99.3605 176.024 99.4334 175.451C99.8704 171.773 100.098 168.661 100.098 166.122C100.098 165.248 100.053 164.301 99.9614 163.272C99.8703 162.235 99.588 161.726 99.1058 161.726C97.3207 161.726 95.824 163.836 94.7789 165.395C92.7561 168.412 91.696 172.156 92.0172 174.87C92.1669 176.137 92.3544 177.578 92.4409 178.345C92.6159 179.893 91.2481 180.374 89.8338 180.37C88.5265 180.366 87.1847 179.997 86.8159 178.468C86.0981 175.494 86.21 169.016 86.2293 165.151C86.2368 163.606 86.2157 162.643 86.9035 161.236C87.6621 159.684 89.056 157.942 90.3044 158.635C91.5841 159.345 91.3793 160.515 91.323 161.763C91.253 163.316 91.1313 165.291 91.651 165.86C92.1563 166.415 92.2554 165.487 92.3642 165.144C93.893 160.335 97.4031 157.803 100.362 157.803C102.018 157.803 103.183 158.886 103.857 161.052C104.458 158.795 105.167 156.938 105.986 155.482C106.933 153.843 108.089 153.034 109.454 153.034C111.356 153.034 112.685 153.834 113.432 155.427C114.797 158.349 115.479 162.954 115.479 169.271C115.479 172.256 115.397 174.795 115.243 176.879C115.079 178.973 114.924 180.374 114.76 181.085C114.533 182.095 113.613 182.604 112.012 182.604Z" fill="#FEFEFE"/>
<path d="M81.2395 184.906C79.5557 184.906 78.618 184.316 78.4181 183.254C78.0001 181.031 77.7718 178.398 77.7718 175.249C77.7718 173.829 77.7098 167.259 77.7809 165.639C78.0092 160.451 78.3909 156.101 78.928 152.579C79.0735 151.578 79.3373 150.913 79.7289 150.576C80.12 150.239 80.7663 150.067 81.6764 150.067C82.441 150.067 82.96 150.203 83.2329 150.467C83.5057 150.74 83.6516 151.122 83.6516 151.614C83.6516 151.887 83.624 152.187 83.5696 152.524C83.3693 153.789 83.2147 155.109 83.0873 156.501C84.9166 153.798 87.0736 151.805 89.5673 150.522C90.0681 150.258 90.505 150.121 90.8962 150.121C91.2693 150.121 91.5879 150.23 91.8335 150.44C92.2614 150.803 92.4708 151.24 92.4708 151.777C92.4708 152.634 92.0429 153.188 91.1967 153.443C90.341 153.698 89.2306 154.399 87.8563 155.537C86.4912 156.675 85.1895 158.131 83.9699 159.914C83.2238 161.016 82.8266 162.118 82.8232 163.218C82.8095 167.487 82.8579 176.183 83.2283 179.313C83.4842 181.478 83.7019 182.858 83.7019 183.358C83.7019 184.387 82.9872 184.906 81.2395 184.906Z" fill="#FEFEFE"/>
<path d="M67.278 178.044C65.2439 178.044 63.3454 177.149 61.9738 175.708C60.4133 174.069 59.8977 172.134 59.7964 170.088C59.6388 166.898 60.0508 163.07 61.1525 160.06C61.7988 158.285 62.6727 156.838 63.7646 155.7C64.8568 154.563 66.1218 153.99 67.5418 153.99C70.0994 153.99 72.0289 155.537 73.3305 158.631C74.1949 160.724 74.6318 163.082 74.6318 165.694C74.6318 166.513 74.5589 167.541 74.4043 168.788C74.009 172.178 70.9517 178.044 67.278 178.044ZM69.9811 172.511C70.4725 171.719 70.8455 170.7 71.1097 169.452C71.4192 168.051 71.5648 166.631 71.5648 165.193C71.5648 163.91 71.4555 162.672 71.2461 161.471C71.0367 160.269 70.6819 159.268 70.1811 158.468C69.6807 157.666 69.0525 157.266 68.2883 157.266C64.5824 157.266 62.3359 168.307 65.0405 172.511C65.8357 173.747 68.8306 174.364 69.9811 172.511Z" fill="#FEFEFE"/>
<path d="M54.736 185.799C49.8551 185.799 43.9571 165.099 40.5401 155.811C39.2675 152.352 38.9394 151.246 38.7796 155.519C38.6904 157.912 38.8446 160.215 38.8446 162.627C38.8446 164.456 38.8722 166.294 38.9266 168.124C39.0906 173.402 39.3181 177.325 39.6182 179.883C39.6549 180.202 39.673 180.584 39.673 181.03C39.673 182.413 38.8812 183.105 37.2976 183.105C35.7321 183.105 34.8583 182.376 34.658 180.92C34.2668 177.917 34.0756 174.331 34.0756 170.172C34.0756 168.397 34.1118 166.513 34.1848 164.52C34.4123 157.894 34.7763 152.232 35.2771 147.536C35.3954 146.271 35.6229 145.398 35.9506 144.915C36.2779 144.424 36.7696 144.178 37.4068 144.178C38.2259 144.178 38.8264 144.405 39.2089 144.861C39.591 145.306 39.9641 145.917 40.3375 146.681C42.2412 150.549 47.5118 164.216 50.2814 171.402C50.7811 172.698 51.0955 173.658 51.3174 174.332C51.8469 175.937 52.4792 175.855 52.737 175.158C52.9649 174.54 52.7835 173.497 52.7495 172.818C52.4686 167.189 53.3837 159.208 55.2549 154.426C57.0184 149.918 59.6252 146.865 61.2129 145.137C61.6431 144.669 62.1552 144.261 62.611 143.891C63.5759 143.107 64.5533 142.663 65.8066 143.385C66.9767 144.06 67.1324 145.512 66.5228 146.471C66.0575 147.203 64.5404 147.893 63.6213 148.877C55.496 157.581 56.3702 170.088 57.7074 181.153C57.7774 181.733 57.8167 182.314 57.8167 182.778C57.8167 183.523 57.3635 184.696 56.961 185.097C56.4919 185.564 55.7493 185.799 54.736 185.799Z" fill="#FEFEFE"/>
<path d="M123.776 132.91C124.246 132.622 124.558 132.099 124.558 131.51C124.558 130.599 123.821 129.862 122.911 129.862C122 129.862 121.263 130.599 121.263 131.51C121.263 132.103 121.576 132.622 122.045 132.91L119.685 137.632C119.31 138.381 118.338 138.595 117.683 138.072L114.013 135.135C114.219 134.859 114.342 134.517 114.342 134.146C114.342 133.236 113.605 132.499 112.694 132.499C111.784 132.499 111.047 133.236 111.047 134.146C111.047 135.056 111.784 135.794 112.694 135.794C112.703 135.794 112.715 135.794 112.723 135.794L114.606 146.15C114.833 147.403 115.924 148.317 117.201 148.317H128.62C129.893 148.317 130.985 147.407 131.216 146.15L133.098 135.794C133.106 135.794 133.119 135.794 133.127 135.794C134.037 135.794 134.775 135.056 134.775 134.146C134.775 133.236 134.037 132.499 133.127 132.499C132.216 132.499 131.479 133.236 131.479 134.146C131.479 134.517 131.603 134.859 131.809 135.135L128.138 138.072C127.483 138.595 126.511 138.381 126.136 137.632L123.776 132.91Z" fill="#1375E1"/>
</g>
<defs>
<clipPath id="clip0_2_26">
<rect width="189" height="326" fill="white"/>
</clipPath>
</defs>
</svg>
