<?xml version="1.0" encoding="UTF-8"?>
<!DOCTYPE svg PUBLIC "-//W3C//DTD SVG 1.1//EN" "http://www.w3.org/Graphics/SVG/1.1/DTD/svg11.dtd">
<!-- Creator: CorelDRAW 2020 (64-Bit) -->
<svg xmlns="http://www.w3.org/2000/svg" xml:space="preserve" width="38.1mm" height="12.7mm" version="1.1" style="shape-rendering:geometricPrecision; text-rendering:geometricPrecision; image-rendering:optimizeQuality; fill-rule:evenodd; clip-rule:evenodd"
viewBox="0 0 3810 1270"
 xmlns:xlink="http://www.w3.org/1999/xlink"
 xmlns:xodm="http://www.corel.com/coreldraw/odm/2003">
 <defs>
  <style type="text/css">
   <![CDATA[
    .fil0 {fill:#FEFEFE;fill-rule:nonzero}
   ]]>
  </style>
 </defs>
 <g id="Слой_x0020_1">
  <metadata id="CorelCorpID_0Corel-Layer"/>
  <g id="_2178732911264">
   <path class="fil0" d="M3263.52 1213.66c-47.44,0 -82.17,-26.47 -104.03,-78.99 -27.8,-66.78 -65.63,-259.87 -55.11,-473.42 13.69,-277.84 34.07,-575.55 91.47,-618.88 9.01,-6.81 22.88,-10.61 42.14,-10.61 31.55,0 49.13,12.76 52.26,38.29 1.44,8.92 2.17,17.82 2.17,26.73 0,11.33 -0.57,22.43 -2.17,33.24 -32.28,217.21 -64.17,447.91 -54.15,668.27 9.56,209.36 46.17,307.9 67.96,307.9 23.29,0 83.52,-70.05 93.4,-87.17 4.66,-8.09 8.29,-17.51 13.5,-24.71 6.35,-8.74 13.94,-13.14 23.76,-15.28 8.68,-1.91 19.15,-2.57 32.04,4.33 16.42,8.8 27.37,26.97 22.61,46 -13.78,54.98 -103.64,137.57 -157.69,166.9 -22.11,11.99 -44.52,17.4 -68.16,17.4z"/>
   <path class="fil0" d="M2953.01 1102.17c-46.96,0 -48.99,-15.54 -53.74,-43.71 -13.42,-79.53 -38.83,-266.95 -35.12,-345.2 -22.88,79.22 -43.35,138.71 -61.41,178.68 -36.12,80.92 -79.47,121.36 -129.8,121.36 -83.08,0 -124.74,-64.29 -124.74,-192.64 0,-58.76 5.3,-113.19 16.14,-163.03 25.04,-118.48 70.31,-198.67 136.3,-240.57 31.54,-19.74 65.74,-29.61 102.82,-29.61 34.92,0 63.34,10.83 85.49,32.5l5.54 -39.49c3.85,-26.49 10.83,-44.08 20.95,-52.98 10.11,-8.91 27.21,-13.49 51.05,-13.49 35.4,0 52.98,13.97 52.98,41.67 0,6.97 -0.86,14.9 -2.17,23.35 -40.15,258.05 -37.01,377.95 1.45,636.94 3.07,20.67 4.33,35.17 4.33,43.11 0,28.66 -23.36,43.11 -70.07,43.11zm-225.29 -238.85c17.5,-29.39 39.75,-76.89 64.9,-143.03 41.57,-109.28 66.82,-226.27 29.18,-249.16 -130.62,-79.37 -179.57,249.87 -175.71,332.05 2.48,52.8 32.07,143.38 81.63,60.14z"/>
   <path class="fil0" d="M2381.56 1153.7c-41.66,0 -62.61,-13.48 -62.61,-40.21 0,-10.36 1.2,-25.53 3.37,-45.28 4.82,-45.99 9.15,-118.24 13.49,-216.48 3.37,-71.53 4.81,-137.02 4.81,-196.27 0,-122.56 -15.65,-183.98 -47.2,-183.98 -16.85,0 -35.16,30.83 -54.9,92.23 -15.65,48.17 -27.94,129.81 -36.85,244.91 -8.91,115.34 -15.89,184.46 -21.19,207.33 -6.02,26.97 -30.58,40.22 -73.2,40.22 -40.94,0 -61.41,-14.69 -61.41,-44.3 0,-16.62 0.96,-32.28 2.89,-47.45 11.56,-97.29 17.58,-179.64 17.58,-246.82 0,-23.13 -1.2,-48.18 -3.61,-75.39 -2.41,-27.45 -9.88,-40.93 -22.64,-40.93 -47.23,0 -86.83,55.83 -114.48,97.08 -53.52,79.84 -81.57,178.89 -73.07,250.7 3.96,33.52 8.92,71.64 11.21,91.94 4.63,40.96 -31.56,53.68 -68.98,53.57 -34.59,-0.09 -70.09,-9.87 -79.85,-50.31 -18.99,-78.69 -16.03,-250.09 -15.52,-352.34 0.2,-40.89 -0.36,-66.36 17.84,-103.6 20.07,-41.05 56.95,-87.15 89.98,-68.82 33.86,18.8 28.44,49.76 26.95,82.78 -1.85,41.07 -5.07,93.33 8.68,108.38 13.37,14.7 15.99,-9.86 18.87,-18.93 40.45,-127.25 133.32,-194.24 211.6,-194.24 43.83,0 74.65,28.65 92.47,85.98 15.9,-59.74 34.68,-108.85 56.35,-147.38 25.05,-43.36 55.63,-64.78 91.75,-64.78 50.33,0 85.49,21.18 105.24,63.33 36.12,77.3 54.18,199.15 54.18,366.27 0,78.98 -2.17,146.17 -6.26,201.31 -4.34,55.39 -8.43,92.48 -12.77,111.27 -6.02,26.73 -30.34,40.21 -72.72,40.21z"/>
   <path class="fil0" d="M1567.38 1214.59c-44.55,0 -69.36,-15.61 -74.65,-43.71 -11.06,-58.8 -17.1,-128.47 -17.1,-211.79 0,-37.57 -1.64,-211.41 0.24,-254.26 6.04,-137.26 16.14,-252.36 30.35,-345.56 3.85,-26.49 10.83,-44.07 21.19,-52.98 10.35,-8.92 27.45,-13.48 51.53,-13.48 20.23,0 33.96,3.6 41.18,10.59 7.22,7.22 11.08,17.33 11.08,30.35 0,7.22 -0.73,15.16 -2.17,24.08 -5.3,33.46 -9.39,68.39 -12.76,105.23 48.4,-71.53 105.47,-124.27 171.45,-158.21 13.25,-6.99 24.81,-10.61 35.16,-10.61 9.87,0 18.3,2.89 24.8,8.44 11.32,9.62 16.86,21.18 16.86,35.39 0,22.65 -11.32,37.33 -33.71,44.08 -22.64,6.73 -52.02,25.28 -88.38,55.38 -36.12,30.11 -70.56,68.64 -102.83,115.83 -19.74,29.14 -30.25,58.3 -30.34,87.41 -0.36,112.94 0.92,343.02 10.72,425.85 6.77,57.28 12.53,93.79 12.53,107.03 0,27.21 -18.91,40.94 -65.15,40.94z"/>
   <path class="fil0" d="M1197.98 1033.04c-53.82,0 -104.05,-23.67 -140.34,-61.8 -41.29,-43.37 -54.93,-94.58 -57.61,-148.69 -4.17,-84.42 6.73,-185.71 35.88,-265.33 17.1,-46.97 40.22,-85.26 69.11,-115.36 28.9,-30.09 62.37,-45.26 99.94,-45.26 67.67,0 118.72,40.93 153.16,122.81 22.87,55.38 34.43,117.76 34.43,186.87 0,21.67 -1.93,48.88 -6.02,81.86 -10.46,89.69 -91.35,244.9 -188.55,244.9zm71.52 -146.4c13,-20.94 22.87,-47.92 29.86,-80.92 8.19,-37.07 12.04,-74.64 12.04,-112.7 0,-33.95 -2.89,-66.69 -8.43,-98.48 -5.54,-31.79 -14.93,-58.28 -28.18,-79.46 -13.24,-21.21 -29.86,-31.8 -50.08,-31.8 -98.05,0 -157.49,292.13 -85.93,403.36 21.04,32.72 100.28,49.03 130.72,0z"/>
   <path class="fil0" d="M866.14 1238.23c-129.14,0 -285.19,-547.7 -375.6,-793.43 -33.67,-91.52 -42.35,-120.79 -46.58,-7.74 -2.36,63.32 1.72,124.26 1.72,188.07 0,48.39 0.73,97.03 2.17,145.45 4.34,139.65 10.36,243.44 18.3,311.11 0.97,8.44 1.45,18.55 1.45,30.35 0,36.6 -20.95,54.91 -62.85,54.91 -41.42,0 -64.54,-19.28 -69.84,-57.81 -10.35,-79.46 -15.41,-174.34 -15.41,-284.38 0,-46.97 0.96,-96.81 2.89,-149.55 6.02,-175.31 15.65,-325.1 28.9,-449.35 3.13,-33.48 9.15,-56.59 17.82,-69.35 8.66,-13 21.67,-19.52 38.53,-19.52 21.67,0 37.56,6.03 47.68,18.07 10.11,11.79 19.98,27.94 29.86,48.16 50.37,102.35 189.82,463.95 263.1,654.08 13.22,34.3 21.54,59.7 27.41,77.52 14.01,42.47 30.74,40.3 37.56,21.85 6.03,-16.34 1.23,-43.94 0.33,-61.91 -7.43,-148.93 16.78,-360.08 66.29,-486.62 46.66,-119.28 115.63,-200.04 157.64,-245.76 11.38,-12.38 24.93,-23.17 36.99,-32.96 25.53,-20.75 51.39,-32.5 84.55,-13.39 30.96,17.85 35.08,56.26 18.95,81.63 -12.31,19.38 -52.45,37.64 -76.77,63.67 -214.98,230.29 -191.85,561.21 -156.47,853.97 1.85,15.34 2.89,30.72 2.89,43 0,19.7 -11.99,50.74 -22.64,61.36 -12.41,12.35 -32.06,18.57 -58.87,18.57z"/>
  </g>
 </g>
</svg>
