<svg width="29" height="29" viewBox="0 0 29 29" fill="none" xmlns="http://www.w3.org/2000/svg">
<g clip-path="url(#clip0_4_6)">
<path fill-rule="evenodd" clip-rule="evenodd" d="M14.3584 0C22.2883 0 28.7169 6.4286 28.7169 14.3584C28.7169 22.2883 22.2883 28.7169 14.3584 28.7169C6.4286 28.7169 0 22.2883 0 14.3584C0 6.4286 6.4286 0 14.3584 0Z" fill="#1375E1"/>
<mask id="mask0_4_6" style="mask-type:luminance" maskUnits="userSpaceOnUse" x="0" y="0" width="29" height="29">
<path d="M14.3584 0C22.2883 0 28.7169 6.4286 28.7169 14.3584C28.7169 22.2883 22.2883 28.7169 14.3584 28.7169C6.4286 28.7169 0 22.2883 0 14.3584C0 6.4286 6.4286 0 14.3584 0Z" fill="white"/>
</mask>
<g mask="url(#mask0_4_6)">
<path fill-rule="evenodd" clip-rule="evenodd" d="M35.3885 22.1412C31.3183 26.9722 26.9125 30.3715 22.1707 32.3399C23.805 27.8683 23.3579 23.3507 20.8286 18.7865C18.8889 16.3551 15.8249 14.1184 11.6368 12.0771C6.66708 8.79986 7.0919 3.92427 12.9116 -2.54968C25.4767 -0.0805172 32.9692 8.14978 35.3885 22.1412Z" fill="#358BE6"/>
</g>
<path d="M9.24092 14.4714C8.10063 14.4714 7.18145 14.1093 6.48753 13.3886C5.78983 12.6641 5.44287 11.6916 5.44287 10.4712C5.44287 9.13662 5.81251 8.08025 6.55254 7.29864C7.29597 6.51703 8.28356 6.12396 9.51909 6.12396C10.7051 6.12396 11.6277 6.47886 12.2952 7.1879C12.9626 7.89354 13.2945 8.88869 13.2945 10.1699C13.2945 11.4856 12.9282 12.5344 12.1886 13.3085C11.4523 14.0825 10.4685 14.4714 9.24092 14.4714ZM9.4503 8.09196C8.36369 8.09196 7.82208 8.84673 7.82208 10.3608C7.82208 11.7906 8.33685 12.5038 9.37434 12.5038C10.4303 12.5038 10.9606 11.76 10.9606 10.2693C10.9606 8.8165 10.4572 8.09196 9.4503 8.09196ZM20.9363 6.34922L10.5029 22.3687H7.77635L18.1867 6.34922H20.9363ZM19.2162 22.5936C18.0763 22.5936 17.1571 22.2316 16.4632 21.507C15.7651 20.7863 15.4182 19.8138 15.4182 18.5938C15.4182 17.2588 15.7882 16.2028 16.5278 15.4208C17.2717 14.6392 18.2592 14.2465 19.4948 14.2465C20.6884 14.2465 21.6147 14.5973 22.2784 15.295C22.9421 15.9968 23.2735 16.9882 23.2735 18.2695C23.2735 19.5851 22.9039 20.6373 22.1639 21.4193C21.428 22.2009 20.4442 22.5936 19.2162 22.5936ZM19.3954 16.2142C18.3163 16.2142 17.7747 16.9693 17.7747 18.4792C17.7747 19.909 18.3012 20.626 19.3496 20.626C20.406 20.626 20.9363 19.8826 20.9363 18.3916C20.9363 17.6976 20.7949 17.1636 20.513 16.7822C20.2307 16.4047 19.8569 16.2142 19.3954 16.2142Z" fill="#FEFEFE"/>
</g>
<defs>
<clipPath id="clip0_4_6">
<rect width="29" height="29" fill="white"/>
</clipPath>
</defs>
</svg>
