<?xml version="1.0" encoding="UTF-8"?>
<!DOCTYPE svg PUBLIC "-//W3C//DTD SVG 1.1//EN" "http://www.w3.org/Graphics/SVG/1.1/DTD/svg11.dtd">
<!-- Creator: CorelDRAW 2020 (64-Bit) -->
<svg xmlns="http://www.w3.org/2000/svg" xml:space="preserve" width="15.24mm" height="15.24mm" version="1.1" style="shape-rendering:geometricPrecision; text-rendering:geometricPrecision; image-rendering:optimizeQuality; fill-rule:evenodd; clip-rule:evenodd"
viewBox="0 0 1524 1524"
 xmlns:xlink="http://www.w3.org/1999/xlink"
 xmlns:xodm="http://www.corel.com/coreldraw/odm/2003">
 <defs>
  <style type="text/css">
   <![CDATA[
    .fil8 {fill:none}
    .fil0 {fill:#0C202E}
    .fil1 {fill:#1375E1}
    .fil7 {fill:#59852C}
    .fil5 {fill:#B5118A}
    .fil4 {fill:#BA1118}
    .fil6 {fill:#BE8B0B}
    .fil9 {fill:#0C202E;fill-rule:nonzero}
    .fil10 {fill:#F1F1F1;fill-rule:nonzero}
    .fil3 {fill:url(#id1)}
    .fil2 {fill:url(#id2)}
   ]]>
  </style>
   <clipPath id="id0">
    <path d="M758.2 1498.57c404.71,0 732.75,-328.05 732.75,-732.76 0,-404.71 -328.04,-732.76 -732.75,-732.76 -404.71,0 -732.76,328.05 -732.76,732.76 0,404.71 328.05,732.76 732.76,732.76z"/>
   </clipPath>
  <radialGradient id="id1" gradientUnits="userSpaceOnUse" gradientTransform="matrix(1.0674 -0 -0 -1.0668 -26 2344)" cx="391.99" cy="1134.13" r="366.59" fx="391.99" fy="1134.13">
   <stop offset="0" style="stop-opacity:1; stop-color:#FEFEFE"/>
   <stop offset="0.960784" style="stop-opacity:1; stop-color:#F2F2F2"/>
   <stop offset="1" style="stop-opacity:1; stop-color:#E6E6E6"/>
  </radialGradient>
  <radialGradient id="id2" gradientUnits="userSpaceOnUse" gradientTransform="matrix(1.06497 -0 -0 -1.06096 -73 2341)" xlink:href="#id1" cx="1125.08" cy="1136.01" r="365.87" fx="1125.08" fy="1136.01">
  </radialGradient>
 </defs>
 <g id="Слой_x0020_1">
  <metadata id="CorelCorpID_0Corel-Layer"/>
  <path class="fil0" d="M758.2 1498.57c404.71,0 732.75,-328.05 732.75,-732.76 0,-404.71 -328.04,-732.76 -732.75,-732.76 -404.71,0 -732.76,328.05 -732.76,732.76 0,404.71 328.05,732.76 732.76,732.76z"/>
  <g style="clip-path:url(#id0)">
   <g id="_2184469874736">
    <g>
     <path id="1" class="fil1" d="M1490.98 763.86l-0.01 -1.08 -142.71 0c-0.12,-63.65 -10.31,-124.97 -29.08,-182.37l135.64 -44.35c-24.15,-73.92 -59.74,-142.62 -104.67,-204.13l-115.22 84.16c-36.47,-49.9 -80.64,-93.91 -130.68,-130.21l83.77 -115.49c-61.63,-44.71 -130.5,-80.06 -204.54,-103.95l-43.83 135.79c-57.16,-18.46 -118.15,-28.43 -181.47,-28.43 -0.29,0 -0.6,0 -0.9,0l-0.22 -142.69c-78.99,0.12 -155.05,12.76 -226.28,36.01l44.25 135.67c-59.49,19.4 -114.85,48.01 -164.34,84.15l-84.11 -115.25c-61.95,45.23 -116.55,99.94 -161.64,162.03l115.46 83.82c-36.01,49.6 -64.48,105.02 -83.74,164.58l-135.79 -43.92c-9.19,28.44 -16.69,57.61 -22.41,87.45l-0.64 3.44c-0.62,3.3 -1.22,6.63 -1.79,9.94 -0.36,2.15 -0.72,4.27 -1.07,6.42 -0.44,2.67 -0.85,5.33 -1.25,8 -0.43,2.85 -0.85,5.68 -1.25,8.54 -0.28,2.01 -0.56,4.04 -0.82,6.07 -0.47,3.57 -0.91,7.12 -1.33,10.69l-0.46 4.19c-0.45,4.05 -0.87,8.09 -1.25,12.18l-0.26 2.96c-0.39,4.38 -0.75,8.79 -1.06,13.19l-0.13 1.88c-0.34,4.87 -0.63,9.77 -0.86,14.69l-0.04 0.76c-0.24,5.06 -0.42,10.14 -0.57,15.22l0 0.55c-0.15,5.25 -0.23,10.51 -0.25,15.79 0.02,-5.28 0.1,-10.54 0.25,-15.79l0 -0.55c0.15,-5.08 0.33,-10.16 0.57,-15.22l0.04 -0.76c0.23,-4.92 0.52,-9.82 0.86,-14.69l0.13 -1.88c0.32,-4.4 0.67,-8.81 1.06,-13.19l0.26 -2.96c0.38,-4.09 0.8,-8.13 1.25,-12.18l0.46 -4.19c0.42,-3.57 0.86,-7.12 1.33,-10.69 0.26,-2.03 0.54,-4.06 0.82,-6.07 0.4,-2.86 0.82,-5.69 1.25,-8.54 0.4,-2.67 0.81,-5.33 1.25,-8 0.35,-2.13 0.71,-4.27 1.07,-6.42 0.57,-3.31 1.17,-6.64 1.79,-9.94l0.64 -3.44c53.75,-281.62 268.63,-506.05 545.09,-573.62 38.32,-9.37 77.88,-15.74 118.3,-18.81 18.61,-1.41 37.37,-2.13 56.33,-2.13 74.86,0 147.08,11.21 215.11,32.07 114.85,35.22 217.67,97.87 300.85,180.35 68.04,67.48 122.94,148.2 160.46,238 0.08,0.18 0.17,0.41 0.25,0.61 0.48,1.16 0.95,2.29 1.43,3.43 35.24,85.81 54.7,179.81 54.7,278.31l0 0z"/>
     <path class="fil2" d="M759.22 1500.52c6.24,-0.02 12.47,-0.1 18.66,-0.27l0.43 -0.01c5.93,-0.16 11.84,-0.39 17.75,-0.7l1.64 -0.09c5.54,-0.28 11.06,-0.64 16.57,-1.06l2.41 -0.18c5.17,-0.42 10.33,-0.88 15.48,-1.4l3.46 -0.35c4.79,-0.51 9.57,-1.06 14.32,-1.66l4.81 -0.61c4.2,-0.56 8.39,-1.15 12.56,-1.78 2.21,-0.32 4.4,-0.67 6.61,-1.01 3.48,-0.56 6.97,-1.14 10.44,-1.74 2.78,-0.49 5.56,-0.99 8.33,-1.51 2.8,-0.51 5.59,-1.05 8.36,-1.6 3.74,-0.75 7.48,-1.51 11.2,-2.3 1.8,-0.4 3.59,-0.79 5.39,-1.19 22.82,-5.07 45.26,-11.21 67.24,-18.36l-44.11 -135.69c59.52,-19.33 114.89,-47.9 164.43,-83.97l83.97 115.32 0.02 0.03 3.07 -2.26c2.56,-1.9 5.11,-3.79 7.64,-5.72 1.89,-1.43 3.78,-2.87 5.65,-4.31 2.91,-2.25 5.79,-4.52 8.66,-6.8 1.62,-1.28 3.24,-2.58 4.84,-3.87 3.06,-2.47 6.09,-4.98 9.11,-7.51 1.39,-1.17 2.77,-2.33 4.16,-3.51 3.1,-2.63 6.16,-5.29 9.2,-7.96 1.3,-1.13 2.58,-2.26 3.86,-3.4 3.22,-2.86 6.4,-5.76 9.58,-8.69l3.23 -3c3.3,-3.07 6.56,-6.18 9.8,-9.32l1.93 -1.87c3.59,-3.53 7.17,-7.07 10.68,-10.66l1.9 -1.94c3.67,-3.75 7.3,-7.55 10.91,-11.4l0.79 -0.84c7.72,-8.28 15.25,-16.75 22.58,-25.39l1.23 -1.44c2.98,-3.51 5.93,-7.07 8.84,-10.66l0.03 -0.03 2.27 -2.8 0.29 -0.35c2.71,-3.39 5.41,-6.78 8.07,-10.23 1.02,-1.32 2.05,-2.66 3.08,-3.99 2.43,-3.19 4.84,-6.4 7.23,-9.62 1.07,-1.44 2.12,-2.89 3.18,-4.34l0 0 -115.36 -83.93c36.05,-49.56 64.58,-104.97 83.92,-164.51l135.71 44.05c3.21,-9.86 6.21,-19.82 9,-29.87l0.92 -3.35 0.08 -0.29c1.15,-4.25 2.27,-8.54 3.37,-12.82 0.49,-1.97 0.99,-3.93 1.45,-5.91 0.87,-3.53 1.71,-7.09 2.53,-10.65 0.63,-2.77 1.25,-5.54 1.84,-8.32 0.63,-2.87 1.23,-5.76 1.82,-8.64 0.68,-3.37 1.35,-6.75 1.99,-10.13 0.42,-2.29 0.84,-4.58 1.25,-6.89 0.72,-4 1.41,-8.02 2.06,-12.06 0.28,-1.72 0.55,-3.46 0.81,-5.18 0.7,-4.55 1.37,-9.12 1.98,-13.7l0.49 -3.73c0.66,-5.1 1.29,-10.21 1.83,-15.35l0.26 -2.37c0.57,-5.49 1.09,-11 1.53,-16.53l0.12 -1.39c0.47,-5.84 0.87,-11.69 1.19,-17.56l0.04 -0.62c0.34,-6.07 0.6,-12.18 0.79,-18.29l0.01 -0.22c0.19,-6.22 0.3,-12.47 0.32,-18.72 -0.02,6.25 -0.13,12.5 -0.32,18.72l-0.01 0.22c-0.19,6.11 -0.45,12.22 -0.79,18.29l-0.04 0.62c-0.32,5.86 -0.72,11.72 -1.19,17.56l-0.12 1.39c-0.44,5.53 -0.96,11.04 -1.53,16.53l-0.26 2.37c-0.54,5.14 -1.16,10.25 -1.83,15.35l-0.49 3.73c-0.61,4.58 -1.28,9.15 -1.98,13.7 -0.26,1.72 -0.53,3.46 -0.81,5.18 -0.65,4.04 -1.34,8.06 -2.06,12.06 -0.41,2.31 -0.83,4.6 -1.25,6.89 -0.64,3.38 -1.31,6.76 -1.99,10.13 -0.59,2.88 -1.19,5.77 -1.82,8.64 -0.59,2.78 -1.21,5.55 -1.84,8.32 -0.8,3.56 -1.64,7.12 -2.53,10.65 -0.46,1.98 -0.96,3.94 -1.45,5.91 -1.1,4.28 -2.22,8.56 -3.37,12.82l-0.08 0.29 -0.92 3.35c-23.72,85.37 -62.46,164.47 -113.27,234.26 -1.06,1.45 -2.11,2.9 -3.18,4.34 -2.39,3.22 -4.8,6.43 -7.23,9.62 -1.03,1.33 -2.06,2.67 -3.08,3.99 -2.66,3.45 -5.36,6.84 -8.07,10.23l-0.29 0.35 -2.27 2.8 -0.03 0.03c-2.91,3.59 -5.86,7.15 -8.84,10.66l-1.23 1.44c-7.33,8.64 -14.86,17.11 -22.58,25.39l-0.79 0.84c-3.61,3.85 -7.24,7.65 -10.91,11.4l-1.9 1.94c-3.52,3.58 -7.09,7.13 -10.68,10.66l-1.93 1.87c-3.24,3.14 -6.5,6.25 -9.8,9.32l-3.23 3c-3.18,2.93 -6.36,5.83 -9.58,8.69 -1.28,1.14 -2.56,2.27 -3.86,3.4 -3.04,2.67 -6.1,5.33 -9.2,7.96 -1.39,1.18 -2.77,2.34 -4.16,3.51 -3.02,2.53 -6.05,5.04 -9.11,7.51 -1.6,1.29 -3.22,2.59 -4.84,3.87 -2.87,2.28 -5.75,4.55 -8.66,6.8 -1.87,1.44 -3.76,2.88 -5.65,4.31 -2.53,1.93 -5.08,3.82 -7.64,5.72 -1.03,0.75 -2.06,1.48 -3.09,2.23 -79.83,58.17 -171.85,100.59 -271.53,122.7 -1.8,0.4 -3.59,0.8 -5.39,1.19 -3.72,0.79 -7.46,1.55 -11.2,2.3 -2.77,0.55 -5.56,1.09 -8.36,1.6 -2.77,0.52 -5.55,1.02 -8.33,1.51 -3.47,0.6 -6.96,1.19 -10.44,1.74 -2.21,0.34 -4.4,0.69 -6.61,1.01 -4.17,0.63 -8.36,1.22 -12.56,1.78l-4.81 0.61c-4.75,0.6 -9.53,1.15 -14.32,1.66l-3.46 0.35c-5.15,0.52 -10.31,0.98 -15.48,1.4l-2.41 0.18c-5.51,0.42 -11.03,0.78 -16.57,1.06l-1.64 0.09c-5.91,0.31 -11.81,0.54 -17.75,0.7l-0.43 0.01c-6.19,0.17 -12.42,0.25 -18.66,0.27z"/>
     <path class="fil3" d="M758.18 1500.52c-78.87,0 -154.83,-12.5 -226.02,-35.59 -1.26,-0.4 -2.53,-0.82 -3.79,-1.22 -3.74,-1.24 -7.45,-2.5 -11.15,-3.79 -1.92,-0.67 -3.83,-1.34 -5.76,-2.03 -3.84,-1.38 -7.7,-2.79 -11.52,-4.23l-3.89 -1.47c-4.48,-1.73 -8.95,-3.49 -13.39,-5.29l-2.95 -1.2c-4.57,-1.89 -9.13,-3.81 -13.65,-5.79l-2.73 -1.18c-4.72,-2.09 -9.44,-4.21 -14.13,-6.4l-1.85 -0.87c-249.29,-116.95 -421.95,-370.16 -421.95,-663.71l0.01 0.37 142.71 -0.07c0.03,63.71 10.17,125.06 28.88,182.55l-135.68 44.18c24.1,73.96 59.58,142.75 104.47,204.26l115.29 -84.03c36.42,49.97 80.52,94 130.53,130.35l-83.86 115.41c37.36,27.15 77.37,50.87 119.6,70.69l1.85 0.87c4.69,2.19 9.41,4.31 14.13,6.4l2.73 1.18c4.52,1.98 9.08,3.9 13.65,5.79l2.95 1.2c4.44,1.8 8.91,3.56 13.39,5.29l3.89 1.47c3.83,1.45 7.68,2.85 11.52,4.23 1.93,0.69 3.84,1.36 5.76,2.03 3.7,1.29 7.41,2.55 11.15,3.79l3.78 1.24 0.01 -0.02 43.98 -135.73c57.33,18.58 118.51,28.61 182.04,28.61 0.11,0 0.22,0 0.31,0l0.08 142.71c-0.12,0 -0.27,0 -0.39,0z"/>
     <path class="fil4" d="M164.9 333.69c-44.74,61.62 -80.11,130.5 -104.03,204.51l135.79 43.92c19.26,-59.56 47.73,-114.98 83.74,-164.58l-115.5 -83.85z"/>
     <path class="fil5" d="M757.06 31.11l0.22 142.69c0.3,0 0.61,0 0.9,0 63.32,0 124.31,9.97 181.47,28.43l43.86 -135.86c-3.39,-1.08 -6.8,-2.16 -10.22,-3.21 -68.03,-20.86 -140.25,-32.07 -215.11,-32.07 -0.37,0 -0.74,0 -1.12,0.02z"/>
     <path class="fil6" d="M1188.02 170.39l-83.77 115.49c50.04,36.3 94.21,80.31 130.68,130.21l115.26 -84.18c-22.99,-31.47 -48.45,-61.02 -76.05,-88.4 -26.75,-26.52 -55.53,-50.99 -86.12,-73.12z"/>
     <path class="fil7" d="M1454.82 536.06l-135.64 44.35c18.77,57.4 28.96,118.72 29.08,182.37l142.72 0c-0.12,-79.13 -12.79,-155.35 -36.16,-226.72z"/>
    </g>
   </g>
  </g>
  <path class="fil8" d="M758.2 1498.57c404.71,0 732.75,-328.05 732.75,-732.76 0,-404.71 -328.04,-732.76 -732.75,-732.76 -404.71,0 -732.76,328.05 -732.76,732.76 0,404.71 328.05,732.76 732.76,732.76z"/>
  <path class="fil9" d="M1352.92 765.81c0,328.47 -266.27,594.73 -594.72,594.73 -328.48,0 -594.74,-266.26 -594.74,-594.73 0,-328.44 266.26,-594.73 594.74,-594.73 328.45,0 594.72,266.29 594.72,594.73z"/>
  <path class="fil10" d="M931.77 1020.36l-337.52 0 0 -57.55 167.23 -182.52c24.12,-26.94 41.31,-49.42 51.54,-67.43 10.24,-18.12 15.3,-36.24 15.3,-54.37 0,-24 -6.7,-43.31 -20.12,-58.02 -13.42,-14.71 -31.54,-22.12 -54.25,-22.12 -27.18,0 -48.13,8.24 -63.07,24.83 -14.95,16.59 -22.48,39.19 -22.48,67.91l-83.8 0c0,-30.6 6.95,-58.02 20.83,-82.5 14.01,-24.48 33.9,-43.55 59.67,-57.08 25.89,-13.53 55.67,-20.24 89.55,-20.24 48.72,0 87.09,12.24 115.33,36.72 28.13,24.47 42.14,58.37 42.14,101.56 0,25.07 -7.07,51.31 -21.19,78.85 -14.12,27.42 -37.3,58.71 -69.43,93.54l-122.74 131.34 233.01 0 0 67.08z"/>
 </g>
</svg>
