<?xml version="1.0" encoding="UTF-8"?>
<!DOCTYPE svg PUBLIC "-//W3C//DTD SVG 1.1//EN" "http://www.w3.org/Graphics/SVG/1.1/DTD/svg11.dtd">
<!-- Creator: CorelDRAW 2020 (64-Bit) -->
<svg xmlns="http://www.w3.org/2000/svg" xml:space="preserve" width="10.16mm" height="10.16mm" version="1.1" style="shape-rendering:geometricPrecision; text-rendering:geometricPrecision; image-rendering:optimizeQuality; fill-rule:evenodd; clip-rule:evenodd"
viewBox="0 0 1016 1016"
 xmlns:xlink="http://www.w3.org/1999/xlink"
 xmlns:xodm="http://www.corel.com/coreldraw/odm/2003">
 <defs>
  <style type="text/css">
   <![CDATA[
    .str0 {stroke:#FEFEFE;stroke-width:70.56;stroke-linecap:round;stroke-linejoin:round;stroke-miterlimit:22.9256}
    .fil6 {fill:none}
    .fil10 {fill:none;fill-rule:nonzero}
    .fil0 {fill:#0C202E}
    .fil1 {fill:#1375E1}
    .fil5 {fill:#59852C}
    .fil3 {fill:#B5118A}
    .fil2 {fill:#BA1118}
    .fil4 {fill:#BE8B0B}
    .fil9 {fill:#0C202E;fill-rule:nonzero}
    .fil7 {fill:url(#id1)}
    .fil8 {fill:url(#id2)}
   ]]>
  </style>
    <clipPath id="id0">
     <path d="M586.59 998.25c-270.77,43.41 -525.44,-140.89 -568.84,-411.66 -43.4,-270.77 140.9,-525.43 411.67,-568.84 270.77,-43.4 525.43,140.9 568.84,411.67 43.4,270.77 -140.9,525.43 -411.67,568.83z"/>
    </clipPath>
  <radialGradient id="id1" gradientUnits="userSpaceOnUse" gradientTransform="matrix(2.75 -0 -0 0 -893 11)" cx="510.16" cy="11.47" r="0.04" fx="510.16" fy="11.47">
   <stop offset="0" style="stop-opacity:1; stop-color:#FEFEFE"/>
   <stop offset="0.960784" style="stop-opacity:1; stop-color:#F2F2F2"/>
   <stop offset="1" style="stop-opacity:1; stop-color:#E6E6E6"/>
  </radialGradient>
  <radialGradient id="id2" gradientUnits="objectBoundingBox" xlink:href="#id1" cx="-46.6667%" cy="0%" r="20%" fx="-46.6667%" fy="0%">
  </radialGradient>
 </defs>
 <g id="Слой_x0020_1">
  <metadata id="CorelCorpID_0Corel-Layer"/>
  <g id="_2184310678592">
   <path class="fil0" d="M586.59 998.25c-270.77,43.41 -525.44,-140.89 -568.84,-411.66 -43.4,-270.77 140.9,-525.43 411.67,-568.84 270.77,-43.4 525.43,140.9 568.84,411.67 43.4,270.77 -140.9,525.43 -411.67,568.83z"/>
   <g>
   </g>
   <g style="clip-path:url(#id0)">
    <g id="_2184310693328">
     <path id="_1" class="fil1" d="M587.88 998.06l0.73 -0.12 -15.31 -95.48c42.58,-6.9 82.51,-20.3 118.9,-39.01l44.22 85.99c46.87,-24.08 89.01,-55.26 125.35,-91.92l-68.67 -68.06c29.48,-29.76 54.18,-64.02 73.1,-101.4l86.26 43.66c23.31,-46.03 39.57,-95.9 47.61,-147.99l-95.55 -14.76c6.22,-40.23 6.35,-82.1 -0.44,-124.46 -0.03,-0.2 -0.06,-0.41 -0.09,-0.61l95.44 -15.44c-8.56,-52.85 -25.16,-102.37 -48.36,-147.55l-86.02 44.17c-19.37,-37.73 -44.45,-71.69 -73.93,-100.93l68.09 -68.63c-36.91,-36.61 -79.37,-67.26 -125.75,-90.77l-43.69 86.24c-37.05,-18.78 -77.18,-31.88 -119.1,-38.38l14.83 -95.56c-20.02,-3.1 -40.34,-4.99 -60.91,-5.61l-2.37 -0.07c-2.28,-0.05 -4.57,-0.1 -6.85,-0.12 -1.47,-0.02 -2.94,-0.03 -4.41,-0.03 -1.83,-0.01 -3.66,0 -5.49,0.02 -1.95,0.01 -3.89,0.04 -5.84,0.08 -1.38,0.03 -2.77,0.06 -4.15,0.1 -2.43,0.07 -4.86,0.16 -7.29,0.26l-2.85 0.14c-2.76,0.13 -5.52,0.29 -8.29,0.47l-2.01 0.14c-2.97,0.21 -5.96,0.44 -8.94,0.71l-1.27 0.11c-3.3,0.3 -6.61,0.63 -9.92,1l-0.51 0.06c-3.42,0.38 -6.83,0.8 -10.25,1.25l-0.37 0.05c-3.52,0.47 -7.05,0.98 -10.58,1.53 3.53,-0.55 7.06,-1.06 10.58,-1.53l0.37 -0.05c3.42,-0.45 6.83,-0.87 10.25,-1.25l0.51 -0.06c3.31,-0.37 6.62,-0.7 9.92,-1l1.27 -0.11c2.98,-0.26 5.97,-0.5 8.94,-0.71l2.01 -0.14c2.77,-0.18 5.53,-0.34 8.29,-0.47l2.85 -0.14c2.43,-0.1 4.86,-0.19 7.29,-0.26 1.38,-0.04 2.77,-0.07 4.15,-0.1 1.95,-0.04 3.89,-0.07 5.84,-0.08 1.83,-0.02 3.66,-0.03 5.49,-0.02 1.47,0 2.94,0.01 4.41,0.03 2.28,0.02 4.57,0.07 6.85,0.12l2.37 0.07c194.18,5.76 367.37,125.46 442.24,303.18 10.37,24.62 18.88,50.41 25.27,77.12 2.94,12.3 5.43,24.77 7.47,37.47 8.02,50.08 8.26,99.6 1.6,147.35 -11.24,80.62 -42.13,156.13 -88.39,220.62 -37.85,52.77 -85.97,98.15 -142.03,132.88 -0.12,0.08 -0.26,0.16 -0.38,0.24 -0.73,0.44 -1.43,0.88 -2.15,1.32 -53.62,32.78 -114.43,55.88 -180.34,66.44l0 0z"/>
     <path class="fil2" d="M733.48 64.73c-46.03,-23.33 -95.9,-39.62 -147.98,-47.68l-14.83 95.56c41.92,6.5 82.05,19.6 119.1,38.38l43.71 -86.26z"/>
     <path class="fil3" d="M999.43 428.46l-95.44 15.44c0.03,0.2 0.06,0.41 0.09,0.61 6.79,42.36 6.66,84.23 0.44,124.46l95.6 14.77c0.37,-2.39 0.72,-4.78 1.05,-7.18 6.66,-47.75 6.42,-97.27 -1.6,-147.35 -0.04,-0.25 -0.08,-0.51 -0.14,-0.75z"/>
     <path class="fil4" d="M952.46 731.72l-86.26 -43.66c-18.92,37.38 -43.62,71.64 -73.1,101.4l68.69 68.08c18.58,-18.76 35.63,-38.95 50.99,-60.36 14.87,-20.74 28.16,-42.62 39.68,-65.46z"/>
     <path class="fil5" d="M736.42 949.44l-44.22 -85.99c-36.39,18.71 -76.32,32.11 -118.9,39.01l15.31 95.49c52.93,-8.57 102.57,-25.22 147.81,-48.51z"/>
    </g>
   </g>
   <path class="fil6" d="M586.59 998.25c-270.77,43.41 -525.44,-140.89 -568.84,-411.66 -43.4,-270.77 140.9,-525.43 411.67,-568.84 270.77,-43.4 525.43,140.9 568.84,411.67 43.4,270.77 -140.9,525.43 -411.67,568.83z"/>
   <path class="fil6" d="M586.59 998.25c-270.77,43.41 -525.44,-140.89 -568.84,-411.66 -43.4,-270.77 140.9,-525.43 411.67,-568.84 270.77,-43.4 525.43,140.9 568.84,411.67 43.4,270.77 -140.9,525.43 -411.67,568.83z"/>
   <polygon class="fil7" points="510.27,11.47 510.28,11.47 510.29,11.47 510.29,11.47 510.3,11.47 510.31,11.47 510.32,11.47 510.34,11.47 510.34,11.47 510.35,11.47 510.36,11.47 510.38,11.47 510.39,11.47 510.41,11.47 510.41,11.47 510.42,11.47 510.42,11.47 510.44,11.47 510.44,11.47 510.45,11.47 510.45,11.47 510.46,11.47 510.46,11.47 510.48,11.47 510.48,11.47 510.49,11.47 510.48,11.47 510.48,11.47 510.46,11.47 510.46,11.47 510.45,11.47 510.45,11.47 510.44,11.47 510.44,11.47 510.42,11.47 510.42,11.47 510.41,11.47 510.41,11.47 510.39,11.47 510.38,11.47 510.36,11.47 510.35,11.47 510.34,11.47 510.34,11.47 510.32,11.47 510.31,11.47 510.3,11.47 510.29,11.47 510.29,11.47 510.28,11.47 "/>
   <polygon class="fil7" points="509.92,11.47 509.93,11.47 509.94,11.47 509.95,11.47 509.96,11.47 509.97,11.47 509.98,11.47 509.98,11.47 509.99,11.47 510.01,11.47 510.01,11.47 510.02,11.47 510.03,11.47 510.03,11.47 510.03,11.47 510.04,11.47 510.05,11.47 510.06,11.47 510.06,11.47 510.07,11.47 510.08,11.47 510.08,11.47 510.09,11.47 510.1,11.47 510.1,11.47 510.11,11.47 510.11,11.47 510.13,11.47 510.11,11.47 510.11,11.47 510.1,11.47 510.1,11.47 510.09,11.47 510.08,11.47 510.08,11.47 510.07,11.47 510.06,11.47 510.06,11.47 510.05,11.47 510.04,11.47 510.03,11.47 510.03,11.47 510.03,11.47 510.02,11.47 510.01,11.47 510.01,11.47 509.99,11.47 509.98,11.47 509.98,11.47 509.97,11.47 509.96,11.47 509.95,11.47 509.94,11.47 509.93,11.47 "/>
   <polygon class="fil8" points="509.58,11.46 509.61,11.46 509.62,11.46 509.65,11.46 509.65,11.46 509.69,11.47 509.7,11.47 509.73,11.47 509.7,11.47 509.69,11.47 509.65,11.46 509.65,11.46 509.62,11.46 509.61,11.46 "/>
   <polygon class="fil7" points="509.11,11.46 509.14,11.46 509.14,11.46 509.17,11.46 509.2,11.46 509.2,11.46 509.23,11.46 509.2,11.46 509.2,11.46 509.17,11.46 509.14,11.46 509.14,11.46 "/>
   <polygon class="fil7" points="508.73,11.46 508.77,11.46 508.77,11.46 508.8,11.46 508.83,11.46 508.83,11.46 508.86,11.46 508.83,11.46 508.83,11.46 508.8,11.46 508.77,11.46 508.77,11.46 "/>
   <line class="fil6" x1="860.59" y1="857.58" x2="860.59" y2= "857.58" />
   <line class="fil6" x1="1003.08" y1="469.81" x2="1003.08" y2= "469.81" />
   <line class="fil6" x1="990.34" y1="389.66" x2="990.34" y2= "389.66" />
   <polygon class="fil7" points="507.52,1004.51 507.56,1004.51 507.56,1004.51 507.58,1004.51 507.58,1004.51 507.61,1004.51 507.61,1004.51 507.63,1004.51 507.61,1004.51 507.61,1004.51 507.58,1004.51 507.58,1004.51 507.56,1004.51 507.56,1004.51 "/>
   <polygon class="fil7" points="507.13,1004.51 507.16,1004.51 507.17,1004.51 507.2,1004.51 507.2,1004.51 507.24,1004.51 507.24,1004.51 507.27,1004.51 507.24,1004.51 507.24,1004.51 507.2,1004.51 507.2,1004.51 507.17,1004.51 507.16,1004.51 "/>
   <polygon class="fil7" points="506.76,1004.51 506.8,1004.51 506.8,1004.51 506.83,1004.51 506.86,1004.51 506.86,1004.51 506.89,1004.51 506.86,1004.51 506.86,1004.51 506.83,1004.51 506.8,1004.51 506.8,1004.51 "/>
   <polygon class="fil7" points="506.24,1004.51 506.26,1004.51 506.27,1004.51 506.27,1004.51 506.28,1004.51 506.28,1004.51 506.29,1004.51 506.29,1004.51 506.3,1004.51 506.3,1004.51 506.31,1004.51 506.31,1004.51 506.33,1004.51 506.33,1004.51 506.35,1004.51 506.36,1004.51 506.36,1004.51 506.37,1004.51 506.37,1004.51 506.38,1004.51 506.38,1004.51 506.39,1004.51 506.39,1004.51 506.4,1004.51 506.4,1004.51 506.42,1004.51 506.43,1004.51 506.42,1004.51 506.4,1004.51 506.4,1004.51 506.39,1004.51 506.39,1004.51 506.38,1004.51 506.38,1004.51 506.37,1004.51 506.37,1004.51 506.36,1004.51 506.36,1004.51 506.35,1004.51 506.33,1004.51 506.33,1004.51 506.31,1004.51 506.31,1004.51 506.3,1004.51 506.3,1004.51 506.29,1004.51 506.29,1004.51 506.28,1004.51 506.28,1004.51 506.27,1004.51 506.27,1004.51 506.26,1004.51 "/>
   <polygon class="fil8" points="505.86,1004.5 505.88,1004.5 505.88,1004.5 505.9,1004.5 505.9,1004.5 505.91,1004.5 505.91,1004.5 505.92,1004.5 505.92,1004.5 505.93,1004.5 505.93,1004.5 505.95,1004.5 505.95,1004.5 505.96,1004.5 505.96,1004.5 505.97,1004.5 505.98,1004.5 506,1004.5 506.01,1004.5 506.01,1004.5 506.02,1004.5 506.02,1004.5 506.03,1004.51 506.03,1004.51 506.05,1004.51 506.05,1004.51 506.06,1004.51 506.07,1004.51 506.06,1004.51 506.05,1004.51 506.05,1004.51 506.03,1004.51 506.03,1004.51 506.02,1004.5 506.02,1004.5 506.01,1004.5 506.01,1004.5 506,1004.5 505.98,1004.5 505.97,1004.5 505.96,1004.5 505.96,1004.5 505.95,1004.5 505.95,1004.5 505.93,1004.5 505.93,1004.5 505.92,1004.5 505.92,1004.5 505.91,1004.5 505.91,1004.5 505.9,1004.5 505.9,1004.5 505.88,1004.5 505.88,1004.5 "/>
   <polygon class="fil7" points="505.5,1004.5 505.52,1004.5 505.52,1004.5 505.53,1004.5 505.53,1004.5 505.55,1004.5 505.55,1004.5 505.56,1004.5 505.56,1004.5 505.57,1004.5 505.57,1004.5 505.59,1004.5 505.59,1004.5 505.6,1004.5 505.62,1004.5 505.64,1004.5 505.65,1004.5 505.66,1004.5 505.67,1004.5 505.68,1004.5 505.68,1004.5 505.69,1004.5 505.69,1004.5 505.71,1004.5 505.72,1004.5 505.72,1004.5 505.74,1004.5 505.72,1004.5 505.72,1004.5 505.71,1004.5 505.69,1004.5 505.69,1004.5 505.68,1004.5 505.68,1004.5 505.67,1004.5 505.66,1004.5 505.65,1004.5 505.64,1004.5 505.62,1004.5 505.6,1004.5 505.59,1004.5 505.59,1004.5 505.57,1004.5 505.57,1004.5 505.56,1004.5 505.56,1004.5 505.55,1004.5 505.55,1004.5 505.53,1004.5 505.53,1004.5 505.52,1004.5 505.52,1004.5 "/>
   <path class="fil9" d="M508 910.98c-222.57,0 -402.99,-180.42 -402.99,-402.98 0,-222.57 180.42,-402.98 402.99,-402.98 222.56,0 402.99,180.41 402.99,402.98 0,222.56 -180.43,402.98 -402.99,402.98z"/>
   <polyline class="fil10 str0" points="596.14,329.26 419.26,505.57 596.75,686.74 "/>
  </g>
 </g>
</svg>
