<?xml version="1.0" encoding="UTF-8"?>
<!DOCTYPE svg PUBLIC "-//W3C//DTD SVG 1.1//EN" "http://www.w3.org/Graphics/SVG/1.1/DTD/svg11.dtd">
<!-- Creator: CorelDRAW 2020 (64-Bit) -->
<svg xmlns="http://www.w3.org/2000/svg" xml:space="preserve" width="12.7mm" height="12.7mm" version="1.1" style="shape-rendering:geometricPrecision; text-rendering:geometricPrecision; image-rendering:optimizeQuality; fill-rule:evenodd; clip-rule:evenodd"
viewBox="0 0 1270 1270"
 xmlns:xlink="http://www.w3.org/1999/xlink"
 xmlns:xodm="http://www.corel.com/coreldraw/odm/2003">
 <defs>
  <style type="text/css">
   <![CDATA[
    .fil8 {fill:none}
    .fil0 {fill:#0C202E}
    .fil1 {fill:#1375E1}
    .fil7 {fill:#59852C}
    .fil5 {fill:#B5118A}
    .fil4 {fill:#BA1118}
    .fil6 {fill:#BE8B0B}
    .fil13 {fill:#FEFEFE}
    .fil12 {fill:#0C202E;fill-rule:nonzero}
    .fil9 {fill:url(#id1)}
    .fil2 {fill:url(#id2)}
    .fil11 {fill:url(#id3)}
    .fil3 {fill:url(#id4)}
    .fil10 {fill:url(#id5)}
   ]]>
  </style>
   <clipPath id="id0">
    <path d="M635.02 1183.68c303.04,0 548.68,-245.64 548.68,-548.68 0,-303.04 -245.64,-548.68 -548.68,-548.68 -303.04,0 -548.67,245.64 -548.67,548.68 0,303.04 245.63,548.68 548.67,548.68z"/>
   </clipPath>
  <radialGradient id="id1" gradientUnits="userSpaceOnUse" gradientTransform="matrix(-NAN(IND) NAN -NAN(IND) NAN -2.14748E+09 -2.14748E+09)" cx="86.32" cy="632.38" r="0.13" fx="86.32" fy="632.38">
   <stop offset="0" style="stop-opacity:1; stop-color:#FEFEFE"/>
   <stop offset="0.960784" style="stop-opacity:1; stop-color:#F2F2F2"/>
   <stop offset="1" style="stop-opacity:1; stop-color:#E6E6E6"/>
  </radialGradient>
  <radialGradient id="id2" gradientUnits="userSpaceOnUse" gradientTransform="matrix(1.42723 -0 -0 -1.4219 -389 2209)" xlink:href="#id1" cx="909.74" cy="912.21" r="273.96" fx="909.74" fy="912.21">
  </radialGradient>
  <radialGradient id="id3" gradientUnits="userSpaceOnUse" gradientTransform="matrix(0.249998 -0 -0 2.99998 888 -1275)" xlink:href="#id1" cx="1183.68" cy="637.49" r="0.04" fx="1183.68" fy="637.49">
  </radialGradient>
  <radialGradient id="id4" gradientUnits="userSpaceOnUse" gradientTransform="matrix(1.42809 -0 -0 -1.42729 -154 2211)" xlink:href="#id1" cx="360.82" cy="910.8" r="274.5" fx="360.82" fy="910.8">
  </radialGradient>
  <radialGradient id="id5" gradientUnits="userSpaceOnUse" gradientTransform="matrix(0.333331 -0 -0 2.99998 58 -1267)" xlink:href="#id1" cx="86.31" cy="633.35" r="0.03" fx="86.31" fy="633.35">
  </radialGradient>
 </defs>
 <g id="Слой_x0020_1">
  <metadata id="CorelCorpID_0Corel-Layer"/>
  <path class="fil0" d="M635.02 1183.68c303.04,0 548.68,-245.64 548.68,-548.68 0,-303.04 -245.64,-548.68 -548.68,-548.68 -303.04,0 -548.67,245.64 -548.67,548.68 0,303.04 245.63,548.68 548.67,548.68z"/>
  <g style="clip-path:url(#id0)">
   <g id="_2184469790944">
    <g id="_2179906282736">
     <path id="1" class="fil1" d="M1183.72 633.56l-0.01 -0.81 -106.86 0c-0.09,-47.67 -7.72,-93.58 -21.77,-136.56l101.56 -33.21c-18.08,-55.35 -44.73,-106.79 -78.37,-152.85l-86.28 63.02c-27.31,-37.37 -60.38,-70.32 -97.85,-97.5l62.73 -86.48c-46.15,-33.48 -97.72,-59.95 -153.16,-77.84l-32.82 101.68c-42.8,-13.82 -88.47,-21.29 -135.88,-21.29 -0.22,0 -0.45,0 -0.68,0l-0.16 -106.84c-59.14,0.09 -116.09,9.55 -169.43,26.96l33.14 101.59c-44.55,14.53 -86,35.95 -123.06,63.01l-62.98 -86.3c-46.39,33.87 -87.27,74.84 -121.03,121.33l86.45 62.76c-26.96,37.14 -48.28,78.64 -62.7,123.24l-101.68 -32.89c-6.88,21.3 -12.5,43.14 -16.78,65.48l-0.48 2.58c-0.46,2.47 -0.91,4.96 -1.34,7.44 -0.27,1.61 -0.54,3.2 -0.8,4.81 -0.33,2 -0.64,3.99 -0.94,5.99 -0.32,2.13 -0.63,4.25 -0.93,6.39 -0.21,1.51 -0.42,3.03 -0.62,4.55 -0.35,2.67 -0.68,5.33 -0.99,8l-0.35 3.14c-0.33,3.03 -0.65,6.06 -0.93,9.12l-0.2 2.22c-0.29,3.28 -0.56,6.58 -0.79,9.87l-0.1 1.41c-0.25,3.65 -0.47,7.32 -0.64,11l-0.03 0.57c-0.18,3.79 -0.32,7.59 -0.43,11.4l0 0.41c-0.11,3.93 -0.17,7.87 -0.19,11.82 0.02,-3.95 0.08,-7.89 0.19,-11.82l0 -0.41c0.11,-3.81 0.25,-7.61 0.43,-11.4l0.03 -0.57c0.17,-3.68 0.39,-7.35 0.64,-11l0.1 -1.41c0.24,-3.29 0.5,-6.59 0.79,-9.87l0.2 -2.22c0.28,-3.06 0.6,-6.09 0.93,-9.12l0.35 -3.14c0.31,-2.67 0.64,-5.33 0.99,-8 0.2,-1.52 0.41,-3.04 0.62,-4.55 0.3,-2.14 0.61,-4.26 0.93,-6.39 0.3,-2 0.61,-3.99 0.94,-5.99 0.26,-1.6 0.53,-3.2 0.8,-4.81 0.43,-2.48 0.88,-4.97 1.34,-7.44l0.48 -2.58c40.25,-210.87 201.15,-378.92 408.16,-429.52 28.69,-7.01 58.31,-11.78 88.58,-14.08 13.93,-1.06 27.98,-1.6 42.17,-1.6 56.05,0 110.13,8.4 161.07,24.02 86,26.37 162.99,73.28 225.27,135.04 50.95,50.53 92.06,110.97 120.15,178.21 0.06,0.14 0.13,0.31 0.19,0.46 0.36,0.87 0.71,1.71 1.07,2.57 26.39,64.25 40.96,134.64 40.96,208.4l0 0z"/>
     <path class="fil2" d="M635.79 1185.15c4.67,-0.01 9.33,-0.07 13.97,-0.2l0.32 -0.01c4.44,-0.12 8.87,-0.29 13.29,-0.52l1.23 -0.07c4.15,-0.21 8.28,-0.48 12.41,-0.79l1.8 -0.14c3.87,-0.31 7.74,-0.66 11.59,-1.05l2.59 -0.26c3.59,-0.38 7.17,-0.79 10.73,-1.24l3.6 -0.46c3.14,-0.42 6.28,-0.86 9.4,-1.33 1.66,-0.24 3.3,-0.5 4.95,-0.76 2.61,-0.42 5.22,-0.85 7.82,-1.3 2.08,-0.37 4.16,-0.74 6.24,-1.13 2.09,-0.38 4.18,-0.79 6.26,-1.2 2.8,-0.56 5.6,-1.13 8.38,-1.72 1.35,-0.3 2.69,-0.59 4.04,-0.89 17.09,-3.8 33.89,-8.4 50.35,-13.75l-33.03 -101.6c44.57,-14.48 86.03,-35.87 123.12,-62.88l62.88 86.35 0.01 0.02 2.3 -1.69c1.92,-1.42 3.83,-2.84 5.72,-4.28 1.42,-1.07 2.83,-2.15 4.23,-3.23 2.18,-1.68 4.34,-3.38 6.49,-5.09 1.21,-0.96 2.42,-1.93 3.62,-2.9 2.29,-1.85 4.56,-3.73 6.82,-5.62 1.04,-0.88 2.08,-1.75 3.12,-2.63 2.32,-1.97 4.61,-3.96 6.89,-5.96 0.97,-0.85 1.93,-1.69 2.89,-2.55 2.41,-2.14 4.79,-4.31 7.17,-6.5l2.42 -2.25c2.47,-2.3 4.91,-4.63 7.34,-6.98l1.44 -1.4c2.69,-2.64 5.37,-5.29 8,-7.98l1.42 -1.45c2.75,-2.81 5.47,-5.66 8.17,-8.54l0.59 -0.63c5.78,-6.2 11.42,-12.54 16.91,-19.01l0.92 -1.08c2.23,-2.63 4.44,-5.29 6.62,-7.98l0.02 -0.02 1.7 -2.1 0.22 -0.26c2.03,-2.54 4.05,-5.08 6.04,-7.66 0.77,-0.99 1.54,-1.99 2.31,-2.99 1.82,-2.39 3.62,-4.79 5.41,-7.2 0.8,-1.08 1.59,-2.17 2.38,-3.25l0 0 -86.38 -62.85c27,-37.11 48.36,-78.6 62.84,-123.18l101.62 32.98c2.4,-7.38 4.65,-14.84 6.74,-22.36l0.69 -2.51 0.06 -0.22c0.86,-3.18 1.7,-6.39 2.52,-9.6 0.37,-1.47 0.74,-2.94 1.09,-4.42 0.65,-2.65 1.28,-5.31 1.89,-7.98 0.47,-2.07 0.94,-4.15 1.38,-6.23 0.47,-2.15 0.92,-4.31 1.36,-6.47 0.51,-2.52 1.01,-5.05 1.49,-7.58 0.32,-1.72 0.63,-3.43 0.94,-5.16 0.54,-3 1.05,-6.01 1.54,-9.03 0.21,-1.29 0.41,-2.59 0.61,-3.88 0.52,-3.41 1.02,-6.83 1.48,-10.26l0.37 -2.79c0.49,-3.82 0.96,-7.65 1.37,-11.5l0.19 -1.77c0.43,-4.11 0.82,-8.24 1.15,-12.38l0.09 -1.04c0.35,-4.37 0.65,-8.75 0.89,-13.15l0.03 -0.46c0.25,-4.55 0.45,-9.12 0.59,-13.7l0.01 -0.16c0.14,-4.66 0.22,-9.33 0.24,-14.01 -0.02,4.68 -0.1,9.35 -0.24,14.01l-0.01 0.16c-0.14,4.58 -0.34,9.15 -0.59,13.7l-0.03 0.46c-0.24,4.39 -0.54,8.78 -0.89,13.15l-0.09 1.04c-0.33,4.14 -0.72,8.27 -1.15,12.38l-0.19 1.77c-0.41,3.85 -0.87,7.68 -1.37,11.5l-0.37 2.79c-0.46,3.43 -0.96,6.85 -1.48,10.26 -0.2,1.29 -0.4,2.59 -0.61,3.88 -0.49,3.02 -1,6.03 -1.54,9.03 -0.31,1.73 -0.62,3.44 -0.94,5.16 -0.48,2.53 -0.98,5.06 -1.49,7.58 -0.44,2.16 -0.89,4.32 -1.36,6.47 -0.44,2.08 -0.91,4.16 -1.38,6.23 -0.6,2.67 -1.23,5.33 -1.89,7.98 -0.35,1.48 -0.72,2.95 -1.09,4.42 -0.82,3.21 -1.66,6.41 -2.52,9.6l-0.06 0.22 -0.69 2.51c-17.76,63.92 -46.77,123.15 -84.82,175.41 -0.79,1.08 -1.58,2.17 -2.38,3.25 -1.79,2.41 -3.59,4.81 -5.41,7.2 -0.77,1 -1.54,2 -2.31,2.99 -1.99,2.58 -4.01,5.12 -6.04,7.66l-0.22 0.26 -1.7 2.1 -0.02 0.02c-2.18,2.69 -4.39,5.35 -6.62,7.98l-0.92 1.08c-5.49,6.47 -11.13,12.81 -16.91,19.01l-0.59 0.63c-2.7,2.88 -5.42,5.73 -8.17,8.54l-1.42 1.45c-2.64,2.68 -5.31,5.34 -8,7.98l-1.44 1.4c-2.43,2.35 -4.87,4.68 -7.34,6.98l-2.42 2.25c-2.38,2.19 -4.76,4.36 -7.17,6.5 -0.96,0.86 -1.92,1.7 -2.89,2.55 -2.28,2 -4.57,3.99 -6.89,5.96 -1.04,0.88 -2.08,1.75 -3.12,2.63 -2.26,1.89 -4.53,3.77 -6.82,5.62 -1.2,0.97 -2.41,1.94 -3.62,2.9 -2.15,1.71 -4.31,3.41 -6.49,5.09 -1.4,1.08 -2.81,2.16 -4.23,3.23 -1.89,1.44 -3.8,2.86 -5.72,4.28 -0.77,0.56 -1.54,1.11 -2.31,1.67 -59.78,43.56 -128.68,75.32 -203.32,91.88 -1.35,0.3 -2.69,0.6 -4.04,0.89 -2.78,0.59 -5.58,1.16 -8.38,1.72 -2.08,0.41 -4.17,0.82 -6.26,1.2 -2.08,0.39 -4.16,0.76 -6.24,1.13 -2.6,0.45 -5.21,0.89 -7.82,1.3 -1.65,0.26 -3.29,0.52 -4.95,0.76 -3.12,0.47 -6.26,0.91 -9.4,1.33l-3.6 0.46c-3.56,0.45 -7.14,0.86 -10.73,1.24l-2.59 0.26c-3.85,0.39 -7.72,0.74 -11.59,1.05l-1.8 0.14c-4.13,0.31 -8.26,0.58 -12.41,0.79l-1.23 0.07c-4.42,0.23 -8.84,0.4 -13.29,0.52l-0.32 0.01c-4.64,0.13 -9.3,0.19 -13.97,0.2z"/>
     <path class="fil3" d="M635.01 1185.15c-59.05,0 -115.93,-9.36 -169.23,-26.65 -0.95,-0.3 -1.9,-0.61 -2.84,-0.91 -2.8,-0.93 -5.58,-1.87 -8.35,-2.84 -1.44,-0.5 -2.87,-1 -4.31,-1.52 -2.88,-1.03 -5.77,-2.09 -8.63,-3.17l-2.91 -1.1c-3.36,-1.29 -6.7,-2.61 -10.03,-3.96l-2.21 -0.9c-3.42,-1.41 -6.83,-2.85 -10.22,-4.33l-2.04 -0.89c-3.54,-1.56 -7.07,-3.15 -10.58,-4.79l-1.39 -0.65c-186.66,-87.57 -315.95,-277.17 -315.95,-496.97l0.01 0.28 106.86 -0.05c0.02,47.69 7.61,93.63 21.62,136.68l-101.59 33.08c18.04,55.38 44.61,106.89 78.22,152.95l86.33 -62.92c27.27,37.41 60.29,70.38 97.74,97.6l-62.79 86.42c27.97,20.33 57.93,38.09 89.55,52.93l1.39 0.65c3.51,1.64 7.04,3.23 10.58,4.79l2.04 0.89c3.39,1.48 6.8,2.92 10.22,4.33l2.21 0.9c3.33,1.35 6.67,2.67 10.03,3.96l2.91 1.1c2.87,1.09 5.75,2.14 8.63,3.17 1.44,0.52 2.87,1.02 4.31,1.52 2.77,0.97 5.55,1.91 8.35,2.84l2.83 0.93 0.01 -0.02 32.93 -101.63c42.93,13.91 88.74,21.42 136.3,21.42 0.08,0 0.16,0 0.23,0l0.06 106.86c-0.09,0 -0.2,0 -0.29,0z"/>
     <path class="fil4" d="M190.78 311.45c-33.5,46.14 -59.99,97.71 -77.9,153.13l101.68 32.89c14.42,-44.6 35.74,-86.1 62.7,-123.24l-86.48 -62.78z"/>
     <path class="fil5" d="M634.17 84.88l0.16 106.84c0.23,0 0.46,0 0.68,0 47.41,0 93.08,7.47 135.88,21.29l32.84 -101.73c-2.54,-0.81 -5.09,-1.62 -7.65,-2.4 -50.94,-15.62 -105.02,-24.02 -161.07,-24.02 -0.28,0 -0.56,0 -0.84,0.02z"/>
     <path class="fil6" d="M956.87 189.17l-62.73 86.48c37.47,27.18 70.54,60.13 97.85,97.5l86.31 -63.04c-17.22,-23.56 -36.28,-45.69 -56.95,-66.19 -20.03,-19.86 -41.58,-38.18 -64.48,-54.75z"/>
     <path class="fil7" d="M1156.64 462.98l-101.56 33.21c14.05,42.98 21.68,88.89 21.77,136.56l106.87 0c-0.09,-59.26 -9.58,-116.33 -27.08,-169.77z"/>
    </g>
   </g>
  </g>
  <path class="fil8" d="M635.02 1183.68c303.04,0 548.68,-245.64 548.68,-548.68 0,-303.04 -245.64,-548.68 -548.68,-548.68 -303.04,0 -548.67,245.64 -548.67,548.68 0,303.04 245.63,548.68 548.67,548.68z"/>
  <polygon class="fil9" points="86.32,632.51 86.32,632.49 86.32,632.48 86.32,632.48 86.32,632.46 86.32,632.46 86.32,632.44 86.32,632.43 86.32,632.43 86.32,632.42 86.32,632.4 86.32,632.38 86.32,632.37 86.32,632.35 86.32,632.35 86.32,632.34 86.32,632.33 86.32,632.32 86.32,632.32 86.32,632.3 86.32,632.3 86.32,632.29 86.32,632.29 86.32,632.27 86.32,632.27 86.32,632.25 86.32,632.27 86.32,632.27 86.32,632.29 86.32,632.29 86.32,632.3 86.32,632.3 86.32,632.32 86.32,632.32 86.32,632.33 86.32,632.34 86.32,632.35 86.32,632.35 86.32,632.37 86.32,632.38 86.32,632.4 86.32,632.42 86.32,632.43 86.32,632.43 86.32,632.44 86.32,632.46 86.32,632.46 86.32,632.48 86.32,632.48 86.32,632.49 "/>
  <polygon class="fil9" points="86.32,632.88 86.32,632.88 86.32,632.86 86.32,632.86 86.32,632.85 86.32,632.84 86.32,632.82 86.32,632.82 86.32,632.81 86.32,632.79 86.32,632.79 86.32,632.78 86.32,632.77 86.32,632.77 86.32,632.77 86.32,632.75 86.32,632.74 86.32,632.74 86.32,632.74 86.32,632.72 86.32,632.72 86.32,632.71 86.32,632.7 86.32,632.7 86.32,632.69 86.32,632.68 86.32,632.67 86.32,632.66 86.32,632.67 86.32,632.68 86.32,632.69 86.32,632.7 86.32,632.7 86.32,632.71 86.32,632.72 86.32,632.72 86.32,632.74 86.32,632.74 86.32,632.74 86.32,632.75 86.32,632.77 86.32,632.77 86.32,632.77 86.32,632.78 86.32,632.79 86.32,632.79 86.32,632.81 86.32,632.82 86.32,632.82 86.32,632.84 86.32,632.85 86.32,632.86 86.32,632.86 "/>
  <polygon class="fil10" points="86.31,633.27 86.31,633.23 86.31,633.22 86.31,633.19 86.31,633.19 86.32,633.14 86.32,633.14 86.32,633.09 86.32,633.14 86.32,633.14 86.31,633.19 86.31,633.19 86.31,633.22 86.31,633.23 "/>
  <polygon class="fil9" points="86.31,633.79 86.31,633.75 86.31,633.75 86.31,633.72 86.31,633.68 86.31,633.68 86.31,633.65 86.31,633.68 86.31,633.68 86.31,633.72 86.31,633.75 86.31,633.75 "/>
  <polygon class="fil9" points="86.31,634.2 86.31,634.17 86.31,634.17 86.31,634.13 86.31,634.1 86.31,634.09 86.31,634.06 86.31,634.09 86.31,634.1 86.31,634.13 86.31,634.17 86.31,634.17 "/>
  <line class="fil8" x1="1021.33" y1="245.37" x2="1021.33" y2= "245.37" />
  <line class="fil8" x1="592.82" y1="87.91" x2="592.82" y2= "87.91" />
  <line class="fil8" x1="504.24" y1="101.99" x2="504.24" y2= "101.99" />
  <polygon class="fil9" points="1183.7,635.54 1183.7,635.5 1183.7,635.5 1183.7,635.47 1183.7,635.47 1183.7,635.45 1183.7,635.45 1183.7,635.42 1183.7,635.45 1183.7,635.45 1183.7,635.47 1183.7,635.47 1183.7,635.5 1183.7,635.5 "/>
  <polygon class="fil9" points="1183.7,635.97 1183.7,635.94 1183.7,635.93 1183.7,635.89 1183.7,635.89 1183.7,635.85 1183.7,635.85 1183.7,635.82 1183.7,635.85 1183.7,635.85 1183.7,635.89 1183.7,635.89 1183.7,635.93 1183.7,635.94 "/>
  <polygon class="fil9" points="1183.7,636.38 1183.7,636.34 1183.7,636.34 1183.7,636.31 1183.7,636.27 1183.7,636.27 1183.7,636.24 1183.7,636.27 1183.7,636.27 1183.7,636.31 1183.7,636.34 1183.7,636.34 "/>
  <polygon class="fil9" points="1183.7,636.95 1183.7,636.94 1183.7,636.92 1183.7,636.92 1183.7,636.91 1183.7,636.91 1183.7,636.9 1183.7,636.9 1183.7,636.89 1183.7,636.89 1183.7,636.87 1183.7,636.87 1183.7,636.86 1183.7,636.85 1183.7,636.84 1183.7,636.83 1183.7,636.83 1183.7,636.81 1183.7,636.81 1183.7,636.8 1183.7,636.8 1183.7,636.79 1183.7,636.79 1183.7,636.78 1183.7,636.78 1183.7,636.76 1183.7,636.75 1183.7,636.76 1183.7,636.78 1183.7,636.78 1183.7,636.79 1183.7,636.79 1183.7,636.8 1183.7,636.8 1183.7,636.81 1183.7,636.81 1183.7,636.83 1183.7,636.83 1183.7,636.84 1183.7,636.85 1183.7,636.86 1183.7,636.87 1183.7,636.87 1183.7,636.89 1183.7,636.89 1183.7,636.9 1183.7,636.9 1183.7,636.91 1183.7,636.91 1183.7,636.92 1183.7,636.92 1183.7,636.94 "/>
  <polygon class="fil11" points="1183.69,637.37 1183.69,637.35 1183.69,637.35 1183.69,637.34 1183.69,637.34 1183.69,637.32 1183.69,637.32 1183.69,637.31 1183.69,637.31 1183.69,637.29 1183.69,637.29 1183.69,637.28 1183.69,637.28 1183.69,637.27 1183.69,637.27 1183.69,637.25 1183.69,637.24 1183.69,637.22 1183.69,637.21 1183.69,637.21 1183.69,637.2 1183.69,637.2 1183.7,637.18 1183.7,637.18 1183.7,637.17 1183.7,637.17 1183.7,637.15 1183.7,637.14 1183.7,637.15 1183.7,637.17 1183.7,637.17 1183.7,637.18 1183.7,637.18 1183.69,637.2 1183.69,637.2 1183.69,637.21 1183.69,637.21 1183.69,637.22 1183.69,637.24 1183.69,637.25 1183.69,637.27 1183.69,637.27 1183.69,637.28 1183.69,637.28 1183.69,637.29 1183.69,637.29 1183.69,637.31 1183.69,637.31 1183.69,637.32 1183.69,637.32 1183.69,637.34 1183.69,637.34 1183.69,637.35 1183.69,637.35 "/>
  <polygon class="fil9" points="1183.69,637.78 1183.69,637.76 1183.69,637.76 1183.69,637.74 1183.69,637.74 1183.69,637.72 1183.69,637.72 1183.69,637.71 1183.69,637.71 1183.69,637.69 1183.69,637.69 1183.69,637.67 1183.69,637.67 1183.69,637.66 1183.69,637.64 1183.69,637.62 1183.69,637.61 1183.69,637.6 1183.69,637.59 1183.69,637.57 1183.69,637.57 1183.69,637.56 1183.69,637.56 1183.69,637.54 1183.69,637.53 1183.69,637.53 1183.69,637.51 1183.69,637.53 1183.69,637.53 1183.69,637.54 1183.69,637.56 1183.69,637.56 1183.69,637.57 1183.69,637.57 1183.69,637.59 1183.69,637.6 1183.69,637.61 1183.69,637.62 1183.69,637.64 1183.69,637.66 1183.69,637.67 1183.69,637.67 1183.69,637.69 1183.69,637.69 1183.69,637.71 1183.69,637.71 1183.69,637.72 1183.69,637.72 1183.69,637.74 1183.69,637.74 1183.69,637.76 1183.69,637.76 "/>
  <path class="fil12" d="M1080.34 635.01c0,245.95 -199.38,445.32 -445.32,445.32 -245.95,0 -445.32,-199.37 -445.32,-445.32 0,-245.94 199.37,-445.33 445.32,-445.33 245.94,0 445.32,199.39 445.32,445.33z"/>
  <path class="fil13" d="M644.53 722.32c2.16,22 8.17,43.93 18.01,65.78l-57.92 0.93c9.96,-21.71 16.11,-43.51 18.45,-65.41 -32.13,21.48 -75.99,17.95 -104.24,-10.5 -32.07,-32.3 -31.89,-84.48 0.41,-116.55l116.39 -115.59 115.59 116.41c32.07,32.3 31.89,84.47 -0.41,116.55 -29.04,28.83 -74.16,31.6 -106.28,8.38z"/>
 </g>
</svg>
