<?xml version="1.0" encoding="UTF-8"?>
<!DOCTYPE svg PUBLIC "-//W3C//DTD SVG 1.1//EN" "http://www.w3.org/Graphics/SVG/1.1/DTD/svg11.dtd">
<!-- Creator: CorelDRAW 2020 (64-Bit) -->
<svg xmlns="http://www.w3.org/2000/svg" xml:space="preserve" width="12.7mm" height="12.7mm" version="1.1" style="shape-rendering:geometricPrecision; text-rendering:geometricPrecision; image-rendering:optimizeQuality; fill-rule:evenodd; clip-rule:evenodd"
viewBox="0 0 1270 1270"
 xmlns:xlink="http://www.w3.org/1999/xlink"
 xmlns:xodm="http://www.corel.com/coreldraw/odm/2003">
 <defs>
  <style type="text/css">
   <![CDATA[
    .fil0 {fill:#8E24AA}
    .fil1 {fill:#FEFEFE;fill-rule:nonzero}
   ]]>
  </style>
 </defs>
 <g id="Слой_x0020_1">
  <metadata id="CorelCorpID_0Corel-Layer"/>
  <g id="_2180770805264">
   <path class="fil0" d="M634.99 69.24c312.46,0 565.77,253.29 565.77,565.77 0,312.46 -253.31,565.76 -565.77,565.76 -312.46,0 -565.76,-253.3 -565.76,-565.76 0,-312.48 253.3,-565.77 565.76,-565.77z"/>
   <path class="fil1" d="M790.6 459.48l-44.54 0 0 126.26 44.43 0 0.11 -126.26zm-122.22 -0.57l-44.43 0 0 126.37 44.43 0 0 -126.37zm-188.99 -118.55l-111.06 105.2 0 378.88 133.28 0 0 105.2 111.06 -105.2 88.97 0 200.03 -189.44 0 -294.64 -422.28 0zm377.85 273.69l-88.85 84.14 -88.97 0 -77.8 73.66 0 -73.66 -100.01 0 0 -315.71 355.63 0 0 231.57z"/>
  </g>
 </g>
</svg>
