<?xml version="1.0" encoding="UTF-8"?>
<!DOCTYPE svg PUBLIC "-//W3C//DTD SVG 1.1//EN" "http://www.w3.org/Graphics/SVG/1.1/DTD/svg11.dtd">
<!-- Creator: CorelDRAW -->
<svg xmlns="http://www.w3.org/2000/svg" xml:space="preserve" width="21.99mm" height="21.99mm" version="1.1" style="shape-rendering:geometricPrecision; text-rendering:geometricPrecision; image-rendering:optimizeQuality; fill-rule:evenodd; clip-rule:evenodd"
viewBox="0 0 2199 2199"
 xmlns:xlink="http://www.w3.org/1999/xlink"
 xmlns:xodm="http://www.corel.com/coreldraw/odm/2003">
 <defs>
  <style type="text/css">
   <![CDATA[
    .fil1 {fill:#1B1F25;fill-rule:nonzero}
    .fil0 {fill:#FEFEFE;fill-rule:nonzero}
    .fil2 {fill:url(#id0)}
   ]]>
  </style>
  <linearGradient id="id0" gradientUnits="userSpaceOnUse" x1="2061.44" y1="117.54" x2="274.46" y2="1940.52">
   <stop offset="0" style="stop-opacity:1; stop-color:#6CBC8A"/>
   <stop offset="1" style="stop-opacity:1; stop-color:#91539B"/>
  </linearGradient>
 </defs>
 <g id="Слой_x0020_1">
  <metadata id="CorelCorpID_0Corel-Layer"/>
  <g id="_2501181436496">
   <g id="_1961985702576">
    <path class="fil0" d="M2017.86 1100.68c0,507.79 -411.67,919.46 -919.49,919.46 -507.83,0 -919.53,-411.67 -919.53,-919.46 0,-507.86 411.7,-919.53 919.53,-919.53 507.82,0 919.49,411.67 919.49,919.53z"/>
    <path class="fil1" d="M662.87 1366.8c7.79,-7.79 18.49,-12.29 29.84,-12.29l1029.64 0c18.79,0 28.21,22.69 14.9,36l-203.37 203.36c-7.79,7.85 -18.52,12.36 -29.86,12.36l-1029.61 0c-18.83,0 -28.24,-22.75 -14.93,-36l203.39 -203.43z"/>
    <path class="fil1" d="M662.87 607.41c8.1,-7.79 18.83,-12.36 29.84,-12.36l1029.64 0c18.79,0 28.21,22.76 14.9,36.07l-203.37 203.36c-7.79,7.79 -18.52,12.36 -29.86,12.36l-1029.61 0c-18.83,0 -28.24,-22.75 -14.93,-36l203.39 -203.43z"/>
    <path class="fil1" d="M1533.88 984.67c-7.79,-7.78 -18.52,-12.29 -29.86,-12.29l-1029.61 0c-18.83,0 -28.24,22.66 -14.93,35.97l203.39 203.45c7.79,7.75 18.49,12.26 29.84,12.26l1029.64 0c18.79,0 28.21,-22.66 14.9,-36l-203.37 -203.39z"/>
    <path class="fil2" d="M2197.64 1100.68c0,607.11 -492.19,1099.3 -1099.3,1099.3 -607.12,0 -1099.32,-492.19 -1099.32,-1099.3 0,-607.16 492.2,-1099.32 1099.32,-1099.32 607.11,0 1099.3,492.16 1099.3,1099.32z"/>
    <path class="fil0" d="M577.69 1418.87c9.29,-9.29 22.11,-14.75 35.66,-14.75l1230.98 0c22.48,0 33.73,27.17 17.82,43.02l-243.14 243.17c-9.32,9.35 -22.14,14.75 -35.7,14.75l-1230.94 0c-22.51,0 -33.73,-27.11 -17.85,-43.02l243.17 -243.17z"/>
    <path class="fil0" d="M577.69 510.97c9.69,-9.29 22.51,-14.75 35.66,-14.75l1230.98 0c22.48,0 33.73,27.17 17.82,43.09l-243.14 243.16c-9.32,9.3 -22.14,14.69 -35.7,14.69l-1230.94 0c-22.51,0 -33.73,-27.1 -17.85,-43.05l243.17 -243.14z"/>
    <path class="fil0" d="M1619.01 962.01c-9.32,-9.29 -22.14,-14.78 -35.7,-14.78l-1230.94 0c-22.51,0 -33.73,27.2 -17.85,43.09l243.17 243.16c9.29,9.29 22.11,14.78 35.66,14.78l1230.98 0c22.48,0 33.73,-27.2 17.82,-43.12l-243.14 -243.13z"/>
   </g>
  </g>
 </g>
</svg>
