<?xml version="1.0" encoding="UTF-8"?>
<!DOCTYPE svg PUBLIC "-//W3C//DTD SVG 1.1//EN" "http://www.w3.org/Graphics/SVG/1.1/DTD/svg11.dtd">
<!-- Creator: CorelDRAW -->
<svg xmlns="http://www.w3.org/2000/svg" xml:space="preserve" width="21.99mm" height="21.99mm" version="1.1" style="shape-rendering:geometricPrecision; text-rendering:geometricPrecision; image-rendering:optimizeQuality; fill-rule:evenodd; clip-rule:evenodd"
viewBox="0 0 2199 2199"
 xmlns:xlink="http://www.w3.org/1999/xlink"
 xmlns:xodm="http://www.corel.com/coreldraw/odm/2003">
 <defs>
  <style type="text/css">
   <![CDATA[
    .fil1 {fill:#1B1F25;fill-rule:nonzero}
    .fil2 {fill:#C3A73C;fill-rule:nonzero}
    .fil0 {fill:#FEFEFE;fill-rule:nonzero}
   ]]>
  </style>
 </defs>
 <g id="Слой_x0020_1">
  <metadata id="CorelCorpID_0Corel-Layer"/>
  <g id="_2501805466656">
   <g id="_1963698643360">
    <path class="fil0" d="M1098.33 181.21c-507.83,0 -919.5,411.67 -919.5,919.47 0,507.79 411.67,919.49 919.5,919.49 507.83,0 919.49,-411.7 919.49,-919.49 0,-507.8 -411.66,-919.47 -919.49,-919.47z"/>
    <path class="fil1" d="M1126.84 1413.57l-137.82 0 0 -258.99 206.69 0 0 -108.42 -206.69 0 0 -259.06 131.38 0c49.16,0 296.34,19.81 296.74,325.13 0.4,305.35 -254.88,301.34 -290.3,301.34zm-39.61 -810.14l-285.76 0 0 442.73 -117.38 0 0 108.45 117.38 0 0 442.67 332.98 0 0 0c0,0 468.24,39.25 468.24,-488.64 0,-519.26 -447.82,-505.21 -515.46,-505.21z"/>
    <path class="fil2" d="M1098.33 1.36c-607.15,0 -1099.31,492.16 -1099.31,1099.32 0,607.14 492.16,1099.3 1099.31,1099.3 607.15,0 1099.31,-492.16 1099.31,-1099.3 0,-607.16 -492.16,-1099.32 -1099.31,-1099.32z"/>
    <path class="fil0" d="M1132.42 1474.74l-164.78 0 0 -309.59 247.12 0 0 -129.7 -247.12 0 0 -309.61 157.09 0c58.75,0 354.29,23.61 354.75,388.69 0.49,365 -304.71,360.21 -347.06,360.21zm-47.33 -968.55l-341.69 0 0 529.26 -140.29 0 0 129.7 140.29 0 0 529.27 398.13 0 0 0c0,0 559.78,46.92 559.78,-584.18 0,-620.82 -535.4,-604.05 -616.22,-604.05z"/>
   </g>
  </g>
 </g>
</svg>
