<?xml version="1.0" encoding="UTF-8"?>
<!DOCTYPE svg PUBLIC "-//W3C//DTD SVG 1.1//EN" "http://www.w3.org/Graphics/SVG/1.1/DTD/svg11.dtd">
<!-- Creator: CorelDRAW -->
<svg xmlns="http://www.w3.org/2000/svg" xml:space="preserve" width="21.99mm" height="21.99mm" version="1.1" style="shape-rendering:geometricPrecision; text-rendering:geometricPrecision; image-rendering:optimizeQuality; fill-rule:evenodd; clip-rule:evenodd"
viewBox="0 0 2199 2199"
 xmlns:xlink="http://www.w3.org/1999/xlink"
 xmlns:xodm="http://www.corel.com/coreldraw/odm/2003">
 <defs>
  <style type="text/css">
   <![CDATA[
    .fil0 {fill:#3775B9;fill-rule:nonzero}
    .fil1 {fill:#FEFEFE;fill-rule:nonzero}
   ]]>
  </style>
 </defs>
 <g id="Слой_x0020_1">
  <metadata id="CorelCorpID_0Corel-Layer"/>
  <g id="_2502256858928">
   <g id="_1956472532944">
    <path class="fil0" d="M1098.33 2199.97c609.22,0 1099.29,-490.07 1099.29,-1099.28 0,-609.23 -490.07,-1099.31 -1099.29,-1099.31 -609.22,0 -1099.29,490.08 -1099.29,1099.31 0,609.21 490.07,1099.28 1099.29,1099.28z"/>
    <path class="fil1" d="M1400.61 1274.7c0,-160.29 -96.16,-215.24 -288.55,-238.24 -137.42,-18.33 -164.88,-54.95 -164.88,-119.03 0,-64.1 45.82,-105.29 137.39,-105.29 82.45,0 128.28,27.46 151.15,96.16 4.63,13.76 18.35,22.87 32.09,22.87l73.32 0c18.37,0 32.13,-13.74 32.13,-32.09l0 -4.63c-18.36,-100.8 -100.82,-178.63 -206.12,-187.76l0 -109.93c0,-18.36 -13.77,-32.09 -36.61,-36.61l-68.71 0c-18.36,0 -32.1,13.74 -36.61,36.61l0 105.33c-137.42,18.33 -224.47,109.93 -224.47,224.45 0,151.15 91.56,210.74 283.95,233.61 128.28,22.86 169.51,50.33 169.51,123.66 0,73.32 -64.11,123.69 -151.16,123.69 -119.05,0 -160.25,-50.37 -174.02,-119.06 -4.59,-18.37 -18.36,-27.47 -32.09,-27.47l-77.83 0c-18.36,0 -32.1,13.73 -32.1,32.09l0 4.6c18.37,114.55 91.57,197.02 242.72,219.86l0 109.92c0,18.36 13.74,32.13 36.61,36.6l68.71 0c18.33,0 32.1,-13.73 36.61,-36.6l0 -109.92c137.3,-22.96 228.96,-119.16 228.96,-242.82z"/>
    <path class="fil1" d="M1350.15 326.54c-18.36,-9.11 -36.6,0 -41.2,18.36 -4.62,4.63 -4.62,9.14 -4.62,18.39l0 64.07c0,18.36 13.72,36.61 27.46,45.86 357.28,128.26 540.53,526.77 407.64,879.41 -68.72,192.38 -219.88,338.91 -407.64,407.6 -18.33,9.14 -27.46,22.88 -27.46,45.86l0 64.08c0,18.35 9.13,32.12 27.46,36.62 4.63,0 13.77,0 18.36,-4.63 435.11,-137.38 673.33,-599.99 535.93,-1035.18 -82.46,-260.96 -283.95,-457.98 -535.93,-540.44zm-485.43 1429.1c-357.28,-128.29 -540.53,-526.8 -407.62,-879.44 68.7,-192.39 219.86,-338.91 407.62,-407.61 18.36,-9.14 27.49,-22.87 27.49,-45.86l0 -64.07c0,-18.35 -9.13,-32.12 -27.49,-36.6 -4.6,0 -13.74,0 -18.36,4.6 -435.09,137.42 -673.3,600 -535.9,1035.22 82.46,256.46 279.44,453.44 535.9,535.9 18.36,9.11 36.6,0 41.22,-18.36 4.63,-4.63 4.63,-9.14 4.63,-18.36l0 -64.1c0,-13.85 -13.73,-32.1 -27.49,-41.32z"/>
   </g>
  </g>
 </g>
</svg>
