<?xml version="1.0" encoding="UTF-8"?>
<!DOCTYPE svg PUBLIC "-//W3C//DTD SVG 1.1//EN" "http://www.w3.org/Graphics/SVG/1.1/DTD/svg11.dtd">
<!-- Creator: CorelDRAW -->
<svg xmlns="http://www.w3.org/2000/svg" xml:space="preserve" width="21.99mm" height="21.99mm" version="1.1" style="shape-rendering:geometricPrecision; text-rendering:geometricPrecision; image-rendering:optimizeQuality; fill-rule:evenodd; clip-rule:evenodd"
viewBox="0 0 2199 2199"
 xmlns:xlink="http://www.w3.org/1999/xlink"
 xmlns:xodm="http://www.corel.com/coreldraw/odm/2003">
 <defs>
  <style type="text/css">
   <![CDATA[
    .fil1 {fill:#1B1F25;fill-rule:nonzero}
    .fil2 {fill:#F3942E;fill-rule:nonzero}
    .fil0 {fill:#FEFEFE;fill-rule:nonzero}
   ]]>
  </style>
 </defs>
 <g id="Слой_x0020_1">
  <metadata id="CorelCorpID_0Corel-Layer"/>
  <g id="_2501805477360">
   <g id="_1965474629824">
    <path class="fil0" d="M1990.2 1323.1c-122.81,492.62 -621.75,792.33 -1114.37,669.55 -492.41,-122.81 -792.19,-621.78 -669.35,-1114.31 122.75,-492.62 621.63,-792.43 1114.13,-669.65 492.62,122.82 792.37,621.82 669.56,1114.41l0.03 0z"/>
    <path class="fil1" d="M1304.39 967.88c-28.46,113.92 -204.01,56.06 -260.98,41.89l50.22 -201.47c56.98,14.2 240.41,40.73 210.76,159.58zm-31.19 325.04c-31.21,125.27 -242.09,57.56 -310.53,40.54l55.41 -222.07c68.38,17.08 287.66,50.87 255.15,181.53l-0.03 0zm230.54 -323.23c18.27,-122.35 -74.88,-188.16 -202.26,-231.97l41.33 -165.75 -100.91 -25.17 -40.24 161.42c-26.49,-6.63 -53.72,-12.91 -80.8,-19.05l40.51 -162.46 -100.82 -25.08 -41.34 165.65c-21.95,-5 -43.51,-9.97 -64.42,-15.15l0.12 -0.49 -139.16 -34.77 -26.83 107.75 73.29 18.19c40.84,10.21 48.27,37.25 47.01,58.72l-47.22 189.53 -65.99 264.48c-5,12.42 -17.67,31 -46.25,23.95l-73.31 -18.27 -50.11 115.48 131.34 32.75c24.4,6.1 48.35,12.54 71.87,18.55l-41.73 167.64 100.76 25.15 41.37 -165.87c27.5,7.52 54.21,14.41 80.37,20.89l-41.21 165.06 100.88 25.12 41.77 -167.31c172.02,32.6 301.4,19.44 355.79,-136.15 43.88,-125.23 -2.14,-197.51 -92.66,-244.67 65.92,-15.21 115.57,-58.6 128.82,-148.17l0.03 0z"/>
    <g>
     <path class="fil2" d="M2164.77 1366.64c-146.85,588.97 -743.43,947.4 -1332.49,800.55 -588.78,-146.85 -947.25,-743.42 -800.34,-1332.36 146.76,-589.06 743.31,-947.53 1332.18,-800.68 589.03,146.85 947.47,743.49 800.62,1332.49l0.03 0z"/>
     <path class="fil0" d="M1344.71 941.91c-34,136.21 -243.93,67 -312.07,50.04l60.07 -240.87c68.14,16.96 287.48,48.67 252,190.83zm-37.28 388.61c-37.29,149.79 -289.48,68.87 -371.29,48.51l66.24 -265.55c81.78,20.42 343.96,60.83 305.11,217.04l-0.06 0zm275.67 -386.5c21.86,-146.29 -89.54,-224.95 -241.85,-277.35l49.43 -198.19 -120.7 -30.08 -48.08 192.97c-31.67,-7.88 -64.24,-15.39 -96.62,-22.75l48.45 -194.26 -120.57 -30.02 -49.43 198.09c-26.25,-5.98 -52.01,-11.9 -77.03,-18.09l0.12 -0.64 -166.35 -41.49 -32.08 128.79 87.61 21.8c48.85,12.17 57.71,44.55 56.21,70.16l-56.46 226.61 -78.9 316.24c-6.01,14.84 -21.15,37.16 -55.28,28.7l-87.7 -21.89 -59.89 138.14 157.03 39.1c29.19,7.29 57.8,14.99 85.95,22.23l-49.92 200.42 120.48 30.08 49.49 -198.34c32.88,8.96 64.83,17.21 96.08,25l-49.25 197.35 120.63 30.05 49.92 -200.05c205.7,38.91 360.4,23.24 425.44,-162.77 52.5,-149.82 -2.58,-236.2 -110.79,-292.6 78.81,-18.21 138.17,-70.09 154.03,-177.21l0.03 0z"/>
    </g>
   </g>
  </g>
 </g>
</svg>
