<?xml version="1.0" encoding="UTF-8"?>
<!DOCTYPE svg PUBLIC "-//W3C//DTD SVG 1.1//EN" "http://www.w3.org/Graphics/SVG/1.1/DTD/svg11.dtd">
<!-- Creator: CorelDRAW -->
<svg xmlns="http://www.w3.org/2000/svg" xml:space="preserve" width="21.99mm" height="21.99mm" version="1.1" style="shape-rendering:geometricPrecision; text-rendering:geometricPrecision; image-rendering:optimizeQuality; fill-rule:evenodd; clip-rule:evenodd"
viewBox="0 0 2199 2199"
 xmlns:xlink="http://www.w3.org/1999/xlink"
 xmlns:xodm="http://www.corel.com/coreldraw/odm/2003">
 <defs>
  <style type="text/css">
   <![CDATA[
    .fil1 {fill:#1B1F25;fill-rule:nonzero}
    .fil2 {fill:#58AF95;fill-rule:nonzero}
    .fil0 {fill:#FEFEFE;fill-rule:nonzero}
   ]]>
  </style>
 </defs>
 <g id="Слой_x0020_1">
  <metadata id="CorelCorpID_0Corel-Layer"/>
  <g id="_2501865809456">
   <g id="_1963261276544">
    <path class="fil0" d="M1098.36 181.2c507.76,0 919.46,411.7 919.46,919.56 0,507.76 -411.7,919.46 -919.46,919.46 -507.8,0 -919.53,-411.61 -919.53,-919.46 0,-507.95 411.64,-919.56 919.53,-919.56z"/>
    <path class="fil1" d="M1211.87 1185.72l0 -0.12c-6.38,0.43 -39.16,2.36 -112.16,2.36 -58.38,0 -99.44,-1.66 -113.92,-2.42l0 0.18c-224.61,-9.97 -392.25,-49.06 -392.25,-95.85 0,-46.76 167.67,-85.86 392.25,-95.85l0 152.76c14.72,1.01 56.79,3.49 114.87,3.49 69.75,0 104.83,-2.91 111.24,-3.49l0 -152.76c224.19,9.99 391.49,49.15 391.49,95.82 0,46.6 -167.36,85.82 -391.49,95.76l-0.03 0.12zm-0.06 -207.49l0 -136.83 312.81 0 0 -208.42 -851.75 0 0 208.42 312.83 0 0 136.67c-254.27,11.69 -445.43,62.07 -445.43,122.35 0,60.31 191.29,110.69 445.43,122.44l0 438.16 226.17 0 0 -438.2c253.78,-11.71 444.57,-62.06 444.57,-122.31 0,-60.22 -190.79,-110.57 -444.57,-122.28l-0.06 0z"/>
    <path class="fil2" d="M1098.36 1.35c607.08,0 1099.28,492.26 1099.28,1099.35 0,607.11 -492.2,1099.3 -1099.28,1099.3 -607.09,0 -1099.34,-492.07 -1099.34,-1099.3 0,-607.22 492.13,-1099.35 1099.34,-1099.35z"/>
    <path class="fil0" d="M1234.1 1202.31l0 -0.12c-7.66,0.46 -46.85,2.82 -134.11,2.82 -69.79,0 -118.89,-1.96 -136.21,-2.88l0 0.24c-268.53,-11.87 -468.98,-58.69 -468.98,-114.61 0,-55.93 200.48,-102.67 468.98,-114.53l0 182.53c17.63,1.23 67.89,4.2 137.34,4.2 83.4,0 125.32,-3.49 133.01,-4.2l0 -182.53c268.01,11.89 468,58.72 468,114.47 0,55.73 -200.08,102.56 -468,114.52l-0.03 0.09zm-0.09 -248.06l0 -163.51 373.98 0 0 -249.24 -1018.32 0 0 249.24 374.02 0 0 163.35c-303.98,13.95 -532.55,74.18 -532.55,146.3 0,72.11 228.69,132.28 532.55,146.35l0 523.84 270.41 0 0 -523.87c303.4,-14.04 531.51,-74.14 531.51,-146.26 0,-72 -228.11,-132.19 -531.51,-146.17l-0.09 -0.03z"/>
   </g>
  </g>
 </g>
</svg>
