<?xml version="1.0" encoding="UTF-8"?>
<!DOCTYPE svg PUBLIC "-//W3C//DTD SVG 1.1//EN" "http://www.w3.org/Graphics/SVG/1.1/DTD/svg11.dtd">
<!-- Creator: CorelDRAW -->
<svg xmlns="http://www.w3.org/2000/svg" xml:space="preserve" width="21.99mm" height="21.99mm" version="1.1" style="shape-rendering:geometricPrecision; text-rendering:geometricPrecision; image-rendering:optimizeQuality; fill-rule:evenodd; clip-rule:evenodd"
viewBox="0 0 2199 2199"
 xmlns:xlink="http://www.w3.org/1999/xlink"
 xmlns:xodm="http://www.corel.com/coreldraw/odm/2003">
 <defs>
  <style type="text/css">
   <![CDATA[
    .fil0 {fill:#0098EA;fill-rule:nonzero}
    .fil1 {fill:white;fill-rule:nonzero}
   ]]>
  </style>
 </defs>
 <g id="Слой_x0020_1">
  <metadata id="CorelCorpID_0Corel-Layer"/>
  <g id="_2501181433856">
   <g id="_1962313079664">
    <path class="fil0" d="M1098.33 2199.97c608.54,0 1099.3,-490.76 1099.3,-1099.3 0,-608.54 -490.76,-1099.3 -1099.3,-1099.3 -608.54,0 -1099.3,490.76 -1099.3,1099.3 0,608.54 490.76,1099.3 1099.3,1099.3z"/>
    <path class="fil1" d="M1475.23 613.84l-753.8 0c-137.41,0 -223.79,149.19 -157.04,270.9l463.28 804.85c31.41,51.05 106.01,51.05 137.4,0l463.29 -804.85c70.66,-121.71 -15.72,-270.9 -153.13,-270.9l0 0zm-443.64 832.32l-102.08 -196.3 -243.42 -435.8c-15.7,-27.48 3.94,-62.81 39.27,-62.81l306.23 0 0 694.91 0 0zm478.98 -632.1l-243.42 435.8 -102.08 196.3 0 -694.91 306.23 0c35.35,0 54.98,35.33 39.27,62.81z"/>
   </g>
  </g>
 </g>
</svg>
