<?xml version="1.0" encoding="UTF-8"?>
<!DOCTYPE svg PUBLIC "-//W3C//DTD SVG 1.1//EN" "http://www.w3.org/Graphics/SVG/1.1/DTD/svg11.dtd">
<!-- Creator: CorelDRAW -->
<svg xmlns="http://www.w3.org/2000/svg" xml:space="preserve" width="21.99mm" height="21.99mm" version="1.1" style="shape-rendering:geometricPrecision; text-rendering:geometricPrecision; image-rendering:optimizeQuality; fill-rule:evenodd; clip-rule:evenodd"
viewBox="0 0 2199 2199"
 xmlns:xlink="http://www.w3.org/1999/xlink"
 xmlns:xodm="http://www.corel.com/coreldraw/odm/2003">
 <defs>
  <style type="text/css">
   <![CDATA[
    .fil0 {fill:#E84748}
    .fil1 {fill:#FEFEFE;fill-rule:nonzero}
   ]]>
  </style>
 </defs>
 <g id="Слой_x0020_1">
  <metadata id="CorelCorpID_0Corel-Layer"/>
  <g id="_2502267092576">
   <path class="fil0" d="M2197.63 1100.68c0,607.13 -492.16,1099.29 -1099.3,1099.29 -607.13,0 -1099.29,-492.16 -1099.29,-1099.29 0,-607.14 492.16,-1099.31 1099.29,-1099.31 607.14,0 1099.3,492.17 1099.3,1099.31z"/>
   <path class="fil1" d="M1672.17 853.97c-58.19,-53.73 -138.68,-135.77 -204.24,-193.96l-3.88 -2.71c-6.44,-5.18 -13.74,-9.25 -21.52,-12.03l0 0c-158.08,-29.49 -893.77,-167 -908.12,-165.26 -4.01,0.57 -7.86,2.03 -11.24,4.28l-3.7 2.9c-4.52,4.61 -7.98,10.18 -10.08,16.3l-0.96 2.52 0 13.77 0 2.13c82.81,230.62 409.82,986.09 474.22,1163.37 3.87,12.02 11.25,34.91 25.02,36.07l3.1 0.01c7.36,0 38.79,-41.51 38.79,-41.51 0,0 561.71,-681.19 618.54,-753.73 7.33,-8.92 13.87,-18.57 19.41,-28.69 0.47,-2.71 0.71,-5.47 0.71,-8.21 0,-13.51 -5.86,-26.37 -16.05,-35.24l0 -0.01zm-478.49 79.32l239.73 -198.8 140.62 129.57 -380.35 69.23zm-93.1 -12.99l-412.75 -338.27 667.8 123.17 -255.05 215.1zm37.24 88.64l422.44 -68.08 -482.96 581.88 60.52 -513.8zm-506.05 -393.16l434.28 368.53 -62.84 538.82 -371.44 -907.35z"/>
  </g>
 </g>
</svg>
